G04 #@! TF.GenerationSoftware,KiCad,Pcbnew,(5.1.9)-1*
G04 #@! TF.CreationDate,2021-09-28T02:01:21-07:00*
G04 #@! TF.ProjectId,alphalpha rev2,616c7068-616c-4706-9861-20726576322e,rev?*
G04 #@! TF.SameCoordinates,Original*
G04 #@! TF.FileFunction,Legend,Top*
G04 #@! TF.FilePolarity,Positive*
%FSLAX46Y46*%
G04 Gerber Fmt 4.6, Leading zero omitted, Abs format (unit mm)*
G04 Created by KiCad (PCBNEW (5.1.9)-1) date 2021-09-28 02:01:21*
%MOMM*%
%LPD*%
G01*
G04 APERTURE LIST*
G04 #@! TA.AperFunction,Profile*
%ADD10C,0.200000*%
G04 #@! TD*
%ADD11C,0.010000*%
G04 APERTURE END LIST*
D10*
X47481250Y-13000000D02*
X181118750Y-13000000D01*
X186500000Y-7000000D02*
X181118750Y-13000000D01*
X186500000Y-7000000D02*
X210168750Y-7000000D01*
X212550000Y-13000000D02*
X210168750Y-7000000D01*
X42100000Y-7000000D02*
X47481250Y-13000000D01*
X16050000Y-13000000D02*
X18431250Y-7000000D01*
X207168750Y-77521000D02*
X212550000Y-70389750D01*
X16050000Y-70389750D02*
X21431250Y-77521000D01*
X18431250Y-7000000D02*
X42100000Y-7000000D01*
X212550000Y-13000000D02*
X212550000Y-70389750D01*
X207168750Y-77521000D02*
X21431250Y-77521000D01*
X16050000Y-70389750D02*
X16050000Y-13000000D01*
D11*
G36*
X132619978Y-60120242D02*
G01*
X132773464Y-60123805D01*
X133337309Y-60138876D01*
X133753987Y-60155148D01*
X134055802Y-60177374D01*
X134275058Y-60210304D01*
X134444059Y-60258689D01*
X134595109Y-60327282D01*
X134749661Y-60414470D01*
X135273899Y-60772477D01*
X135725826Y-61179075D01*
X136055720Y-61589233D01*
X136067551Y-61608106D01*
X136177686Y-61846419D01*
X136295029Y-62195753D01*
X136398033Y-62589940D01*
X136418763Y-62686494D01*
X136491734Y-63061924D01*
X136526243Y-63336083D01*
X136521145Y-63578828D01*
X136475291Y-63860017D01*
X136393520Y-64223879D01*
X136285611Y-64640400D01*
X136172169Y-64944752D01*
X136022382Y-65202480D01*
X135805439Y-65479132D01*
X135801054Y-65484306D01*
X135352077Y-65937275D01*
X134866524Y-66294959D01*
X134389207Y-66525929D01*
X134261813Y-66563946D01*
X134052162Y-66597137D01*
X133713936Y-66629417D01*
X133289726Y-66658896D01*
X132822120Y-66683683D01*
X132353710Y-66701889D01*
X131927084Y-66711623D01*
X131584832Y-66710996D01*
X131369545Y-66698117D01*
X131343472Y-66693457D01*
X130803932Y-66500446D01*
X130367241Y-66202612D01*
X130104391Y-65885887D01*
X129862553Y-65485508D01*
X129862553Y-62840459D01*
X130924489Y-62840459D01*
X130926859Y-63396942D01*
X130927697Y-63473390D01*
X130948801Y-65268443D01*
X131185226Y-65480405D01*
X131282918Y-65562552D01*
X131382656Y-65618526D01*
X131516556Y-65651409D01*
X131716731Y-65664286D01*
X132015296Y-65660242D01*
X132444365Y-65642361D01*
X132728851Y-65628661D01*
X133273815Y-65598094D01*
X133672019Y-65564434D01*
X133956199Y-65522748D01*
X134159091Y-65468101D01*
X134313431Y-65395559D01*
X134326202Y-65387897D01*
X134783837Y-65010772D01*
X135141386Y-64519150D01*
X135354606Y-63984861D01*
X135423941Y-63585792D01*
X135423005Y-63182106D01*
X135349203Y-62709020D01*
X135293739Y-62465319D01*
X135169743Y-62211384D01*
X134933067Y-61917548D01*
X134627818Y-61631318D01*
X134312764Y-61408703D01*
X134148913Y-61320784D01*
X133984042Y-61259384D01*
X133781060Y-61219122D01*
X133502878Y-61194621D01*
X133112404Y-61180502D01*
X132687088Y-61172965D01*
X132103963Y-61168845D01*
X131674606Y-61178564D01*
X131373517Y-61206702D01*
X131175196Y-61257841D01*
X131054144Y-61336562D01*
X130984862Y-61447445D01*
X130972556Y-61480985D01*
X130953300Y-61629003D01*
X130938406Y-61925548D01*
X130928570Y-62339681D01*
X130924489Y-62840459D01*
X129862553Y-62840459D01*
X129862553Y-61219841D01*
X130118998Y-60815469D01*
X130290886Y-60576747D01*
X130481549Y-60395703D01*
X130716801Y-60265611D01*
X131022456Y-60179746D01*
X131424328Y-60131380D01*
X131948231Y-60113787D01*
X132619978Y-60120242D01*
G37*
X132619978Y-60120242D02*
X132773464Y-60123805D01*
X133337309Y-60138876D01*
X133753987Y-60155148D01*
X134055802Y-60177374D01*
X134275058Y-60210304D01*
X134444059Y-60258689D01*
X134595109Y-60327282D01*
X134749661Y-60414470D01*
X135273899Y-60772477D01*
X135725826Y-61179075D01*
X136055720Y-61589233D01*
X136067551Y-61608106D01*
X136177686Y-61846419D01*
X136295029Y-62195753D01*
X136398033Y-62589940D01*
X136418763Y-62686494D01*
X136491734Y-63061924D01*
X136526243Y-63336083D01*
X136521145Y-63578828D01*
X136475291Y-63860017D01*
X136393520Y-64223879D01*
X136285611Y-64640400D01*
X136172169Y-64944752D01*
X136022382Y-65202480D01*
X135805439Y-65479132D01*
X135801054Y-65484306D01*
X135352077Y-65937275D01*
X134866524Y-66294959D01*
X134389207Y-66525929D01*
X134261813Y-66563946D01*
X134052162Y-66597137D01*
X133713936Y-66629417D01*
X133289726Y-66658896D01*
X132822120Y-66683683D01*
X132353710Y-66701889D01*
X131927084Y-66711623D01*
X131584832Y-66710996D01*
X131369545Y-66698117D01*
X131343472Y-66693457D01*
X130803932Y-66500446D01*
X130367241Y-66202612D01*
X130104391Y-65885887D01*
X129862553Y-65485508D01*
X129862553Y-62840459D01*
X130924489Y-62840459D01*
X130926859Y-63396942D01*
X130927697Y-63473390D01*
X130948801Y-65268443D01*
X131185226Y-65480405D01*
X131282918Y-65562552D01*
X131382656Y-65618526D01*
X131516556Y-65651409D01*
X131716731Y-65664286D01*
X132015296Y-65660242D01*
X132444365Y-65642361D01*
X132728851Y-65628661D01*
X133273815Y-65598094D01*
X133672019Y-65564434D01*
X133956199Y-65522748D01*
X134159091Y-65468101D01*
X134313431Y-65395559D01*
X134326202Y-65387897D01*
X134783837Y-65010772D01*
X135141386Y-64519150D01*
X135354606Y-63984861D01*
X135423941Y-63585792D01*
X135423005Y-63182106D01*
X135349203Y-62709020D01*
X135293739Y-62465319D01*
X135169743Y-62211384D01*
X134933067Y-61917548D01*
X134627818Y-61631318D01*
X134312764Y-61408703D01*
X134148913Y-61320784D01*
X133984042Y-61259384D01*
X133781060Y-61219122D01*
X133502878Y-61194621D01*
X133112404Y-61180502D01*
X132687088Y-61172965D01*
X132103963Y-61168845D01*
X131674606Y-61178564D01*
X131373517Y-61206702D01*
X131175196Y-61257841D01*
X131054144Y-61336562D01*
X130984862Y-61447445D01*
X130972556Y-61480985D01*
X130953300Y-61629003D01*
X130938406Y-61925548D01*
X130928570Y-62339681D01*
X130924489Y-62840459D01*
X129862553Y-62840459D01*
X129862553Y-61219841D01*
X130118998Y-60815469D01*
X130290886Y-60576747D01*
X130481549Y-60395703D01*
X130716801Y-60265611D01*
X131022456Y-60179746D01*
X131424328Y-60131380D01*
X131948231Y-60113787D01*
X132619978Y-60120242D01*
G36*
X64031268Y-60118085D02*
G01*
X64367602Y-60126699D01*
X64974234Y-60145515D01*
X65437743Y-60171911D01*
X65794489Y-60216446D01*
X66080831Y-60289681D01*
X66333127Y-60402175D01*
X66587736Y-60564489D01*
X66881018Y-60787184D01*
X67018785Y-60896717D01*
X67394307Y-61252384D01*
X67671584Y-61657792D01*
X67875334Y-62157708D01*
X68009214Y-62690596D01*
X68083847Y-63069717D01*
X68120357Y-63342490D01*
X68117174Y-63577100D01*
X68072724Y-63841733D01*
X67985435Y-64204576D01*
X67973177Y-64253307D01*
X67854428Y-64678431D01*
X67730454Y-64991357D01*
X67569812Y-65257468D01*
X67368864Y-65509844D01*
X67068789Y-65815714D01*
X66715891Y-66112444D01*
X66466989Y-66284740D01*
X66243833Y-66412435D01*
X66042863Y-66501619D01*
X65819347Y-66562876D01*
X65528549Y-66606791D01*
X65125735Y-66643948D01*
X64866416Y-66663440D01*
X64249594Y-66704665D01*
X63776678Y-66726860D01*
X63413128Y-66730472D01*
X63124403Y-66715951D01*
X62907076Y-66688896D01*
X62378638Y-66524063D01*
X61959672Y-66217574D01*
X61751971Y-65950782D01*
X61492679Y-65537701D01*
X61439301Y-63493083D01*
X61402794Y-62094655D01*
X62461462Y-62094655D01*
X62467916Y-62475663D01*
X62483611Y-62995513D01*
X62496374Y-63373078D01*
X62517274Y-63931823D01*
X62539434Y-64434869D01*
X62561276Y-64852516D01*
X62581221Y-65155066D01*
X62597691Y-65312820D01*
X62599980Y-65322923D01*
X62669276Y-65455298D01*
X62804124Y-65548367D01*
X63028293Y-65606258D01*
X63365553Y-65633098D01*
X63839675Y-65633015D01*
X64298242Y-65617815D01*
X64816014Y-65593246D01*
X65191582Y-65565309D01*
X65462226Y-65527899D01*
X65665225Y-65474910D01*
X65837861Y-65400239D01*
X65927745Y-65350965D01*
X66404972Y-64979081D01*
X66747726Y-64500699D01*
X66950251Y-63934435D01*
X67006791Y-63298907D01*
X66911590Y-62612732D01*
X66846361Y-62379841D01*
X66703846Y-62120458D01*
X66451355Y-61827397D01*
X66138030Y-61550071D01*
X65813014Y-61337889D01*
X65806961Y-61334766D01*
X65553753Y-61261354D01*
X65124114Y-61210578D01*
X64517233Y-61182347D01*
X64477747Y-61181425D01*
X63897103Y-61170075D01*
X63467806Y-61167656D01*
X63161797Y-61177116D01*
X62951016Y-61201406D01*
X62807406Y-61243474D01*
X62702907Y-61306270D01*
X62625940Y-61376081D01*
X62561273Y-61446949D01*
X62514153Y-61528636D01*
X62482919Y-61646746D01*
X62465909Y-61826884D01*
X62461462Y-62094655D01*
X61402794Y-62094655D01*
X61385924Y-61448465D01*
X61624945Y-60961111D01*
X61783698Y-60670332D01*
X61944129Y-60487960D01*
X62169594Y-60353826D01*
X62342690Y-60279457D01*
X62530761Y-60208412D01*
X62711300Y-60158412D01*
X62917964Y-60126918D01*
X63184408Y-60111392D01*
X63544291Y-60109294D01*
X64031268Y-60118085D01*
G37*
X64031268Y-60118085D02*
X64367602Y-60126699D01*
X64974234Y-60145515D01*
X65437743Y-60171911D01*
X65794489Y-60216446D01*
X66080831Y-60289681D01*
X66333127Y-60402175D01*
X66587736Y-60564489D01*
X66881018Y-60787184D01*
X67018785Y-60896717D01*
X67394307Y-61252384D01*
X67671584Y-61657792D01*
X67875334Y-62157708D01*
X68009214Y-62690596D01*
X68083847Y-63069717D01*
X68120357Y-63342490D01*
X68117174Y-63577100D01*
X68072724Y-63841733D01*
X67985435Y-64204576D01*
X67973177Y-64253307D01*
X67854428Y-64678431D01*
X67730454Y-64991357D01*
X67569812Y-65257468D01*
X67368864Y-65509844D01*
X67068789Y-65815714D01*
X66715891Y-66112444D01*
X66466989Y-66284740D01*
X66243833Y-66412435D01*
X66042863Y-66501619D01*
X65819347Y-66562876D01*
X65528549Y-66606791D01*
X65125735Y-66643948D01*
X64866416Y-66663440D01*
X64249594Y-66704665D01*
X63776678Y-66726860D01*
X63413128Y-66730472D01*
X63124403Y-66715951D01*
X62907076Y-66688896D01*
X62378638Y-66524063D01*
X61959672Y-66217574D01*
X61751971Y-65950782D01*
X61492679Y-65537701D01*
X61439301Y-63493083D01*
X61402794Y-62094655D01*
X62461462Y-62094655D01*
X62467916Y-62475663D01*
X62483611Y-62995513D01*
X62496374Y-63373078D01*
X62517274Y-63931823D01*
X62539434Y-64434869D01*
X62561276Y-64852516D01*
X62581221Y-65155066D01*
X62597691Y-65312820D01*
X62599980Y-65322923D01*
X62669276Y-65455298D01*
X62804124Y-65548367D01*
X63028293Y-65606258D01*
X63365553Y-65633098D01*
X63839675Y-65633015D01*
X64298242Y-65617815D01*
X64816014Y-65593246D01*
X65191582Y-65565309D01*
X65462226Y-65527899D01*
X65665225Y-65474910D01*
X65837861Y-65400239D01*
X65927745Y-65350965D01*
X66404972Y-64979081D01*
X66747726Y-64500699D01*
X66950251Y-63934435D01*
X67006791Y-63298907D01*
X66911590Y-62612732D01*
X66846361Y-62379841D01*
X66703846Y-62120458D01*
X66451355Y-61827397D01*
X66138030Y-61550071D01*
X65813014Y-61337889D01*
X65806961Y-61334766D01*
X65553753Y-61261354D01*
X65124114Y-61210578D01*
X64517233Y-61182347D01*
X64477747Y-61181425D01*
X63897103Y-61170075D01*
X63467806Y-61167656D01*
X63161797Y-61177116D01*
X62951016Y-61201406D01*
X62807406Y-61243474D01*
X62702907Y-61306270D01*
X62625940Y-61376081D01*
X62561273Y-61446949D01*
X62514153Y-61528636D01*
X62482919Y-61646746D01*
X62465909Y-61826884D01*
X62461462Y-62094655D01*
X61402794Y-62094655D01*
X61385924Y-61448465D01*
X61624945Y-60961111D01*
X61783698Y-60670332D01*
X61944129Y-60487960D01*
X62169594Y-60353826D01*
X62342690Y-60279457D01*
X62530761Y-60208412D01*
X62711300Y-60158412D01*
X62917964Y-60126918D01*
X63184408Y-60111392D01*
X63544291Y-60109294D01*
X64031268Y-60118085D01*
G36*
X169732475Y-64354910D02*
G01*
X169998987Y-64569651D01*
X170166464Y-64799863D01*
X170293306Y-65126317D01*
X170295652Y-65133814D01*
X170417266Y-65477683D01*
X170556459Y-65806850D01*
X170627359Y-65948186D01*
X170739967Y-66174432D01*
X170892355Y-66510994D01*
X171059124Y-66900934D01*
X171136687Y-67090009D01*
X171295826Y-67502013D01*
X171389760Y-67804845D01*
X171430129Y-68051562D01*
X171428573Y-68295219D01*
X171420759Y-68384825D01*
X171383401Y-68666089D01*
X171314456Y-68833481D01*
X171170107Y-68952216D01*
X170969267Y-69056793D01*
X170790641Y-69135961D01*
X170607975Y-69190805D01*
X170384217Y-69225575D01*
X170082319Y-69244519D01*
X169665230Y-69251889D01*
X169263966Y-69252397D01*
X168715615Y-69247245D01*
X168310927Y-69231952D01*
X168014183Y-69202914D01*
X167789659Y-69156528D01*
X167601635Y-69089191D01*
X167588410Y-69083374D01*
X167374098Y-68977580D01*
X167254712Y-68865221D01*
X167192058Y-68687603D01*
X167151098Y-68411406D01*
X167129535Y-68195015D01*
X167130968Y-68101271D01*
X168237311Y-68101271D01*
X168263623Y-68175976D01*
X168281823Y-68190909D01*
X168459917Y-68240260D01*
X168530848Y-68229338D01*
X168668980Y-68210108D01*
X168939727Y-68195153D01*
X169296209Y-68186607D01*
X169495689Y-68185404D01*
X169907693Y-68179549D01*
X170167742Y-68159324D01*
X170303087Y-68120739D01*
X170340998Y-68061621D01*
X170300475Y-67898304D01*
X170182238Y-67587758D01*
X169991287Y-67142067D01*
X169732619Y-66573314D01*
X169668222Y-66435228D01*
X169537123Y-66140686D01*
X169432866Y-65880877D01*
X169397003Y-65775486D01*
X169329661Y-65644131D01*
X169269868Y-65640857D01*
X169211821Y-65746619D01*
X169096993Y-65985624D01*
X168940015Y-66326429D01*
X168755514Y-66737586D01*
X168678089Y-66912877D01*
X168470886Y-67392125D01*
X168333390Y-67733703D01*
X168258049Y-67961966D01*
X168237311Y-68101271D01*
X167130968Y-68101271D01*
X167132417Y-68006601D01*
X167169840Y-67806898D01*
X167251903Y-67556640D01*
X167388703Y-67216559D01*
X167562510Y-66811514D01*
X167848143Y-66159736D01*
X168079867Y-65650721D01*
X168271045Y-65260807D01*
X168435034Y-64966332D01*
X168585197Y-64743633D01*
X168734894Y-64569049D01*
X168897485Y-64418919D01*
X168927545Y-64393982D01*
X169323354Y-64069646D01*
X169732475Y-64354910D01*
G37*
X169732475Y-64354910D02*
X169998987Y-64569651D01*
X170166464Y-64799863D01*
X170293306Y-65126317D01*
X170295652Y-65133814D01*
X170417266Y-65477683D01*
X170556459Y-65806850D01*
X170627359Y-65948186D01*
X170739967Y-66174432D01*
X170892355Y-66510994D01*
X171059124Y-66900934D01*
X171136687Y-67090009D01*
X171295826Y-67502013D01*
X171389760Y-67804845D01*
X171430129Y-68051562D01*
X171428573Y-68295219D01*
X171420759Y-68384825D01*
X171383401Y-68666089D01*
X171314456Y-68833481D01*
X171170107Y-68952216D01*
X170969267Y-69056793D01*
X170790641Y-69135961D01*
X170607975Y-69190805D01*
X170384217Y-69225575D01*
X170082319Y-69244519D01*
X169665230Y-69251889D01*
X169263966Y-69252397D01*
X168715615Y-69247245D01*
X168310927Y-69231952D01*
X168014183Y-69202914D01*
X167789659Y-69156528D01*
X167601635Y-69089191D01*
X167588410Y-69083374D01*
X167374098Y-68977580D01*
X167254712Y-68865221D01*
X167192058Y-68687603D01*
X167151098Y-68411406D01*
X167129535Y-68195015D01*
X167130968Y-68101271D01*
X168237311Y-68101271D01*
X168263623Y-68175976D01*
X168281823Y-68190909D01*
X168459917Y-68240260D01*
X168530848Y-68229338D01*
X168668980Y-68210108D01*
X168939727Y-68195153D01*
X169296209Y-68186607D01*
X169495689Y-68185404D01*
X169907693Y-68179549D01*
X170167742Y-68159324D01*
X170303087Y-68120739D01*
X170340998Y-68061621D01*
X170300475Y-67898304D01*
X170182238Y-67587758D01*
X169991287Y-67142067D01*
X169732619Y-66573314D01*
X169668222Y-66435228D01*
X169537123Y-66140686D01*
X169432866Y-65880877D01*
X169397003Y-65775486D01*
X169329661Y-65644131D01*
X169269868Y-65640857D01*
X169211821Y-65746619D01*
X169096993Y-65985624D01*
X168940015Y-66326429D01*
X168755514Y-66737586D01*
X168678089Y-66912877D01*
X168470886Y-67392125D01*
X168333390Y-67733703D01*
X168258049Y-67961966D01*
X168237311Y-68101271D01*
X167130968Y-68101271D01*
X167132417Y-68006601D01*
X167169840Y-67806898D01*
X167251903Y-67556640D01*
X167388703Y-67216559D01*
X167562510Y-66811514D01*
X167848143Y-66159736D01*
X168079867Y-65650721D01*
X168271045Y-65260807D01*
X168435034Y-64966332D01*
X168585197Y-64743633D01*
X168734894Y-64569049D01*
X168897485Y-64418919D01*
X168927545Y-64393982D01*
X169323354Y-64069646D01*
X169732475Y-64354910D01*
G36*
X101029186Y-64188934D02*
G01*
X101217295Y-64295840D01*
X101334403Y-64377394D01*
X101571771Y-64579117D01*
X101743237Y-64821695D01*
X101893895Y-65170489D01*
X101907534Y-65208095D01*
X102046340Y-65574010D01*
X102194937Y-65934326D01*
X102292618Y-66150498D01*
X102628579Y-66878084D01*
X102864241Y-67473786D01*
X103000882Y-67953721D01*
X103039780Y-68334007D01*
X102982211Y-68630762D01*
X102829454Y-68860102D01*
X102582784Y-69038146D01*
X102523836Y-69068269D01*
X102343114Y-69146791D01*
X102155255Y-69200925D01*
X101922687Y-69234978D01*
X101607838Y-69253258D01*
X101173136Y-69260073D01*
X100847608Y-69260465D01*
X100307402Y-69255622D01*
X99910199Y-69240503D01*
X99619614Y-69211333D01*
X99399261Y-69164337D01*
X99212755Y-69095740D01*
X99198563Y-69089367D01*
X98971603Y-68962387D01*
X98829836Y-68802562D01*
X98749182Y-68563448D01*
X98705560Y-68198598D01*
X98700643Y-68128977D01*
X98701023Y-68126604D01*
X99822529Y-68126604D01*
X99903037Y-68175650D01*
X100110362Y-68202846D01*
X100462728Y-68209453D01*
X100884146Y-68200012D01*
X101292721Y-68183558D01*
X101630470Y-68164481D01*
X101859963Y-68145261D01*
X101943044Y-68129860D01*
X101927146Y-68029985D01*
X101836001Y-67785967D01*
X101676253Y-67413397D01*
X101454546Y-66927871D01*
X101221006Y-66435228D01*
X101087045Y-66131122D01*
X100993521Y-65870213D01*
X100962165Y-65721694D01*
X100932855Y-65610473D01*
X100879590Y-65631941D01*
X100799374Y-65759446D01*
X100673968Y-66009369D01*
X100518788Y-66345326D01*
X100349251Y-66730935D01*
X100180773Y-67129813D01*
X100028771Y-67505577D01*
X99908661Y-67821845D01*
X99835860Y-68042232D01*
X99822529Y-68126604D01*
X98701023Y-68126604D01*
X98731775Y-67934827D01*
X98831331Y-67615260D01*
X98984426Y-67203861D01*
X99176174Y-66734212D01*
X99391689Y-66239899D01*
X99616085Y-65754505D01*
X99834477Y-65311615D01*
X100031978Y-64944814D01*
X100193702Y-64687684D01*
X100262940Y-64604263D01*
X100492150Y-64405533D01*
X100716376Y-64248466D01*
X100742674Y-64233689D01*
X100891501Y-64173201D01*
X101029186Y-64188934D01*
G37*
X101029186Y-64188934D02*
X101217295Y-64295840D01*
X101334403Y-64377394D01*
X101571771Y-64579117D01*
X101743237Y-64821695D01*
X101893895Y-65170489D01*
X101907534Y-65208095D01*
X102046340Y-65574010D01*
X102194937Y-65934326D01*
X102292618Y-66150498D01*
X102628579Y-66878084D01*
X102864241Y-67473786D01*
X103000882Y-67953721D01*
X103039780Y-68334007D01*
X102982211Y-68630762D01*
X102829454Y-68860102D01*
X102582784Y-69038146D01*
X102523836Y-69068269D01*
X102343114Y-69146791D01*
X102155255Y-69200925D01*
X101922687Y-69234978D01*
X101607838Y-69253258D01*
X101173136Y-69260073D01*
X100847608Y-69260465D01*
X100307402Y-69255622D01*
X99910199Y-69240503D01*
X99619614Y-69211333D01*
X99399261Y-69164337D01*
X99212755Y-69095740D01*
X99198563Y-69089367D01*
X98971603Y-68962387D01*
X98829836Y-68802562D01*
X98749182Y-68563448D01*
X98705560Y-68198598D01*
X98700643Y-68128977D01*
X98701023Y-68126604D01*
X99822529Y-68126604D01*
X99903037Y-68175650D01*
X100110362Y-68202846D01*
X100462728Y-68209453D01*
X100884146Y-68200012D01*
X101292721Y-68183558D01*
X101630470Y-68164481D01*
X101859963Y-68145261D01*
X101943044Y-68129860D01*
X101927146Y-68029985D01*
X101836001Y-67785967D01*
X101676253Y-67413397D01*
X101454546Y-66927871D01*
X101221006Y-66435228D01*
X101087045Y-66131122D01*
X100993521Y-65870213D01*
X100962165Y-65721694D01*
X100932855Y-65610473D01*
X100879590Y-65631941D01*
X100799374Y-65759446D01*
X100673968Y-66009369D01*
X100518788Y-66345326D01*
X100349251Y-66730935D01*
X100180773Y-67129813D01*
X100028771Y-67505577D01*
X99908661Y-67821845D01*
X99835860Y-68042232D01*
X99822529Y-68126604D01*
X98701023Y-68126604D01*
X98731775Y-67934827D01*
X98831331Y-67615260D01*
X98984426Y-67203861D01*
X99176174Y-66734212D01*
X99391689Y-66239899D01*
X99616085Y-65754505D01*
X99834477Y-65311615D01*
X100031978Y-64944814D01*
X100193702Y-64687684D01*
X100262940Y-64604263D01*
X100492150Y-64405533D01*
X100716376Y-64248466D01*
X100742674Y-64233689D01*
X100891501Y-64173201D01*
X101029186Y-64188934D01*
G36*
X32617240Y-64192183D02*
G01*
X32815168Y-64307876D01*
X32927321Y-64380002D01*
X33136554Y-64543247D01*
X33285070Y-64737686D01*
X33411377Y-65021526D01*
X33476610Y-65210214D01*
X33599929Y-65549377D01*
X33728920Y-65848803D01*
X33828140Y-66031341D01*
X33966169Y-66277274D01*
X34045326Y-66480104D01*
X34112464Y-66672634D01*
X34230095Y-66966274D01*
X34373397Y-67299194D01*
X34380873Y-67315946D01*
X34526534Y-67665387D01*
X34600164Y-67927014D01*
X34615578Y-68170658D01*
X34595256Y-68399716D01*
X34550278Y-68681288D01*
X34475283Y-68849281D01*
X34325197Y-68968989D01*
X34134454Y-69067231D01*
X33953825Y-69146005D01*
X33767590Y-69200206D01*
X33538139Y-69234102D01*
X33227865Y-69251966D01*
X32799158Y-69258067D01*
X32456088Y-69257811D01*
X31874677Y-69249601D01*
X31440666Y-69227842D01*
X31122267Y-69189603D01*
X30887690Y-69131954D01*
X30820504Y-69107054D01*
X30570213Y-68995330D01*
X30426799Y-68880893D01*
X30351496Y-68708179D01*
X30305535Y-68421623D01*
X30297901Y-68358008D01*
X30283976Y-68171262D01*
X31394208Y-68171262D01*
X31397411Y-68181396D01*
X31509305Y-68196307D01*
X31754220Y-68203746D01*
X32087929Y-68204587D01*
X32466208Y-68199701D01*
X32844831Y-68189964D01*
X33179572Y-68176248D01*
X33426207Y-68159426D01*
X33540510Y-68140371D01*
X33542340Y-68139045D01*
X33521885Y-68047799D01*
X33437090Y-67820667D01*
X33299167Y-67484591D01*
X33119330Y-67066517D01*
X32908791Y-66593389D01*
X32795915Y-66345475D01*
X32668931Y-66060437D01*
X32568515Y-65820420D01*
X32533363Y-65726798D01*
X32473664Y-65604213D01*
X32442669Y-65592169D01*
X32370332Y-65712429D01*
X32254342Y-65955051D01*
X32108677Y-66285413D01*
X31947313Y-66668892D01*
X31784228Y-67070866D01*
X31633398Y-67456713D01*
X31508800Y-67791809D01*
X31424411Y-68041533D01*
X31394208Y-68171262D01*
X30283976Y-68171262D01*
X30283864Y-68169764D01*
X30296556Y-67987396D01*
X30346106Y-67775922D01*
X30442645Y-67500361D01*
X30596302Y-67125730D01*
X30772606Y-66718751D01*
X31057559Y-66073519D01*
X31286369Y-65571784D01*
X31471706Y-65191251D01*
X31626241Y-64909628D01*
X31762643Y-64704618D01*
X31893583Y-64553927D01*
X32031729Y-64435261D01*
X32097100Y-64388115D01*
X32315838Y-64245232D01*
X32472763Y-64158548D01*
X32510114Y-64146535D01*
X32617240Y-64192183D01*
G37*
X32617240Y-64192183D02*
X32815168Y-64307876D01*
X32927321Y-64380002D01*
X33136554Y-64543247D01*
X33285070Y-64737686D01*
X33411377Y-65021526D01*
X33476610Y-65210214D01*
X33599929Y-65549377D01*
X33728920Y-65848803D01*
X33828140Y-66031341D01*
X33966169Y-66277274D01*
X34045326Y-66480104D01*
X34112464Y-66672634D01*
X34230095Y-66966274D01*
X34373397Y-67299194D01*
X34380873Y-67315946D01*
X34526534Y-67665387D01*
X34600164Y-67927014D01*
X34615578Y-68170658D01*
X34595256Y-68399716D01*
X34550278Y-68681288D01*
X34475283Y-68849281D01*
X34325197Y-68968989D01*
X34134454Y-69067231D01*
X33953825Y-69146005D01*
X33767590Y-69200206D01*
X33538139Y-69234102D01*
X33227865Y-69251966D01*
X32799158Y-69258067D01*
X32456088Y-69257811D01*
X31874677Y-69249601D01*
X31440666Y-69227842D01*
X31122267Y-69189603D01*
X30887690Y-69131954D01*
X30820504Y-69107054D01*
X30570213Y-68995330D01*
X30426799Y-68880893D01*
X30351496Y-68708179D01*
X30305535Y-68421623D01*
X30297901Y-68358008D01*
X30283976Y-68171262D01*
X31394208Y-68171262D01*
X31397411Y-68181396D01*
X31509305Y-68196307D01*
X31754220Y-68203746D01*
X32087929Y-68204587D01*
X32466208Y-68199701D01*
X32844831Y-68189964D01*
X33179572Y-68176248D01*
X33426207Y-68159426D01*
X33540510Y-68140371D01*
X33542340Y-68139045D01*
X33521885Y-68047799D01*
X33437090Y-67820667D01*
X33299167Y-67484591D01*
X33119330Y-67066517D01*
X32908791Y-66593389D01*
X32795915Y-66345475D01*
X32668931Y-66060437D01*
X32568515Y-65820420D01*
X32533363Y-65726798D01*
X32473664Y-65604213D01*
X32442669Y-65592169D01*
X32370332Y-65712429D01*
X32254342Y-65955051D01*
X32108677Y-66285413D01*
X31947313Y-66668892D01*
X31784228Y-67070866D01*
X31633398Y-67456713D01*
X31508800Y-67791809D01*
X31424411Y-68041533D01*
X31394208Y-68171262D01*
X30283976Y-68171262D01*
X30283864Y-68169764D01*
X30296556Y-67987396D01*
X30346106Y-67775922D01*
X30442645Y-67500361D01*
X30596302Y-67125730D01*
X30772606Y-66718751D01*
X31057559Y-66073519D01*
X31286369Y-65571784D01*
X31471706Y-65191251D01*
X31626241Y-64909628D01*
X31762643Y-64704618D01*
X31893583Y-64553927D01*
X32031729Y-64435261D01*
X32097100Y-64388115D01*
X32315838Y-64245232D01*
X32472763Y-64158548D01*
X32510114Y-64146535D01*
X32617240Y-64192183D01*
G36*
X135803124Y-55940395D02*
G01*
X136717718Y-56257919D01*
X137496174Y-56613148D01*
X138181631Y-57034706D01*
X138817228Y-57551212D01*
X139446102Y-58191290D01*
X139784281Y-58581871D01*
X140268249Y-59232131D01*
X140644318Y-59912161D01*
X140939341Y-60676536D01*
X141106602Y-61269283D01*
X141218310Y-61739309D01*
X141291958Y-62127641D01*
X141334456Y-62497353D01*
X141352715Y-62911517D01*
X141353643Y-63433209D01*
X141352802Y-63516690D01*
X141313031Y-64469222D01*
X141207922Y-65293492D01*
X141024891Y-66032815D01*
X140751352Y-66730510D01*
X140374720Y-67429891D01*
X140084232Y-67882883D01*
X139420115Y-68725487D01*
X138646613Y-69458784D01*
X137789348Y-70063637D01*
X136873943Y-70520911D01*
X136279868Y-70724336D01*
X135537025Y-70924858D01*
X134916090Y-71068365D01*
X134371031Y-71161227D01*
X133855816Y-71209818D01*
X133324412Y-71220509D01*
X132814532Y-71204010D01*
X132155187Y-71186073D01*
X131653410Y-71207554D01*
X131291189Y-71270532D01*
X131050511Y-71377088D01*
X131004656Y-71413042D01*
X130982801Y-71518267D01*
X130963762Y-71773908D01*
X130948694Y-72150880D01*
X130938754Y-72620103D01*
X130935098Y-73152493D01*
X130935097Y-73161985D01*
X130933285Y-73767808D01*
X130926031Y-74225046D01*
X130910611Y-74564599D01*
X130884300Y-74817368D01*
X130844373Y-75014253D01*
X130788105Y-75186154D01*
X130747963Y-75284136D01*
X130550058Y-75633001D01*
X130276528Y-75881627D01*
X130173271Y-75946266D01*
X130033423Y-76024699D01*
X129900787Y-76082551D01*
X129746319Y-76122878D01*
X129540976Y-76148736D01*
X129255714Y-76163181D01*
X128861492Y-76169270D01*
X128329266Y-76170058D01*
X128051518Y-76169530D01*
X127425493Y-76165962D01*
X126946358Y-76156608D01*
X126581524Y-76138747D01*
X126298403Y-76109659D01*
X126064406Y-76066625D01*
X125846943Y-76006924D01*
X125758368Y-75978130D01*
X125454957Y-75869816D01*
X125270852Y-75768671D01*
X125154260Y-75627575D01*
X125053389Y-75399403D01*
X125017317Y-75303899D01*
X124951073Y-75115068D01*
X124903012Y-74934442D01*
X124870257Y-74729076D01*
X124849932Y-74466024D01*
X124839159Y-74112342D01*
X124835064Y-73635086D01*
X124834629Y-73211553D01*
X124835015Y-73103769D01*
X124836121Y-72829431D01*
X124837893Y-72401486D01*
X124840275Y-71832885D01*
X124841068Y-71644939D01*
X125945487Y-71644939D01*
X125946938Y-72358374D01*
X125950080Y-72956366D01*
X125955085Y-73449593D01*
X125962123Y-73848731D01*
X125971366Y-74164457D01*
X125982986Y-74407448D01*
X125997154Y-74588381D01*
X126014041Y-74717933D01*
X126033819Y-74806781D01*
X126056660Y-74865602D01*
X126082734Y-74905072D01*
X126101349Y-74925260D01*
X126175912Y-74986017D01*
X126277912Y-75030508D01*
X126433983Y-75061226D01*
X126670759Y-75080668D01*
X127014874Y-75091328D01*
X127492960Y-75095701D01*
X127927782Y-75096358D01*
X128511136Y-75095550D01*
X128941220Y-75091180D01*
X129244267Y-75080335D01*
X129446510Y-75060099D01*
X129574183Y-75027556D01*
X129653520Y-74979792D01*
X129710754Y-74913891D01*
X129722835Y-74896882D01*
X129772993Y-74795778D01*
X129810008Y-74639594D01*
X129835676Y-74403479D01*
X129851792Y-74062582D01*
X129860152Y-73592049D01*
X129862553Y-72967031D01*
X129862553Y-72963625D01*
X129866071Y-72259846D01*
X129882140Y-71711731D01*
X129919037Y-71295489D01*
X129985038Y-70987331D01*
X130088417Y-70763466D01*
X130237450Y-70600103D01*
X130440413Y-70473452D01*
X130705582Y-70359724D01*
X130777873Y-70332280D01*
X130997906Y-70255184D01*
X131207587Y-70199063D01*
X131441304Y-70160468D01*
X131733447Y-70135951D01*
X132118402Y-70122063D01*
X132630560Y-70115357D01*
X132959019Y-70113561D01*
X133560598Y-70108826D01*
X134023786Y-70097526D01*
X134389679Y-70075549D01*
X134699375Y-70038783D01*
X134993971Y-69983117D01*
X135314564Y-69904438D01*
X135472094Y-69862112D01*
X135929192Y-69724086D01*
X136393914Y-69561592D01*
X136792014Y-69401383D01*
X136931186Y-69336391D01*
X137681207Y-68870693D01*
X138384894Y-68260527D01*
X139013940Y-67540023D01*
X139540042Y-66743308D01*
X139934893Y-65904513D01*
X140044410Y-65582577D01*
X140110825Y-65294400D01*
X140178490Y-64883675D01*
X140239116Y-64407108D01*
X140281397Y-63961233D01*
X140315736Y-63486503D01*
X140330048Y-63127306D01*
X140319641Y-62825016D01*
X140279819Y-62521005D01*
X140205889Y-62156644D01*
X140100797Y-61705453D01*
X139932498Y-61062446D01*
X139751577Y-60538825D01*
X139529671Y-60077814D01*
X139238416Y-59622636D01*
X138849448Y-59116517D01*
X138742004Y-58985511D01*
X138350480Y-58544353D01*
X137964871Y-58190104D01*
X137531011Y-57880405D01*
X136994733Y-57572895D01*
X136818383Y-57481180D01*
X136516856Y-57329776D01*
X136241410Y-57202394D01*
X135973369Y-57096761D01*
X135694054Y-57010607D01*
X135384785Y-56941660D01*
X135026884Y-56887649D01*
X134601673Y-56846302D01*
X134090472Y-56815349D01*
X133474604Y-56792518D01*
X132735388Y-56775538D01*
X131854147Y-56762138D01*
X130812202Y-56750046D01*
X130804956Y-56749967D01*
X129767177Y-56739826D01*
X128894251Y-56734310D01*
X128171565Y-56734331D01*
X127584505Y-56740797D01*
X127118456Y-56754620D01*
X126758806Y-56776709D01*
X126490940Y-56807974D01*
X126300246Y-56849325D01*
X126172108Y-56901671D01*
X126091914Y-56965923D01*
X126045050Y-57042991D01*
X126043627Y-57046439D01*
X126035058Y-57154872D01*
X126026316Y-57430394D01*
X126017519Y-57860591D01*
X126008789Y-58433047D01*
X126000243Y-59135347D01*
X125992003Y-59955076D01*
X125984187Y-60879817D01*
X125976916Y-61897156D01*
X125970309Y-62994678D01*
X125964486Y-64159967D01*
X125959566Y-65380608D01*
X125957591Y-65972433D01*
X125953160Y-67423235D01*
X125949563Y-68705210D01*
X125946970Y-69829034D01*
X125945555Y-70805385D01*
X125945487Y-71644939D01*
X124841068Y-71644939D01*
X124843213Y-71136577D01*
X124846652Y-70325509D01*
X124850537Y-69412631D01*
X124854813Y-68410893D01*
X124859426Y-67333242D01*
X124864319Y-66192628D01*
X124869439Y-65002000D01*
X124869451Y-64999185D01*
X124904225Y-56921447D01*
X125168118Y-56472983D01*
X125263453Y-56312017D01*
X125354661Y-56175787D01*
X125456755Y-56062213D01*
X125584753Y-55969215D01*
X125753668Y-55894712D01*
X125978516Y-55836626D01*
X126274312Y-55792875D01*
X126656071Y-55761381D01*
X127138810Y-55740062D01*
X127737542Y-55726840D01*
X128467283Y-55719633D01*
X129343048Y-55716362D01*
X130379853Y-55714948D01*
X130642347Y-55714667D01*
X135057123Y-55709786D01*
X135803124Y-55940395D01*
G37*
X135803124Y-55940395D02*
X136717718Y-56257919D01*
X137496174Y-56613148D01*
X138181631Y-57034706D01*
X138817228Y-57551212D01*
X139446102Y-58191290D01*
X139784281Y-58581871D01*
X140268249Y-59232131D01*
X140644318Y-59912161D01*
X140939341Y-60676536D01*
X141106602Y-61269283D01*
X141218310Y-61739309D01*
X141291958Y-62127641D01*
X141334456Y-62497353D01*
X141352715Y-62911517D01*
X141353643Y-63433209D01*
X141352802Y-63516690D01*
X141313031Y-64469222D01*
X141207922Y-65293492D01*
X141024891Y-66032815D01*
X140751352Y-66730510D01*
X140374720Y-67429891D01*
X140084232Y-67882883D01*
X139420115Y-68725487D01*
X138646613Y-69458784D01*
X137789348Y-70063637D01*
X136873943Y-70520911D01*
X136279868Y-70724336D01*
X135537025Y-70924858D01*
X134916090Y-71068365D01*
X134371031Y-71161227D01*
X133855816Y-71209818D01*
X133324412Y-71220509D01*
X132814532Y-71204010D01*
X132155187Y-71186073D01*
X131653410Y-71207554D01*
X131291189Y-71270532D01*
X131050511Y-71377088D01*
X131004656Y-71413042D01*
X130982801Y-71518267D01*
X130963762Y-71773908D01*
X130948694Y-72150880D01*
X130938754Y-72620103D01*
X130935098Y-73152493D01*
X130935097Y-73161985D01*
X130933285Y-73767808D01*
X130926031Y-74225046D01*
X130910611Y-74564599D01*
X130884300Y-74817368D01*
X130844373Y-75014253D01*
X130788105Y-75186154D01*
X130747963Y-75284136D01*
X130550058Y-75633001D01*
X130276528Y-75881627D01*
X130173271Y-75946266D01*
X130033423Y-76024699D01*
X129900787Y-76082551D01*
X129746319Y-76122878D01*
X129540976Y-76148736D01*
X129255714Y-76163181D01*
X128861492Y-76169270D01*
X128329266Y-76170058D01*
X128051518Y-76169530D01*
X127425493Y-76165962D01*
X126946358Y-76156608D01*
X126581524Y-76138747D01*
X126298403Y-76109659D01*
X126064406Y-76066625D01*
X125846943Y-76006924D01*
X125758368Y-75978130D01*
X125454957Y-75869816D01*
X125270852Y-75768671D01*
X125154260Y-75627575D01*
X125053389Y-75399403D01*
X125017317Y-75303899D01*
X124951073Y-75115068D01*
X124903012Y-74934442D01*
X124870257Y-74729076D01*
X124849932Y-74466024D01*
X124839159Y-74112342D01*
X124835064Y-73635086D01*
X124834629Y-73211553D01*
X124835015Y-73103769D01*
X124836121Y-72829431D01*
X124837893Y-72401486D01*
X124840275Y-71832885D01*
X124841068Y-71644939D01*
X125945487Y-71644939D01*
X125946938Y-72358374D01*
X125950080Y-72956366D01*
X125955085Y-73449593D01*
X125962123Y-73848731D01*
X125971366Y-74164457D01*
X125982986Y-74407448D01*
X125997154Y-74588381D01*
X126014041Y-74717933D01*
X126033819Y-74806781D01*
X126056660Y-74865602D01*
X126082734Y-74905072D01*
X126101349Y-74925260D01*
X126175912Y-74986017D01*
X126277912Y-75030508D01*
X126433983Y-75061226D01*
X126670759Y-75080668D01*
X127014874Y-75091328D01*
X127492960Y-75095701D01*
X127927782Y-75096358D01*
X128511136Y-75095550D01*
X128941220Y-75091180D01*
X129244267Y-75080335D01*
X129446510Y-75060099D01*
X129574183Y-75027556D01*
X129653520Y-74979792D01*
X129710754Y-74913891D01*
X129722835Y-74896882D01*
X129772993Y-74795778D01*
X129810008Y-74639594D01*
X129835676Y-74403479D01*
X129851792Y-74062582D01*
X129860152Y-73592049D01*
X129862553Y-72967031D01*
X129862553Y-72963625D01*
X129866071Y-72259846D01*
X129882140Y-71711731D01*
X129919037Y-71295489D01*
X129985038Y-70987331D01*
X130088417Y-70763466D01*
X130237450Y-70600103D01*
X130440413Y-70473452D01*
X130705582Y-70359724D01*
X130777873Y-70332280D01*
X130997906Y-70255184D01*
X131207587Y-70199063D01*
X131441304Y-70160468D01*
X131733447Y-70135951D01*
X132118402Y-70122063D01*
X132630560Y-70115357D01*
X132959019Y-70113561D01*
X133560598Y-70108826D01*
X134023786Y-70097526D01*
X134389679Y-70075549D01*
X134699375Y-70038783D01*
X134993971Y-69983117D01*
X135314564Y-69904438D01*
X135472094Y-69862112D01*
X135929192Y-69724086D01*
X136393914Y-69561592D01*
X136792014Y-69401383D01*
X136931186Y-69336391D01*
X137681207Y-68870693D01*
X138384894Y-68260527D01*
X139013940Y-67540023D01*
X139540042Y-66743308D01*
X139934893Y-65904513D01*
X140044410Y-65582577D01*
X140110825Y-65294400D01*
X140178490Y-64883675D01*
X140239116Y-64407108D01*
X140281397Y-63961233D01*
X140315736Y-63486503D01*
X140330048Y-63127306D01*
X140319641Y-62825016D01*
X140279819Y-62521005D01*
X140205889Y-62156644D01*
X140100797Y-61705453D01*
X139932498Y-61062446D01*
X139751577Y-60538825D01*
X139529671Y-60077814D01*
X139238416Y-59622636D01*
X138849448Y-59116517D01*
X138742004Y-58985511D01*
X138350480Y-58544353D01*
X137964871Y-58190104D01*
X137531011Y-57880405D01*
X136994733Y-57572895D01*
X136818383Y-57481180D01*
X136516856Y-57329776D01*
X136241410Y-57202394D01*
X135973369Y-57096761D01*
X135694054Y-57010607D01*
X135384785Y-56941660D01*
X135026884Y-56887649D01*
X134601673Y-56846302D01*
X134090472Y-56815349D01*
X133474604Y-56792518D01*
X132735388Y-56775538D01*
X131854147Y-56762138D01*
X130812202Y-56750046D01*
X130804956Y-56749967D01*
X129767177Y-56739826D01*
X128894251Y-56734310D01*
X128171565Y-56734331D01*
X127584505Y-56740797D01*
X127118456Y-56754620D01*
X126758806Y-56776709D01*
X126490940Y-56807974D01*
X126300246Y-56849325D01*
X126172108Y-56901671D01*
X126091914Y-56965923D01*
X126045050Y-57042991D01*
X126043627Y-57046439D01*
X126035058Y-57154872D01*
X126026316Y-57430394D01*
X126017519Y-57860591D01*
X126008789Y-58433047D01*
X126000243Y-59135347D01*
X125992003Y-59955076D01*
X125984187Y-60879817D01*
X125976916Y-61897156D01*
X125970309Y-62994678D01*
X125964486Y-64159967D01*
X125959566Y-65380608D01*
X125957591Y-65972433D01*
X125953160Y-67423235D01*
X125949563Y-68705210D01*
X125946970Y-69829034D01*
X125945555Y-70805385D01*
X125945487Y-71644939D01*
X124841068Y-71644939D01*
X124843213Y-71136577D01*
X124846652Y-70325509D01*
X124850537Y-69412631D01*
X124854813Y-68410893D01*
X124859426Y-67333242D01*
X124864319Y-66192628D01*
X124869439Y-65002000D01*
X124869451Y-64999185D01*
X124904225Y-56921447D01*
X125168118Y-56472983D01*
X125263453Y-56312017D01*
X125354661Y-56175787D01*
X125456755Y-56062213D01*
X125584753Y-55969215D01*
X125753668Y-55894712D01*
X125978516Y-55836626D01*
X126274312Y-55792875D01*
X126656071Y-55761381D01*
X127138810Y-55740062D01*
X127737542Y-55726840D01*
X128467283Y-55719633D01*
X129343048Y-55716362D01*
X130379853Y-55714948D01*
X130642347Y-55714667D01*
X135057123Y-55709786D01*
X135803124Y-55940395D01*
G36*
X115587554Y-55629212D02*
G01*
X115815367Y-55651564D01*
X116000090Y-55692080D01*
X116175812Y-55754184D01*
X116376624Y-55841305D01*
X116387615Y-55846236D01*
X116674490Y-55981194D01*
X116852679Y-56101042D01*
X116969124Y-56258694D01*
X117070762Y-56507063D01*
X117131839Y-56685175D01*
X117169880Y-56799780D01*
X117202809Y-56911514D01*
X117231005Y-57033580D01*
X117254848Y-57179181D01*
X117274718Y-57361520D01*
X117290996Y-57593799D01*
X117304062Y-57889222D01*
X117314295Y-58260991D01*
X117322075Y-58722309D01*
X117327784Y-59286380D01*
X117331801Y-59966406D01*
X117334505Y-60775589D01*
X117336277Y-61727133D01*
X117337498Y-62834241D01*
X117338347Y-63858581D01*
X117339814Y-65130876D01*
X117342200Y-66234970D01*
X117345723Y-67182165D01*
X117350602Y-67983763D01*
X117357056Y-68651067D01*
X117365304Y-69195379D01*
X117375564Y-69628002D01*
X117388054Y-69960238D01*
X117402994Y-70203389D01*
X117420603Y-70368759D01*
X117441098Y-70467649D01*
X117464699Y-70511361D01*
X117467104Y-70513050D01*
X117596744Y-70540844D01*
X117877204Y-70568446D01*
X118279797Y-70595009D01*
X118775839Y-70619685D01*
X119336644Y-70641628D01*
X119933527Y-70659989D01*
X120537803Y-70673922D01*
X121120787Y-70682579D01*
X121653793Y-70685112D01*
X122108137Y-70680675D01*
X122455133Y-70668420D01*
X122537336Y-70662827D01*
X122907565Y-70637726D01*
X123154236Y-70640442D01*
X123332281Y-70679732D01*
X123496632Y-70764351D01*
X123599170Y-70832073D01*
X123856457Y-71058023D01*
X124095726Y-71347149D01*
X124155778Y-71440513D01*
X124235836Y-71584469D01*
X124293882Y-71722262D01*
X124333291Y-71884699D01*
X124357438Y-72102592D01*
X124369698Y-72406748D01*
X124373445Y-72827977D01*
X124372055Y-73397088D01*
X124371981Y-73414237D01*
X124368741Y-73985137D01*
X124362117Y-74407273D01*
X124348149Y-74711388D01*
X124322876Y-74928221D01*
X124282339Y-75088515D01*
X124222577Y-75223009D01*
X124139629Y-75362446D01*
X124116233Y-75399428D01*
X123947476Y-75631750D01*
X123761117Y-75788354D01*
X123494541Y-75914098D01*
X123302347Y-75982550D01*
X123176544Y-76023444D01*
X123050771Y-76058005D01*
X122909579Y-76086737D01*
X122737519Y-76110142D01*
X122519140Y-76128725D01*
X122238993Y-76142990D01*
X121881628Y-76153440D01*
X121431595Y-76160578D01*
X120873446Y-76164909D01*
X120191729Y-76166937D01*
X119370996Y-76167164D01*
X118395797Y-76166095D01*
X117706080Y-76165001D01*
X116628538Y-76163068D01*
X115715276Y-76160773D01*
X114951067Y-76157549D01*
X114320686Y-76152828D01*
X113808906Y-76146041D01*
X113400502Y-76136621D01*
X113080247Y-76124000D01*
X112832916Y-76107609D01*
X112643283Y-76086881D01*
X112496121Y-76061247D01*
X112376206Y-76030140D01*
X112268311Y-75992991D01*
X112181281Y-75958886D01*
X111861066Y-75807641D01*
X111649529Y-75634690D01*
X111479140Y-75384080D01*
X111471970Y-75371187D01*
X111256298Y-74981213D01*
X111245143Y-66041083D01*
X111237460Y-59883062D01*
X112305609Y-59883062D01*
X112321452Y-60016328D01*
X112340520Y-60153957D01*
X112354173Y-60432343D01*
X112361267Y-60812788D01*
X112360660Y-61256594D01*
X112359925Y-61319327D01*
X112353384Y-61933363D01*
X112348181Y-62651013D01*
X112344261Y-63455847D01*
X112341570Y-64331432D01*
X112340054Y-65261338D01*
X112339657Y-66229134D01*
X112340327Y-67218389D01*
X112342008Y-68212671D01*
X112344646Y-69195551D01*
X112348186Y-70150596D01*
X112352576Y-71061376D01*
X112357759Y-71911460D01*
X112363682Y-72684417D01*
X112370291Y-73363816D01*
X112377531Y-73933226D01*
X112385348Y-74376216D01*
X112393687Y-74676354D01*
X112402494Y-74817210D01*
X112404587Y-74825361D01*
X112534618Y-74940594D01*
X112661667Y-75007206D01*
X112797012Y-75025797D01*
X113091589Y-75042055D01*
X113525138Y-75055993D01*
X114077400Y-75067624D01*
X114728116Y-75076958D01*
X115457028Y-75084009D01*
X116243877Y-75088790D01*
X117068403Y-75091311D01*
X117910349Y-75091586D01*
X118749454Y-75089626D01*
X119565460Y-75085445D01*
X120338108Y-75079053D01*
X121047140Y-75070465D01*
X121672296Y-75059691D01*
X122193317Y-75046744D01*
X122589945Y-75031637D01*
X122841920Y-75014381D01*
X122921491Y-75000991D01*
X123123683Y-74899237D01*
X123236340Y-74802049D01*
X123269319Y-74657129D01*
X123291178Y-74374519D01*
X123302556Y-73994328D01*
X123304090Y-73556666D01*
X123296420Y-73101644D01*
X123280186Y-72669373D01*
X123256025Y-72299962D01*
X123224577Y-72033522D01*
X123190347Y-71914608D01*
X123143260Y-71872034D01*
X123058151Y-71837400D01*
X122916223Y-71809455D01*
X122698683Y-71786943D01*
X122386734Y-71768611D01*
X121961583Y-71753206D01*
X121404434Y-71739474D01*
X120696491Y-71726161D01*
X120256076Y-71718884D01*
X119466188Y-71705712D01*
X118834150Y-71693175D01*
X118338322Y-71679610D01*
X117957065Y-71663352D01*
X117668737Y-71642736D01*
X117451700Y-71616097D01*
X117284313Y-71581772D01*
X117144935Y-71538095D01*
X117011928Y-71483402D01*
X116974066Y-71466424D01*
X116849429Y-71411108D01*
X116740717Y-71357555D01*
X116646806Y-71293809D01*
X116566573Y-71207910D01*
X116498894Y-71087901D01*
X116442645Y-70921822D01*
X116396703Y-70697716D01*
X116359944Y-70403625D01*
X116331245Y-70027589D01*
X116309482Y-69557652D01*
X116293532Y-68981853D01*
X116282270Y-68288236D01*
X116274574Y-67464842D01*
X116269319Y-66499713D01*
X116265382Y-65380889D01*
X116261640Y-64096414D01*
X116260992Y-63877277D01*
X116255343Y-62422721D01*
X116247610Y-61146606D01*
X116237774Y-60047876D01*
X116225818Y-59125481D01*
X116211723Y-58378365D01*
X116195472Y-57805476D01*
X116177046Y-57405761D01*
X116156427Y-57178165D01*
X116145396Y-57128847D01*
X116012977Y-56915712D01*
X115871336Y-56792275D01*
X115714519Y-56756137D01*
X115411385Y-56726863D01*
X114995062Y-56706573D01*
X114498676Y-56697386D01*
X114383239Y-56697065D01*
X113699461Y-56706025D01*
X113176054Y-56740989D01*
X112794419Y-56814082D01*
X112535959Y-56937430D01*
X112382077Y-57123157D01*
X112314173Y-57383390D01*
X112313652Y-57730253D01*
X112342960Y-58027292D01*
X112379941Y-58569259D01*
X112367685Y-59102056D01*
X112347218Y-59299636D01*
X112313833Y-59621158D01*
X112305609Y-59883062D01*
X111237460Y-59883062D01*
X111233988Y-57100952D01*
X111446117Y-56594078D01*
X111571343Y-56315943D01*
X111692533Y-56142452D01*
X111864131Y-56022750D01*
X112140579Y-55905983D01*
X112211459Y-55879176D01*
X112441662Y-55800147D01*
X112672742Y-55742092D01*
X112940636Y-55700852D01*
X113281282Y-55672268D01*
X113730618Y-55652178D01*
X114304674Y-55636863D01*
X114866297Y-55625288D01*
X115282561Y-55621595D01*
X115587554Y-55629212D01*
G37*
X115587554Y-55629212D02*
X115815367Y-55651564D01*
X116000090Y-55692080D01*
X116175812Y-55754184D01*
X116376624Y-55841305D01*
X116387615Y-55846236D01*
X116674490Y-55981194D01*
X116852679Y-56101042D01*
X116969124Y-56258694D01*
X117070762Y-56507063D01*
X117131839Y-56685175D01*
X117169880Y-56799780D01*
X117202809Y-56911514D01*
X117231005Y-57033580D01*
X117254848Y-57179181D01*
X117274718Y-57361520D01*
X117290996Y-57593799D01*
X117304062Y-57889222D01*
X117314295Y-58260991D01*
X117322075Y-58722309D01*
X117327784Y-59286380D01*
X117331801Y-59966406D01*
X117334505Y-60775589D01*
X117336277Y-61727133D01*
X117337498Y-62834241D01*
X117338347Y-63858581D01*
X117339814Y-65130876D01*
X117342200Y-66234970D01*
X117345723Y-67182165D01*
X117350602Y-67983763D01*
X117357056Y-68651067D01*
X117365304Y-69195379D01*
X117375564Y-69628002D01*
X117388054Y-69960238D01*
X117402994Y-70203389D01*
X117420603Y-70368759D01*
X117441098Y-70467649D01*
X117464699Y-70511361D01*
X117467104Y-70513050D01*
X117596744Y-70540844D01*
X117877204Y-70568446D01*
X118279797Y-70595009D01*
X118775839Y-70619685D01*
X119336644Y-70641628D01*
X119933527Y-70659989D01*
X120537803Y-70673922D01*
X121120787Y-70682579D01*
X121653793Y-70685112D01*
X122108137Y-70680675D01*
X122455133Y-70668420D01*
X122537336Y-70662827D01*
X122907565Y-70637726D01*
X123154236Y-70640442D01*
X123332281Y-70679732D01*
X123496632Y-70764351D01*
X123599170Y-70832073D01*
X123856457Y-71058023D01*
X124095726Y-71347149D01*
X124155778Y-71440513D01*
X124235836Y-71584469D01*
X124293882Y-71722262D01*
X124333291Y-71884699D01*
X124357438Y-72102592D01*
X124369698Y-72406748D01*
X124373445Y-72827977D01*
X124372055Y-73397088D01*
X124371981Y-73414237D01*
X124368741Y-73985137D01*
X124362117Y-74407273D01*
X124348149Y-74711388D01*
X124322876Y-74928221D01*
X124282339Y-75088515D01*
X124222577Y-75223009D01*
X124139629Y-75362446D01*
X124116233Y-75399428D01*
X123947476Y-75631750D01*
X123761117Y-75788354D01*
X123494541Y-75914098D01*
X123302347Y-75982550D01*
X123176544Y-76023444D01*
X123050771Y-76058005D01*
X122909579Y-76086737D01*
X122737519Y-76110142D01*
X122519140Y-76128725D01*
X122238993Y-76142990D01*
X121881628Y-76153440D01*
X121431595Y-76160578D01*
X120873446Y-76164909D01*
X120191729Y-76166937D01*
X119370996Y-76167164D01*
X118395797Y-76166095D01*
X117706080Y-76165001D01*
X116628538Y-76163068D01*
X115715276Y-76160773D01*
X114951067Y-76157549D01*
X114320686Y-76152828D01*
X113808906Y-76146041D01*
X113400502Y-76136621D01*
X113080247Y-76124000D01*
X112832916Y-76107609D01*
X112643283Y-76086881D01*
X112496121Y-76061247D01*
X112376206Y-76030140D01*
X112268311Y-75992991D01*
X112181281Y-75958886D01*
X111861066Y-75807641D01*
X111649529Y-75634690D01*
X111479140Y-75384080D01*
X111471970Y-75371187D01*
X111256298Y-74981213D01*
X111245143Y-66041083D01*
X111237460Y-59883062D01*
X112305609Y-59883062D01*
X112321452Y-60016328D01*
X112340520Y-60153957D01*
X112354173Y-60432343D01*
X112361267Y-60812788D01*
X112360660Y-61256594D01*
X112359925Y-61319327D01*
X112353384Y-61933363D01*
X112348181Y-62651013D01*
X112344261Y-63455847D01*
X112341570Y-64331432D01*
X112340054Y-65261338D01*
X112339657Y-66229134D01*
X112340327Y-67218389D01*
X112342008Y-68212671D01*
X112344646Y-69195551D01*
X112348186Y-70150596D01*
X112352576Y-71061376D01*
X112357759Y-71911460D01*
X112363682Y-72684417D01*
X112370291Y-73363816D01*
X112377531Y-73933226D01*
X112385348Y-74376216D01*
X112393687Y-74676354D01*
X112402494Y-74817210D01*
X112404587Y-74825361D01*
X112534618Y-74940594D01*
X112661667Y-75007206D01*
X112797012Y-75025797D01*
X113091589Y-75042055D01*
X113525138Y-75055993D01*
X114077400Y-75067624D01*
X114728116Y-75076958D01*
X115457028Y-75084009D01*
X116243877Y-75088790D01*
X117068403Y-75091311D01*
X117910349Y-75091586D01*
X118749454Y-75089626D01*
X119565460Y-75085445D01*
X120338108Y-75079053D01*
X121047140Y-75070465D01*
X121672296Y-75059691D01*
X122193317Y-75046744D01*
X122589945Y-75031637D01*
X122841920Y-75014381D01*
X122921491Y-75000991D01*
X123123683Y-74899237D01*
X123236340Y-74802049D01*
X123269319Y-74657129D01*
X123291178Y-74374519D01*
X123302556Y-73994328D01*
X123304090Y-73556666D01*
X123296420Y-73101644D01*
X123280186Y-72669373D01*
X123256025Y-72299962D01*
X123224577Y-72033522D01*
X123190347Y-71914608D01*
X123143260Y-71872034D01*
X123058151Y-71837400D01*
X122916223Y-71809455D01*
X122698683Y-71786943D01*
X122386734Y-71768611D01*
X121961583Y-71753206D01*
X121404434Y-71739474D01*
X120696491Y-71726161D01*
X120256076Y-71718884D01*
X119466188Y-71705712D01*
X118834150Y-71693175D01*
X118338322Y-71679610D01*
X117957065Y-71663352D01*
X117668737Y-71642736D01*
X117451700Y-71616097D01*
X117284313Y-71581772D01*
X117144935Y-71538095D01*
X117011928Y-71483402D01*
X116974066Y-71466424D01*
X116849429Y-71411108D01*
X116740717Y-71357555D01*
X116646806Y-71293809D01*
X116566573Y-71207910D01*
X116498894Y-71087901D01*
X116442645Y-70921822D01*
X116396703Y-70697716D01*
X116359944Y-70403625D01*
X116331245Y-70027589D01*
X116309482Y-69557652D01*
X116293532Y-68981853D01*
X116282270Y-68288236D01*
X116274574Y-67464842D01*
X116269319Y-66499713D01*
X116265382Y-65380889D01*
X116261640Y-64096414D01*
X116260992Y-63877277D01*
X116255343Y-62422721D01*
X116247610Y-61146606D01*
X116237774Y-60047876D01*
X116225818Y-59125481D01*
X116211723Y-58378365D01*
X116195472Y-57805476D01*
X116177046Y-57405761D01*
X116156427Y-57178165D01*
X116145396Y-57128847D01*
X116012977Y-56915712D01*
X115871336Y-56792275D01*
X115714519Y-56756137D01*
X115411385Y-56726863D01*
X114995062Y-56706573D01*
X114498676Y-56697386D01*
X114383239Y-56697065D01*
X113699461Y-56706025D01*
X113176054Y-56740989D01*
X112794419Y-56814082D01*
X112535959Y-56937430D01*
X112382077Y-57123157D01*
X112314173Y-57383390D01*
X112313652Y-57730253D01*
X112342960Y-58027292D01*
X112379941Y-58569259D01*
X112367685Y-59102056D01*
X112347218Y-59299636D01*
X112313833Y-59621158D01*
X112305609Y-59883062D01*
X111237460Y-59883062D01*
X111233988Y-57100952D01*
X111446117Y-56594078D01*
X111571343Y-56315943D01*
X111692533Y-56142452D01*
X111864131Y-56022750D01*
X112140579Y-55905983D01*
X112211459Y-55879176D01*
X112441662Y-55800147D01*
X112672742Y-55742092D01*
X112940636Y-55700852D01*
X113281282Y-55672268D01*
X113730618Y-55652178D01*
X114304674Y-55636863D01*
X114866297Y-55625288D01*
X115282561Y-55621595D01*
X115587554Y-55629212D01*
G36*
X60689404Y-55717885D02*
G01*
X61569009Y-55721782D01*
X62458313Y-55726976D01*
X63466175Y-55733425D01*
X64311390Y-55739655D01*
X65010813Y-55746459D01*
X65581297Y-55754628D01*
X66039698Y-55764954D01*
X66402871Y-55778231D01*
X66687671Y-55795250D01*
X66910952Y-55816804D01*
X67089569Y-55843684D01*
X67240377Y-55876684D01*
X67380231Y-55916594D01*
X67525986Y-55964208D01*
X67529337Y-55965332D01*
X68059888Y-56149689D01*
X68477526Y-56314824D01*
X68842317Y-56489475D01*
X69214327Y-56702381D01*
X69650369Y-56980151D01*
X70256143Y-57441348D01*
X70869210Y-58022631D01*
X71442592Y-58672982D01*
X71929315Y-59341383D01*
X72128130Y-59671140D01*
X72447575Y-60385943D01*
X72693187Y-61225695D01*
X72860223Y-62149670D01*
X72943943Y-63117142D01*
X72939607Y-64087384D01*
X72842472Y-65019671D01*
X72786414Y-65325878D01*
X72653776Y-65901489D01*
X72503749Y-66381408D01*
X72311001Y-66824357D01*
X72050198Y-67289055D01*
X71718875Y-67800368D01*
X71001461Y-68725857D01*
X70204057Y-69491496D01*
X69323665Y-70099587D01*
X68357286Y-70552436D01*
X67965488Y-70684721D01*
X67198664Y-70906129D01*
X66548482Y-71063150D01*
X65966914Y-71162852D01*
X65405930Y-71212305D01*
X64817502Y-71218577D01*
X64432871Y-71204633D01*
X63723446Y-71187430D01*
X63184469Y-71214964D01*
X62812434Y-71287675D01*
X62603837Y-71406004D01*
X62579848Y-71437686D01*
X62559098Y-71557019D01*
X62540453Y-71825580D01*
X62525123Y-72213093D01*
X62514313Y-72689283D01*
X62509291Y-73206977D01*
X62500694Y-73935966D01*
X62476399Y-74509324D01*
X62429687Y-74950703D01*
X62353842Y-75283752D01*
X62242147Y-75532121D01*
X62087884Y-75719461D01*
X61884337Y-75869423D01*
X61728872Y-75954795D01*
X61569506Y-76031438D01*
X61418153Y-76087510D01*
X61244357Y-76126025D01*
X61017660Y-76149994D01*
X60707605Y-76162430D01*
X60283737Y-76166347D01*
X59715597Y-76164755D01*
X59611650Y-76164203D01*
X59060659Y-76157765D01*
X58555245Y-76145464D01*
X58129353Y-76128626D01*
X57816928Y-76108576D01*
X57656546Y-76087863D01*
X57226555Y-75958823D01*
X56935598Y-75807682D01*
X56743370Y-75604625D01*
X56609568Y-75319835D01*
X56606509Y-75311083D01*
X56579208Y-75234315D01*
X56554903Y-75163256D01*
X56533453Y-75087611D01*
X56514717Y-74997088D01*
X56498556Y-74881395D01*
X56484828Y-74730237D01*
X56473392Y-74533322D01*
X56464108Y-74280356D01*
X56456836Y-73961047D01*
X56451434Y-73565102D01*
X56447762Y-73082227D01*
X56445679Y-72502129D01*
X56445045Y-71814516D01*
X56445719Y-71009094D01*
X56447560Y-70075569D01*
X56450428Y-69003650D01*
X56454182Y-67783043D01*
X56458681Y-66403454D01*
X56463752Y-64864556D01*
X56480793Y-59660259D01*
X57470248Y-59660259D01*
X57480759Y-59754671D01*
X57486808Y-59852077D01*
X57492531Y-60114837D01*
X57497849Y-60528801D01*
X57502685Y-61079818D01*
X57506963Y-61753738D01*
X57510604Y-62536411D01*
X57513533Y-63413685D01*
X57515671Y-64371411D01*
X57516941Y-65395437D01*
X57517270Y-66446064D01*
X57516912Y-67878151D01*
X57516460Y-69141335D01*
X57516229Y-70246215D01*
X57516536Y-71203392D01*
X57517696Y-72023467D01*
X57520025Y-72717040D01*
X57523837Y-73294713D01*
X57529449Y-73767086D01*
X57537176Y-74144760D01*
X57547334Y-74438335D01*
X57560239Y-74658412D01*
X57576205Y-74815592D01*
X57595548Y-74920476D01*
X57618585Y-74983663D01*
X57645630Y-75015756D01*
X57676999Y-75027354D01*
X57713008Y-75029058D01*
X57753972Y-75031469D01*
X57772954Y-75035302D01*
X57908792Y-75048758D01*
X58192376Y-75061480D01*
X58591947Y-75072569D01*
X59075745Y-75081125D01*
X59561721Y-75085947D01*
X60140721Y-75088897D01*
X60566495Y-75087394D01*
X60865317Y-75078590D01*
X61063460Y-75059637D01*
X61187194Y-75027689D01*
X61262795Y-74979898D01*
X61316534Y-74913417D01*
X61329064Y-74894415D01*
X61377771Y-74781231D01*
X61413674Y-74596952D01*
X61438441Y-74317888D01*
X61453742Y-73920346D01*
X61461247Y-73380638D01*
X61462679Y-72998245D01*
X61467095Y-72280603D01*
X61483372Y-71719483D01*
X61519170Y-71291950D01*
X61582150Y-70975068D01*
X61679969Y-70745905D01*
X61820289Y-70581523D01*
X62010769Y-70458990D01*
X62259067Y-70355370D01*
X62356889Y-70320764D01*
X62609029Y-70239686D01*
X62842050Y-70184296D01*
X63097010Y-70150807D01*
X63414964Y-70135434D01*
X63836969Y-70134391D01*
X64298242Y-70141746D01*
X64981149Y-70146044D01*
X65551271Y-70123274D01*
X66068776Y-70065055D01*
X66593835Y-69963004D01*
X67186617Y-69808739D01*
X67635723Y-69676805D01*
X68543325Y-69309873D01*
X69374640Y-68781306D01*
X70126916Y-68093219D01*
X70797400Y-67247731D01*
X70800617Y-67243001D01*
X71092801Y-66802282D01*
X71301746Y-66450852D01*
X71452421Y-66134780D01*
X71569795Y-65800129D01*
X71678835Y-65392966D01*
X71702752Y-65294284D01*
X71830237Y-64538697D01*
X71878073Y-63709017D01*
X71850558Y-62849272D01*
X71751991Y-62003489D01*
X71586671Y-61215692D01*
X71358895Y-60529910D01*
X71206115Y-60207674D01*
X70914993Y-59748145D01*
X70505119Y-59212139D01*
X70001054Y-58631272D01*
X69880067Y-58500717D01*
X69343389Y-58035172D01*
X68650079Y-57609250D01*
X67820745Y-57234144D01*
X67080574Y-56980383D01*
X66921778Y-56935323D01*
X66759803Y-56897700D01*
X66576675Y-56866629D01*
X66354420Y-56841225D01*
X66075063Y-56820604D01*
X65720630Y-56803880D01*
X65273147Y-56790169D01*
X64714639Y-56778586D01*
X64027131Y-56768246D01*
X63192650Y-56758265D01*
X62397012Y-56749840D01*
X61360813Y-56740244D01*
X60489481Y-56735107D01*
X59768415Y-56735310D01*
X59183012Y-56741732D01*
X58718670Y-56755252D01*
X58360787Y-56776749D01*
X58094762Y-56807105D01*
X57905991Y-56847198D01*
X57779873Y-56897908D01*
X57701805Y-56960114D01*
X57657186Y-57034697D01*
X57656906Y-57035391D01*
X57629528Y-57175867D01*
X57598201Y-57448752D01*
X57565478Y-57814646D01*
X57533911Y-58234150D01*
X57506052Y-58667863D01*
X57484454Y-59076385D01*
X57471668Y-59420317D01*
X57470248Y-59660259D01*
X56480793Y-59660259D01*
X56489762Y-56921447D01*
X56729861Y-56466490D01*
X56881225Y-56204520D01*
X57028878Y-56045604D01*
X57236358Y-55938849D01*
X57492759Y-55855412D01*
X57626145Y-55819674D01*
X57776531Y-55790044D01*
X57960395Y-55766097D01*
X58194215Y-55747407D01*
X58494470Y-55733547D01*
X58877638Y-55724091D01*
X59360197Y-55718613D01*
X59958627Y-55716686D01*
X60689404Y-55717885D01*
G37*
X60689404Y-55717885D02*
X61569009Y-55721782D01*
X62458313Y-55726976D01*
X63466175Y-55733425D01*
X64311390Y-55739655D01*
X65010813Y-55746459D01*
X65581297Y-55754628D01*
X66039698Y-55764954D01*
X66402871Y-55778231D01*
X66687671Y-55795250D01*
X66910952Y-55816804D01*
X67089569Y-55843684D01*
X67240377Y-55876684D01*
X67380231Y-55916594D01*
X67525986Y-55964208D01*
X67529337Y-55965332D01*
X68059888Y-56149689D01*
X68477526Y-56314824D01*
X68842317Y-56489475D01*
X69214327Y-56702381D01*
X69650369Y-56980151D01*
X70256143Y-57441348D01*
X70869210Y-58022631D01*
X71442592Y-58672982D01*
X71929315Y-59341383D01*
X72128130Y-59671140D01*
X72447575Y-60385943D01*
X72693187Y-61225695D01*
X72860223Y-62149670D01*
X72943943Y-63117142D01*
X72939607Y-64087384D01*
X72842472Y-65019671D01*
X72786414Y-65325878D01*
X72653776Y-65901489D01*
X72503749Y-66381408D01*
X72311001Y-66824357D01*
X72050198Y-67289055D01*
X71718875Y-67800368D01*
X71001461Y-68725857D01*
X70204057Y-69491496D01*
X69323665Y-70099587D01*
X68357286Y-70552436D01*
X67965488Y-70684721D01*
X67198664Y-70906129D01*
X66548482Y-71063150D01*
X65966914Y-71162852D01*
X65405930Y-71212305D01*
X64817502Y-71218577D01*
X64432871Y-71204633D01*
X63723446Y-71187430D01*
X63184469Y-71214964D01*
X62812434Y-71287675D01*
X62603837Y-71406004D01*
X62579848Y-71437686D01*
X62559098Y-71557019D01*
X62540453Y-71825580D01*
X62525123Y-72213093D01*
X62514313Y-72689283D01*
X62509291Y-73206977D01*
X62500694Y-73935966D01*
X62476399Y-74509324D01*
X62429687Y-74950703D01*
X62353842Y-75283752D01*
X62242147Y-75532121D01*
X62087884Y-75719461D01*
X61884337Y-75869423D01*
X61728872Y-75954795D01*
X61569506Y-76031438D01*
X61418153Y-76087510D01*
X61244357Y-76126025D01*
X61017660Y-76149994D01*
X60707605Y-76162430D01*
X60283737Y-76166347D01*
X59715597Y-76164755D01*
X59611650Y-76164203D01*
X59060659Y-76157765D01*
X58555245Y-76145464D01*
X58129353Y-76128626D01*
X57816928Y-76108576D01*
X57656546Y-76087863D01*
X57226555Y-75958823D01*
X56935598Y-75807682D01*
X56743370Y-75604625D01*
X56609568Y-75319835D01*
X56606509Y-75311083D01*
X56579208Y-75234315D01*
X56554903Y-75163256D01*
X56533453Y-75087611D01*
X56514717Y-74997088D01*
X56498556Y-74881395D01*
X56484828Y-74730237D01*
X56473392Y-74533322D01*
X56464108Y-74280356D01*
X56456836Y-73961047D01*
X56451434Y-73565102D01*
X56447762Y-73082227D01*
X56445679Y-72502129D01*
X56445045Y-71814516D01*
X56445719Y-71009094D01*
X56447560Y-70075569D01*
X56450428Y-69003650D01*
X56454182Y-67783043D01*
X56458681Y-66403454D01*
X56463752Y-64864556D01*
X56480793Y-59660259D01*
X57470248Y-59660259D01*
X57480759Y-59754671D01*
X57486808Y-59852077D01*
X57492531Y-60114837D01*
X57497849Y-60528801D01*
X57502685Y-61079818D01*
X57506963Y-61753738D01*
X57510604Y-62536411D01*
X57513533Y-63413685D01*
X57515671Y-64371411D01*
X57516941Y-65395437D01*
X57517270Y-66446064D01*
X57516912Y-67878151D01*
X57516460Y-69141335D01*
X57516229Y-70246215D01*
X57516536Y-71203392D01*
X57517696Y-72023467D01*
X57520025Y-72717040D01*
X57523837Y-73294713D01*
X57529449Y-73767086D01*
X57537176Y-74144760D01*
X57547334Y-74438335D01*
X57560239Y-74658412D01*
X57576205Y-74815592D01*
X57595548Y-74920476D01*
X57618585Y-74983663D01*
X57645630Y-75015756D01*
X57676999Y-75027354D01*
X57713008Y-75029058D01*
X57753972Y-75031469D01*
X57772954Y-75035302D01*
X57908792Y-75048758D01*
X58192376Y-75061480D01*
X58591947Y-75072569D01*
X59075745Y-75081125D01*
X59561721Y-75085947D01*
X60140721Y-75088897D01*
X60566495Y-75087394D01*
X60865317Y-75078590D01*
X61063460Y-75059637D01*
X61187194Y-75027689D01*
X61262795Y-74979898D01*
X61316534Y-74913417D01*
X61329064Y-74894415D01*
X61377771Y-74781231D01*
X61413674Y-74596952D01*
X61438441Y-74317888D01*
X61453742Y-73920346D01*
X61461247Y-73380638D01*
X61462679Y-72998245D01*
X61467095Y-72280603D01*
X61483372Y-71719483D01*
X61519170Y-71291950D01*
X61582150Y-70975068D01*
X61679969Y-70745905D01*
X61820289Y-70581523D01*
X62010769Y-70458990D01*
X62259067Y-70355370D01*
X62356889Y-70320764D01*
X62609029Y-70239686D01*
X62842050Y-70184296D01*
X63097010Y-70150807D01*
X63414964Y-70135434D01*
X63836969Y-70134391D01*
X64298242Y-70141746D01*
X64981149Y-70146044D01*
X65551271Y-70123274D01*
X66068776Y-70065055D01*
X66593835Y-69963004D01*
X67186617Y-69808739D01*
X67635723Y-69676805D01*
X68543325Y-69309873D01*
X69374640Y-68781306D01*
X70126916Y-68093219D01*
X70797400Y-67247731D01*
X70800617Y-67243001D01*
X71092801Y-66802282D01*
X71301746Y-66450852D01*
X71452421Y-66134780D01*
X71569795Y-65800129D01*
X71678835Y-65392966D01*
X71702752Y-65294284D01*
X71830237Y-64538697D01*
X71878073Y-63709017D01*
X71850558Y-62849272D01*
X71751991Y-62003489D01*
X71586671Y-61215692D01*
X71358895Y-60529910D01*
X71206115Y-60207674D01*
X70914993Y-59748145D01*
X70505119Y-59212139D01*
X70001054Y-58631272D01*
X69880067Y-58500717D01*
X69343389Y-58035172D01*
X68650079Y-57609250D01*
X67820745Y-57234144D01*
X67080574Y-56980383D01*
X66921778Y-56935323D01*
X66759803Y-56897700D01*
X66576675Y-56866629D01*
X66354420Y-56841225D01*
X66075063Y-56820604D01*
X65720630Y-56803880D01*
X65273147Y-56790169D01*
X64714639Y-56778586D01*
X64027131Y-56768246D01*
X63192650Y-56758265D01*
X62397012Y-56749840D01*
X61360813Y-56740244D01*
X60489481Y-56735107D01*
X59768415Y-56735310D01*
X59183012Y-56741732D01*
X58718670Y-56755252D01*
X58360787Y-56776749D01*
X58094762Y-56807105D01*
X57905991Y-56847198D01*
X57779873Y-56897908D01*
X57701805Y-56960114D01*
X57657186Y-57034697D01*
X57656906Y-57035391D01*
X57629528Y-57175867D01*
X57598201Y-57448752D01*
X57565478Y-57814646D01*
X57533911Y-58234150D01*
X57506052Y-58667863D01*
X57484454Y-59076385D01*
X57471668Y-59420317D01*
X57470248Y-59660259D01*
X56480793Y-59660259D01*
X56489762Y-56921447D01*
X56729861Y-56466490D01*
X56881225Y-56204520D01*
X57028878Y-56045604D01*
X57236358Y-55938849D01*
X57492759Y-55855412D01*
X57626145Y-55819674D01*
X57776531Y-55790044D01*
X57960395Y-55766097D01*
X58194215Y-55747407D01*
X58494470Y-55733547D01*
X58877638Y-55724091D01*
X59360197Y-55718613D01*
X59958627Y-55716686D01*
X60689404Y-55717885D01*
G36*
X47963260Y-55859576D02*
G01*
X48257437Y-56009297D01*
X48439073Y-56143728D01*
X48559909Y-56319931D01*
X48671682Y-56594968D01*
X48698966Y-56670960D01*
X48746108Y-56808881D01*
X48785173Y-56945867D01*
X48816998Y-57099750D01*
X48842425Y-57288361D01*
X48862292Y-57529531D01*
X48877439Y-57841091D01*
X48888705Y-58240873D01*
X48896929Y-58746709D01*
X48902952Y-59376428D01*
X48907613Y-60147864D01*
X48911750Y-61078847D01*
X48912248Y-61201352D01*
X48915710Y-62113598D01*
X48918806Y-63040855D01*
X48921463Y-63952425D01*
X48923608Y-64817612D01*
X48925167Y-65605718D01*
X48926065Y-66286047D01*
X48926230Y-66827901D01*
X48926108Y-66973743D01*
X48926721Y-67905532D01*
X48931437Y-68671381D01*
X48940766Y-69284824D01*
X48955217Y-69759391D01*
X48975300Y-70108613D01*
X49001526Y-70346021D01*
X49034405Y-70485147D01*
X49060142Y-70529848D01*
X49179066Y-70559050D01*
X49469471Y-70585405D01*
X49923351Y-70608579D01*
X50532702Y-70628239D01*
X51289515Y-70644049D01*
X52040022Y-70654182D01*
X52892395Y-70663938D01*
X53584690Y-70675771D01*
X54136324Y-70693729D01*
X54566713Y-70721859D01*
X54895274Y-70764208D01*
X55141423Y-70824822D01*
X55324577Y-70907749D01*
X55464152Y-71017035D01*
X55579566Y-71156728D01*
X55690234Y-71330874D01*
X55746703Y-71426749D01*
X55828783Y-71572482D01*
X55888289Y-71707758D01*
X55928434Y-71863124D01*
X55952428Y-72069133D01*
X55963485Y-72356332D01*
X55964815Y-72755274D01*
X55959631Y-73296506D01*
X55957955Y-73436064D01*
X55949913Y-74014018D01*
X55939330Y-74442666D01*
X55922418Y-74752201D01*
X55895389Y-74972817D01*
X55854453Y-75134707D01*
X55795823Y-75268067D01*
X55715709Y-75403089D01*
X55710021Y-75412084D01*
X55545223Y-75631224D01*
X55346395Y-75786898D01*
X55053755Y-75921022D01*
X54908686Y-75973947D01*
X54782969Y-76017042D01*
X54660890Y-76053473D01*
X54527000Y-76083772D01*
X54365852Y-76108471D01*
X54162000Y-76128102D01*
X53899996Y-76143198D01*
X53564393Y-76154291D01*
X53139744Y-76161913D01*
X52610603Y-76166597D01*
X51961521Y-76168874D01*
X51177053Y-76169278D01*
X50241750Y-76168339D01*
X49309550Y-76166872D01*
X48231547Y-76164909D01*
X47317751Y-76162515D01*
X46552861Y-76159139D01*
X45921580Y-76154225D01*
X45408608Y-76147223D01*
X44998645Y-76137579D01*
X44676393Y-76124739D01*
X44426553Y-76108151D01*
X44233825Y-76087263D01*
X44082910Y-76061520D01*
X43958510Y-76030370D01*
X43845325Y-75993261D01*
X43773450Y-75966783D01*
X43472872Y-75839936D01*
X43284552Y-75707448D01*
X43147653Y-75516132D01*
X43061977Y-75344771D01*
X42860455Y-74914513D01*
X42840815Y-68108548D01*
X43932060Y-68108548D01*
X43932293Y-69160113D01*
X43933070Y-70167449D01*
X43934406Y-71115640D01*
X43936315Y-71989770D01*
X43938812Y-72774924D01*
X43941912Y-73456186D01*
X43945630Y-74018640D01*
X43949980Y-74447371D01*
X43954976Y-74727464D01*
X43960300Y-74842059D01*
X43989521Y-74892914D01*
X44069255Y-74936326D01*
X44212233Y-74972883D01*
X44431189Y-75003171D01*
X44738854Y-75027779D01*
X45147958Y-75047294D01*
X45671236Y-75062303D01*
X46321418Y-75073393D01*
X47111236Y-75081152D01*
X48053422Y-75086168D01*
X49160708Y-75089027D01*
X49318594Y-75089273D01*
X50514377Y-75089583D01*
X51538035Y-75086676D01*
X52396924Y-75080413D01*
X53098398Y-75070658D01*
X53649812Y-75057275D01*
X54058520Y-75040127D01*
X54331879Y-75019076D01*
X54477241Y-74993986D01*
X54479372Y-74993281D01*
X54691564Y-74916627D01*
X54815754Y-74862477D01*
X54822861Y-74857649D01*
X54837262Y-74761361D01*
X54851785Y-74517114D01*
X54865147Y-74156446D01*
X54876064Y-73710898D01*
X54880591Y-73438978D01*
X54883024Y-72815565D01*
X54870078Y-72360214D01*
X54841132Y-72062089D01*
X54795565Y-71910357D01*
X54792756Y-71906305D01*
X54744900Y-71864728D01*
X54655945Y-71830906D01*
X54507225Y-71803642D01*
X54280073Y-71781741D01*
X53955823Y-71764007D01*
X53515808Y-71749243D01*
X52941362Y-71736255D01*
X52213818Y-71723845D01*
X51862941Y-71718588D01*
X51067745Y-71706262D01*
X50430300Y-71693975D01*
X49928860Y-71680204D01*
X49541676Y-71663428D01*
X49247003Y-71642128D01*
X49023093Y-71614782D01*
X48848199Y-71579869D01*
X48700574Y-71535868D01*
X48576778Y-71488758D01*
X48449247Y-71437342D01*
X48337969Y-71385908D01*
X48241802Y-71322559D01*
X48159608Y-71235397D01*
X48090245Y-71112524D01*
X48032573Y-70942044D01*
X47985453Y-70712058D01*
X47947744Y-70410670D01*
X47918305Y-70025981D01*
X47895998Y-69546094D01*
X47879681Y-68959112D01*
X47868214Y-68253138D01*
X47860457Y-67416273D01*
X47855270Y-66436620D01*
X47851513Y-65302282D01*
X47848046Y-64001362D01*
X47847724Y-63881383D01*
X47842556Y-62443596D01*
X47835254Y-61183247D01*
X47825782Y-60098279D01*
X47814107Y-59186636D01*
X47800192Y-58446262D01*
X47784002Y-57875102D01*
X47765501Y-57471099D01*
X47744656Y-57232197D01*
X47732601Y-57171683D01*
X47619072Y-56942698D01*
X47476966Y-56791066D01*
X47468333Y-56786129D01*
X47302786Y-56747604D01*
X46998224Y-56720363D01*
X46594770Y-56704175D01*
X46132545Y-56698814D01*
X45651672Y-56704050D01*
X45192270Y-56719656D01*
X44794463Y-56745402D01*
X44498372Y-56781062D01*
X44397402Y-56803602D01*
X44124164Y-56928985D01*
X43979704Y-57089870D01*
X43977731Y-57095298D01*
X43971884Y-57199934D01*
X43966376Y-57469159D01*
X43961222Y-57888059D01*
X43956436Y-58441716D01*
X43952033Y-59115216D01*
X43948028Y-59893642D01*
X43944435Y-60762080D01*
X43941269Y-61705614D01*
X43938545Y-62709327D01*
X43936277Y-63758305D01*
X43934480Y-64837632D01*
X43933168Y-65932392D01*
X43932356Y-67027669D01*
X43932060Y-68108548D01*
X42840815Y-68108548D01*
X42835140Y-66142362D01*
X42831375Y-64901330D01*
X42827405Y-63710306D01*
X42823289Y-62581657D01*
X42819091Y-61527751D01*
X42814870Y-60560958D01*
X42810688Y-59693646D01*
X42806606Y-58938183D01*
X42802685Y-58306939D01*
X42798987Y-57812281D01*
X42795572Y-57466578D01*
X42792501Y-57282199D01*
X42791195Y-57254789D01*
X42818144Y-57118572D01*
X42906859Y-56877180D01*
X43024816Y-56611598D01*
X43178375Y-56314353D01*
X43322118Y-56128614D01*
X43513112Y-55999304D01*
X43780234Y-55882588D01*
X43990404Y-55806738D01*
X44208855Y-55750456D01*
X44469785Y-55709761D01*
X44807392Y-55680675D01*
X45255875Y-55659220D01*
X45849430Y-55641416D01*
X45854072Y-55641297D01*
X47424744Y-55601246D01*
X47963260Y-55859576D01*
G37*
X47963260Y-55859576D02*
X48257437Y-56009297D01*
X48439073Y-56143728D01*
X48559909Y-56319931D01*
X48671682Y-56594968D01*
X48698966Y-56670960D01*
X48746108Y-56808881D01*
X48785173Y-56945867D01*
X48816998Y-57099750D01*
X48842425Y-57288361D01*
X48862292Y-57529531D01*
X48877439Y-57841091D01*
X48888705Y-58240873D01*
X48896929Y-58746709D01*
X48902952Y-59376428D01*
X48907613Y-60147864D01*
X48911750Y-61078847D01*
X48912248Y-61201352D01*
X48915710Y-62113598D01*
X48918806Y-63040855D01*
X48921463Y-63952425D01*
X48923608Y-64817612D01*
X48925167Y-65605718D01*
X48926065Y-66286047D01*
X48926230Y-66827901D01*
X48926108Y-66973743D01*
X48926721Y-67905532D01*
X48931437Y-68671381D01*
X48940766Y-69284824D01*
X48955217Y-69759391D01*
X48975300Y-70108613D01*
X49001526Y-70346021D01*
X49034405Y-70485147D01*
X49060142Y-70529848D01*
X49179066Y-70559050D01*
X49469471Y-70585405D01*
X49923351Y-70608579D01*
X50532702Y-70628239D01*
X51289515Y-70644049D01*
X52040022Y-70654182D01*
X52892395Y-70663938D01*
X53584690Y-70675771D01*
X54136324Y-70693729D01*
X54566713Y-70721859D01*
X54895274Y-70764208D01*
X55141423Y-70824822D01*
X55324577Y-70907749D01*
X55464152Y-71017035D01*
X55579566Y-71156728D01*
X55690234Y-71330874D01*
X55746703Y-71426749D01*
X55828783Y-71572482D01*
X55888289Y-71707758D01*
X55928434Y-71863124D01*
X55952428Y-72069133D01*
X55963485Y-72356332D01*
X55964815Y-72755274D01*
X55959631Y-73296506D01*
X55957955Y-73436064D01*
X55949913Y-74014018D01*
X55939330Y-74442666D01*
X55922418Y-74752201D01*
X55895389Y-74972817D01*
X55854453Y-75134707D01*
X55795823Y-75268067D01*
X55715709Y-75403089D01*
X55710021Y-75412084D01*
X55545223Y-75631224D01*
X55346395Y-75786898D01*
X55053755Y-75921022D01*
X54908686Y-75973947D01*
X54782969Y-76017042D01*
X54660890Y-76053473D01*
X54527000Y-76083772D01*
X54365852Y-76108471D01*
X54162000Y-76128102D01*
X53899996Y-76143198D01*
X53564393Y-76154291D01*
X53139744Y-76161913D01*
X52610603Y-76166597D01*
X51961521Y-76168874D01*
X51177053Y-76169278D01*
X50241750Y-76168339D01*
X49309550Y-76166872D01*
X48231547Y-76164909D01*
X47317751Y-76162515D01*
X46552861Y-76159139D01*
X45921580Y-76154225D01*
X45408608Y-76147223D01*
X44998645Y-76137579D01*
X44676393Y-76124739D01*
X44426553Y-76108151D01*
X44233825Y-76087263D01*
X44082910Y-76061520D01*
X43958510Y-76030370D01*
X43845325Y-75993261D01*
X43773450Y-75966783D01*
X43472872Y-75839936D01*
X43284552Y-75707448D01*
X43147653Y-75516132D01*
X43061977Y-75344771D01*
X42860455Y-74914513D01*
X42840815Y-68108548D01*
X43932060Y-68108548D01*
X43932293Y-69160113D01*
X43933070Y-70167449D01*
X43934406Y-71115640D01*
X43936315Y-71989770D01*
X43938812Y-72774924D01*
X43941912Y-73456186D01*
X43945630Y-74018640D01*
X43949980Y-74447371D01*
X43954976Y-74727464D01*
X43960300Y-74842059D01*
X43989521Y-74892914D01*
X44069255Y-74936326D01*
X44212233Y-74972883D01*
X44431189Y-75003171D01*
X44738854Y-75027779D01*
X45147958Y-75047294D01*
X45671236Y-75062303D01*
X46321418Y-75073393D01*
X47111236Y-75081152D01*
X48053422Y-75086168D01*
X49160708Y-75089027D01*
X49318594Y-75089273D01*
X50514377Y-75089583D01*
X51538035Y-75086676D01*
X52396924Y-75080413D01*
X53098398Y-75070658D01*
X53649812Y-75057275D01*
X54058520Y-75040127D01*
X54331879Y-75019076D01*
X54477241Y-74993986D01*
X54479372Y-74993281D01*
X54691564Y-74916627D01*
X54815754Y-74862477D01*
X54822861Y-74857649D01*
X54837262Y-74761361D01*
X54851785Y-74517114D01*
X54865147Y-74156446D01*
X54876064Y-73710898D01*
X54880591Y-73438978D01*
X54883024Y-72815565D01*
X54870078Y-72360214D01*
X54841132Y-72062089D01*
X54795565Y-71910357D01*
X54792756Y-71906305D01*
X54744900Y-71864728D01*
X54655945Y-71830906D01*
X54507225Y-71803642D01*
X54280073Y-71781741D01*
X53955823Y-71764007D01*
X53515808Y-71749243D01*
X52941362Y-71736255D01*
X52213818Y-71723845D01*
X51862941Y-71718588D01*
X51067745Y-71706262D01*
X50430300Y-71693975D01*
X49928860Y-71680204D01*
X49541676Y-71663428D01*
X49247003Y-71642128D01*
X49023093Y-71614782D01*
X48848199Y-71579869D01*
X48700574Y-71535868D01*
X48576778Y-71488758D01*
X48449247Y-71437342D01*
X48337969Y-71385908D01*
X48241802Y-71322559D01*
X48159608Y-71235397D01*
X48090245Y-71112524D01*
X48032573Y-70942044D01*
X47985453Y-70712058D01*
X47947744Y-70410670D01*
X47918305Y-70025981D01*
X47895998Y-69546094D01*
X47879681Y-68959112D01*
X47868214Y-68253138D01*
X47860457Y-67416273D01*
X47855270Y-66436620D01*
X47851513Y-65302282D01*
X47848046Y-64001362D01*
X47847724Y-63881383D01*
X47842556Y-62443596D01*
X47835254Y-61183247D01*
X47825782Y-60098279D01*
X47814107Y-59186636D01*
X47800192Y-58446262D01*
X47784002Y-57875102D01*
X47765501Y-57471099D01*
X47744656Y-57232197D01*
X47732601Y-57171683D01*
X47619072Y-56942698D01*
X47476966Y-56791066D01*
X47468333Y-56786129D01*
X47302786Y-56747604D01*
X46998224Y-56720363D01*
X46594770Y-56704175D01*
X46132545Y-56698814D01*
X45651672Y-56704050D01*
X45192270Y-56719656D01*
X44794463Y-56745402D01*
X44498372Y-56781062D01*
X44397402Y-56803602D01*
X44124164Y-56928985D01*
X43979704Y-57089870D01*
X43977731Y-57095298D01*
X43971884Y-57199934D01*
X43966376Y-57469159D01*
X43961222Y-57888059D01*
X43956436Y-58441716D01*
X43952033Y-59115216D01*
X43948028Y-59893642D01*
X43944435Y-60762080D01*
X43941269Y-61705614D01*
X43938545Y-62709327D01*
X43936277Y-63758305D01*
X43934480Y-64837632D01*
X43933168Y-65932392D01*
X43932356Y-67027669D01*
X43932060Y-68108548D01*
X42840815Y-68108548D01*
X42835140Y-66142362D01*
X42831375Y-64901330D01*
X42827405Y-63710306D01*
X42823289Y-62581657D01*
X42819091Y-61527751D01*
X42814870Y-60560958D01*
X42810688Y-59693646D01*
X42806606Y-58938183D01*
X42802685Y-58306939D01*
X42798987Y-57812281D01*
X42795572Y-57466578D01*
X42792501Y-57282199D01*
X42791195Y-57254789D01*
X42818144Y-57118572D01*
X42906859Y-56877180D01*
X43024816Y-56611598D01*
X43178375Y-56314353D01*
X43322118Y-56128614D01*
X43513112Y-55999304D01*
X43780234Y-55882588D01*
X43990404Y-55806738D01*
X44208855Y-55750456D01*
X44469785Y-55709761D01*
X44807392Y-55680675D01*
X45255875Y-55659220D01*
X45849430Y-55641416D01*
X45854072Y-55641297D01*
X47424744Y-55601246D01*
X47963260Y-55859576D01*
G36*
X169454123Y-55429756D02*
G01*
X169715526Y-55487523D01*
X169934751Y-55546935D01*
X170308358Y-55665194D01*
X170571200Y-55796990D01*
X170790309Y-55980567D01*
X170898125Y-56096607D01*
X171081960Y-56317411D01*
X171204456Y-56489431D01*
X171234698Y-56555343D01*
X171251024Y-56619465D01*
X171301372Y-56747478D01*
X171392985Y-56954964D01*
X171533107Y-57257508D01*
X171728981Y-57670692D01*
X171987852Y-58210099D01*
X172316961Y-58891312D01*
X172406175Y-59075510D01*
X172622071Y-59527053D01*
X172812810Y-59937112D01*
X172962896Y-60271523D01*
X173056832Y-60496120D01*
X173077864Y-60556429D01*
X173148957Y-60757601D01*
X173281162Y-61085026D01*
X173458836Y-61502690D01*
X173666335Y-61974579D01*
X173888014Y-62464678D01*
X174108231Y-62936974D01*
X174150004Y-63024627D01*
X174558246Y-63879001D01*
X174899998Y-64597379D01*
X175187135Y-65205259D01*
X175431532Y-65728141D01*
X175645062Y-66191525D01*
X175839602Y-66620910D01*
X176027024Y-67041797D01*
X176135312Y-67287878D01*
X176301686Y-67654478D01*
X176460179Y-67981599D01*
X176585119Y-68217041D01*
X176620823Y-68275157D01*
X176758641Y-68520112D01*
X176883853Y-68803327D01*
X176887704Y-68813673D01*
X176989328Y-69065926D01*
X177134076Y-69398036D01*
X177257136Y-69666323D01*
X177408085Y-69993586D01*
X177598318Y-70415494D01*
X177796267Y-70861761D01*
X177881928Y-71057489D01*
X178185420Y-71749178D01*
X178434499Y-72305379D01*
X178625049Y-72717087D01*
X178752951Y-72975298D01*
X178784720Y-73032047D01*
X179071958Y-73560452D01*
X179268598Y-74055837D01*
X179350244Y-74338844D01*
X179426694Y-74696302D01*
X179439034Y-74986410D01*
X179389949Y-75308434D01*
X179377951Y-75363403D01*
X179306183Y-75647456D01*
X179220195Y-75813595D01*
X179071085Y-75920026D01*
X178827672Y-76018384D01*
X178640989Y-76077764D01*
X178427581Y-76121235D01*
X178157166Y-76151092D01*
X177799461Y-76169630D01*
X177324182Y-76179145D01*
X176701047Y-76181934D01*
X176670190Y-76181938D01*
X176059797Y-76180238D01*
X175598259Y-76173342D01*
X175254940Y-76158560D01*
X174999206Y-76133201D01*
X174800423Y-76094573D01*
X174627956Y-76039984D01*
X174509470Y-75992114D01*
X174209493Y-75843711D01*
X173947383Y-75680552D01*
X173854255Y-75606391D01*
X173620096Y-75349902D01*
X173381065Y-75026195D01*
X173182887Y-74702309D01*
X173077874Y-74468090D01*
X172950380Y-74238786D01*
X172821610Y-74109079D01*
X172681170Y-74015626D01*
X172531618Y-73940119D01*
X172352971Y-73880669D01*
X172125248Y-73835390D01*
X171828468Y-73802392D01*
X171442648Y-73779788D01*
X170947806Y-73765690D01*
X170323962Y-73758210D01*
X169551133Y-73755459D01*
X169077182Y-73755272D01*
X166122161Y-73755959D01*
X165821599Y-74019856D01*
X165618486Y-74250309D01*
X165409738Y-74568050D01*
X165285987Y-74807516D01*
X164993493Y-75283554D01*
X164589626Y-75699452D01*
X164121210Y-76015580D01*
X163654426Y-76188382D01*
X163511535Y-76197272D01*
X163220293Y-76199611D01*
X162811726Y-76195708D01*
X162316855Y-76185874D01*
X161766706Y-76170419D01*
X161724744Y-76169064D01*
X161070101Y-76141948D01*
X160506528Y-76107085D01*
X160058746Y-76066533D01*
X159751473Y-76022353D01*
X159647695Y-75995991D01*
X159457901Y-75913993D01*
X159343808Y-75802682D01*
X159268037Y-75608410D01*
X159213066Y-75372194D01*
X159164240Y-75099216D01*
X159156929Y-74929688D01*
X160228516Y-74929688D01*
X160235344Y-74971991D01*
X160285426Y-75016942D01*
X160410646Y-75050150D01*
X160632562Y-75073153D01*
X160972729Y-75087488D01*
X161452704Y-75094692D01*
X161979081Y-75096358D01*
X162625754Y-75094464D01*
X163120120Y-75081909D01*
X163489377Y-75048382D01*
X163760722Y-74983572D01*
X163961354Y-74877170D01*
X164118469Y-74718865D01*
X164259267Y-74498347D01*
X164410945Y-74205305D01*
X164429923Y-74167275D01*
X164619652Y-73827770D01*
X164832285Y-73507589D01*
X164987566Y-73314915D01*
X165193119Y-73139010D01*
X165468271Y-72957592D01*
X165766128Y-72794882D01*
X166039793Y-72675107D01*
X166242370Y-72622491D01*
X166308923Y-72632360D01*
X166414471Y-72643947D01*
X166677489Y-72654413D01*
X167075942Y-72663415D01*
X167587797Y-72670608D01*
X168191021Y-72675647D01*
X168863579Y-72678187D01*
X169252375Y-72678396D01*
X170058204Y-72678733D01*
X170706361Y-72681543D01*
X171218675Y-72687939D01*
X171616972Y-72699033D01*
X171923082Y-72715939D01*
X172158832Y-72739769D01*
X172346052Y-72771636D01*
X172506568Y-72812653D01*
X172622944Y-72850221D01*
X173248799Y-73126436D01*
X173710000Y-73467239D01*
X174004816Y-73871218D01*
X174068720Y-74028320D01*
X174248093Y-74391743D01*
X174512156Y-74718339D01*
X174813674Y-74958030D01*
X175032220Y-75049796D01*
X175281033Y-75085358D01*
X175644158Y-75110209D01*
X176085390Y-75124749D01*
X176568519Y-75129378D01*
X177057340Y-75124498D01*
X177515643Y-75110508D01*
X177907222Y-75087807D01*
X178195870Y-75056797D01*
X178345378Y-75017878D01*
X178351802Y-75013107D01*
X178370914Y-74890569D01*
X178327632Y-74657635D01*
X178238527Y-74365115D01*
X178120170Y-74063815D01*
X177989132Y-73804544D01*
X177926908Y-73710359D01*
X177769652Y-73464136D01*
X177660771Y-73230679D01*
X177654663Y-73211553D01*
X177572592Y-72997851D01*
X177441857Y-72715204D01*
X177374988Y-72583998D01*
X177252715Y-72338957D01*
X177175771Y-72159041D01*
X177162200Y-72107689D01*
X177126244Y-72001783D01*
X177026323Y-71759728D01*
X176874361Y-71408050D01*
X176682280Y-70973276D01*
X176462001Y-70481932D01*
X176225448Y-69960545D01*
X175984542Y-69435642D01*
X175751206Y-68933748D01*
X175537362Y-68481391D01*
X175459843Y-68320033D01*
X175251782Y-67885244D01*
X175044182Y-67444322D01*
X174867099Y-67061420D01*
X174787014Y-66883991D01*
X174653280Y-66591708D01*
X174464538Y-66190832D01*
X174245591Y-65733556D01*
X174021240Y-65272076D01*
X174015101Y-65259558D01*
X173818698Y-64852198D01*
X173654936Y-64499134D01*
X173538591Y-64233243D01*
X173484444Y-64087404D01*
X173482341Y-64074285D01*
X173439518Y-63947091D01*
X173329116Y-63723762D01*
X173223465Y-63535874D01*
X173024883Y-63160065D01*
X172778647Y-62627938D01*
X172491260Y-61954317D01*
X172169226Y-61154026D01*
X172093552Y-60960316D01*
X171986764Y-60705727D01*
X171817788Y-60326966D01*
X171603588Y-59860969D01*
X171361128Y-59344676D01*
X171124844Y-58851129D01*
X170885102Y-58351897D01*
X170670190Y-57898014D01*
X170493396Y-57518056D01*
X170368007Y-57240598D01*
X170307312Y-57094216D01*
X170306057Y-57090351D01*
X170151409Y-56809206D01*
X169886316Y-56639202D01*
X169489867Y-56568840D01*
X169351588Y-56565428D01*
X168948214Y-56605475D01*
X168641982Y-56743225D01*
X168397774Y-57005089D01*
X168180471Y-57417479D01*
X168162315Y-57459847D01*
X168061900Y-57683267D01*
X167897667Y-58032746D01*
X167686138Y-58473823D01*
X167443838Y-58972033D01*
X167193992Y-59479397D01*
X166966410Y-59945210D01*
X166714205Y-60472583D01*
X166448434Y-61037221D01*
X166180153Y-61614826D01*
X165920420Y-62181101D01*
X165680290Y-62711749D01*
X165470821Y-63182474D01*
X165303068Y-63568977D01*
X165188090Y-63846963D01*
X165136942Y-63992133D01*
X165135345Y-64003265D01*
X165097282Y-64095932D01*
X164990242Y-64327069D01*
X164824940Y-64674301D01*
X164612096Y-65115254D01*
X164362426Y-65627555D01*
X164148065Y-66064216D01*
X163876311Y-66620680D01*
X163633175Y-67127337D01*
X163429466Y-67560943D01*
X163275991Y-67898253D01*
X163183560Y-68116021D01*
X163160786Y-68187521D01*
X163122870Y-68302155D01*
X163017361Y-68550273D01*
X162856621Y-68904643D01*
X162653010Y-69338032D01*
X162418889Y-69823209D01*
X162411295Y-69838746D01*
X162148786Y-70384355D01*
X161890981Y-70935784D01*
X161657871Y-71449154D01*
X161469447Y-71880586D01*
X161365374Y-72134521D01*
X161206659Y-72514793D01*
X161041925Y-72863633D01*
X160899509Y-73122338D01*
X160860786Y-73179904D01*
X160732500Y-73399546D01*
X160591335Y-73711142D01*
X160453822Y-74067323D01*
X160336493Y-74420720D01*
X160255881Y-74723965D01*
X160228516Y-74929688D01*
X159156929Y-74929688D01*
X159154175Y-74865838D01*
X159187742Y-74609156D01*
X159269813Y-74266262D01*
X159310330Y-74116314D01*
X159448474Y-73689357D01*
X159623283Y-73254970D01*
X159799746Y-72899093D01*
X159820694Y-72863555D01*
X159988500Y-72555614D01*
X160187150Y-72145144D01*
X160385509Y-71698080D01*
X160482847Y-71461376D01*
X160684706Y-70981329D01*
X160920420Y-70462475D01*
X161150608Y-69990265D01*
X161237465Y-69823983D01*
X161440722Y-69432891D01*
X161633158Y-69040223D01*
X161781685Y-68714155D01*
X161814637Y-68634760D01*
X161959805Y-68270815D01*
X162119034Y-67871244D01*
X162181567Y-67714203D01*
X162278575Y-67489285D01*
X162439916Y-67136362D01*
X162650169Y-66688243D01*
X162893911Y-66177740D01*
X163155720Y-65637659D01*
X163204620Y-65537701D01*
X163508534Y-64908660D01*
X163833873Y-64220405D01*
X164154126Y-63530009D01*
X164442779Y-62894546D01*
X164643048Y-62441235D01*
X164862822Y-61946178D01*
X165141925Y-61335880D01*
X165459197Y-60655549D01*
X165793477Y-59950391D01*
X166123606Y-59265613D01*
X166260453Y-58985758D01*
X166539774Y-58412985D01*
X166794321Y-57882667D01*
X167012626Y-57419365D01*
X167183225Y-57047643D01*
X167294649Y-56792061D01*
X167333726Y-56686751D01*
X167488030Y-56382474D01*
X167777191Y-56076184D01*
X168160137Y-55801511D01*
X168595793Y-55592081D01*
X168723090Y-55549269D01*
X169029838Y-55460490D01*
X169249538Y-55420699D01*
X169454123Y-55429756D01*
G37*
X169454123Y-55429756D02*
X169715526Y-55487523D01*
X169934751Y-55546935D01*
X170308358Y-55665194D01*
X170571200Y-55796990D01*
X170790309Y-55980567D01*
X170898125Y-56096607D01*
X171081960Y-56317411D01*
X171204456Y-56489431D01*
X171234698Y-56555343D01*
X171251024Y-56619465D01*
X171301372Y-56747478D01*
X171392985Y-56954964D01*
X171533107Y-57257508D01*
X171728981Y-57670692D01*
X171987852Y-58210099D01*
X172316961Y-58891312D01*
X172406175Y-59075510D01*
X172622071Y-59527053D01*
X172812810Y-59937112D01*
X172962896Y-60271523D01*
X173056832Y-60496120D01*
X173077864Y-60556429D01*
X173148957Y-60757601D01*
X173281162Y-61085026D01*
X173458836Y-61502690D01*
X173666335Y-61974579D01*
X173888014Y-62464678D01*
X174108231Y-62936974D01*
X174150004Y-63024627D01*
X174558246Y-63879001D01*
X174899998Y-64597379D01*
X175187135Y-65205259D01*
X175431532Y-65728141D01*
X175645062Y-66191525D01*
X175839602Y-66620910D01*
X176027024Y-67041797D01*
X176135312Y-67287878D01*
X176301686Y-67654478D01*
X176460179Y-67981599D01*
X176585119Y-68217041D01*
X176620823Y-68275157D01*
X176758641Y-68520112D01*
X176883853Y-68803327D01*
X176887704Y-68813673D01*
X176989328Y-69065926D01*
X177134076Y-69398036D01*
X177257136Y-69666323D01*
X177408085Y-69993586D01*
X177598318Y-70415494D01*
X177796267Y-70861761D01*
X177881928Y-71057489D01*
X178185420Y-71749178D01*
X178434499Y-72305379D01*
X178625049Y-72717087D01*
X178752951Y-72975298D01*
X178784720Y-73032047D01*
X179071958Y-73560452D01*
X179268598Y-74055837D01*
X179350244Y-74338844D01*
X179426694Y-74696302D01*
X179439034Y-74986410D01*
X179389949Y-75308434D01*
X179377951Y-75363403D01*
X179306183Y-75647456D01*
X179220195Y-75813595D01*
X179071085Y-75920026D01*
X178827672Y-76018384D01*
X178640989Y-76077764D01*
X178427581Y-76121235D01*
X178157166Y-76151092D01*
X177799461Y-76169630D01*
X177324182Y-76179145D01*
X176701047Y-76181934D01*
X176670190Y-76181938D01*
X176059797Y-76180238D01*
X175598259Y-76173342D01*
X175254940Y-76158560D01*
X174999206Y-76133201D01*
X174800423Y-76094573D01*
X174627956Y-76039984D01*
X174509470Y-75992114D01*
X174209493Y-75843711D01*
X173947383Y-75680552D01*
X173854255Y-75606391D01*
X173620096Y-75349902D01*
X173381065Y-75026195D01*
X173182887Y-74702309D01*
X173077874Y-74468090D01*
X172950380Y-74238786D01*
X172821610Y-74109079D01*
X172681170Y-74015626D01*
X172531618Y-73940119D01*
X172352971Y-73880669D01*
X172125248Y-73835390D01*
X171828468Y-73802392D01*
X171442648Y-73779788D01*
X170947806Y-73765690D01*
X170323962Y-73758210D01*
X169551133Y-73755459D01*
X169077182Y-73755272D01*
X166122161Y-73755959D01*
X165821599Y-74019856D01*
X165618486Y-74250309D01*
X165409738Y-74568050D01*
X165285987Y-74807516D01*
X164993493Y-75283554D01*
X164589626Y-75699452D01*
X164121210Y-76015580D01*
X163654426Y-76188382D01*
X163511535Y-76197272D01*
X163220293Y-76199611D01*
X162811726Y-76195708D01*
X162316855Y-76185874D01*
X161766706Y-76170419D01*
X161724744Y-76169064D01*
X161070101Y-76141948D01*
X160506528Y-76107085D01*
X160058746Y-76066533D01*
X159751473Y-76022353D01*
X159647695Y-75995991D01*
X159457901Y-75913993D01*
X159343808Y-75802682D01*
X159268037Y-75608410D01*
X159213066Y-75372194D01*
X159164240Y-75099216D01*
X159156929Y-74929688D01*
X160228516Y-74929688D01*
X160235344Y-74971991D01*
X160285426Y-75016942D01*
X160410646Y-75050150D01*
X160632562Y-75073153D01*
X160972729Y-75087488D01*
X161452704Y-75094692D01*
X161979081Y-75096358D01*
X162625754Y-75094464D01*
X163120120Y-75081909D01*
X163489377Y-75048382D01*
X163760722Y-74983572D01*
X163961354Y-74877170D01*
X164118469Y-74718865D01*
X164259267Y-74498347D01*
X164410945Y-74205305D01*
X164429923Y-74167275D01*
X164619652Y-73827770D01*
X164832285Y-73507589D01*
X164987566Y-73314915D01*
X165193119Y-73139010D01*
X165468271Y-72957592D01*
X165766128Y-72794882D01*
X166039793Y-72675107D01*
X166242370Y-72622491D01*
X166308923Y-72632360D01*
X166414471Y-72643947D01*
X166677489Y-72654413D01*
X167075942Y-72663415D01*
X167587797Y-72670608D01*
X168191021Y-72675647D01*
X168863579Y-72678187D01*
X169252375Y-72678396D01*
X170058204Y-72678733D01*
X170706361Y-72681543D01*
X171218675Y-72687939D01*
X171616972Y-72699033D01*
X171923082Y-72715939D01*
X172158832Y-72739769D01*
X172346052Y-72771636D01*
X172506568Y-72812653D01*
X172622944Y-72850221D01*
X173248799Y-73126436D01*
X173710000Y-73467239D01*
X174004816Y-73871218D01*
X174068720Y-74028320D01*
X174248093Y-74391743D01*
X174512156Y-74718339D01*
X174813674Y-74958030D01*
X175032220Y-75049796D01*
X175281033Y-75085358D01*
X175644158Y-75110209D01*
X176085390Y-75124749D01*
X176568519Y-75129378D01*
X177057340Y-75124498D01*
X177515643Y-75110508D01*
X177907222Y-75087807D01*
X178195870Y-75056797D01*
X178345378Y-75017878D01*
X178351802Y-75013107D01*
X178370914Y-74890569D01*
X178327632Y-74657635D01*
X178238527Y-74365115D01*
X178120170Y-74063815D01*
X177989132Y-73804544D01*
X177926908Y-73710359D01*
X177769652Y-73464136D01*
X177660771Y-73230679D01*
X177654663Y-73211553D01*
X177572592Y-72997851D01*
X177441857Y-72715204D01*
X177374988Y-72583998D01*
X177252715Y-72338957D01*
X177175771Y-72159041D01*
X177162200Y-72107689D01*
X177126244Y-72001783D01*
X177026323Y-71759728D01*
X176874361Y-71408050D01*
X176682280Y-70973276D01*
X176462001Y-70481932D01*
X176225448Y-69960545D01*
X175984542Y-69435642D01*
X175751206Y-68933748D01*
X175537362Y-68481391D01*
X175459843Y-68320033D01*
X175251782Y-67885244D01*
X175044182Y-67444322D01*
X174867099Y-67061420D01*
X174787014Y-66883991D01*
X174653280Y-66591708D01*
X174464538Y-66190832D01*
X174245591Y-65733556D01*
X174021240Y-65272076D01*
X174015101Y-65259558D01*
X173818698Y-64852198D01*
X173654936Y-64499134D01*
X173538591Y-64233243D01*
X173484444Y-64087404D01*
X173482341Y-64074285D01*
X173439518Y-63947091D01*
X173329116Y-63723762D01*
X173223465Y-63535874D01*
X173024883Y-63160065D01*
X172778647Y-62627938D01*
X172491260Y-61954317D01*
X172169226Y-61154026D01*
X172093552Y-60960316D01*
X171986764Y-60705727D01*
X171817788Y-60326966D01*
X171603588Y-59860969D01*
X171361128Y-59344676D01*
X171124844Y-58851129D01*
X170885102Y-58351897D01*
X170670190Y-57898014D01*
X170493396Y-57518056D01*
X170368007Y-57240598D01*
X170307312Y-57094216D01*
X170306057Y-57090351D01*
X170151409Y-56809206D01*
X169886316Y-56639202D01*
X169489867Y-56568840D01*
X169351588Y-56565428D01*
X168948214Y-56605475D01*
X168641982Y-56743225D01*
X168397774Y-57005089D01*
X168180471Y-57417479D01*
X168162315Y-57459847D01*
X168061900Y-57683267D01*
X167897667Y-58032746D01*
X167686138Y-58473823D01*
X167443838Y-58972033D01*
X167193992Y-59479397D01*
X166966410Y-59945210D01*
X166714205Y-60472583D01*
X166448434Y-61037221D01*
X166180153Y-61614826D01*
X165920420Y-62181101D01*
X165680290Y-62711749D01*
X165470821Y-63182474D01*
X165303068Y-63568977D01*
X165188090Y-63846963D01*
X165136942Y-63992133D01*
X165135345Y-64003265D01*
X165097282Y-64095932D01*
X164990242Y-64327069D01*
X164824940Y-64674301D01*
X164612096Y-65115254D01*
X164362426Y-65627555D01*
X164148065Y-66064216D01*
X163876311Y-66620680D01*
X163633175Y-67127337D01*
X163429466Y-67560943D01*
X163275991Y-67898253D01*
X163183560Y-68116021D01*
X163160786Y-68187521D01*
X163122870Y-68302155D01*
X163017361Y-68550273D01*
X162856621Y-68904643D01*
X162653010Y-69338032D01*
X162418889Y-69823209D01*
X162411295Y-69838746D01*
X162148786Y-70384355D01*
X161890981Y-70935784D01*
X161657871Y-71449154D01*
X161469447Y-71880586D01*
X161365374Y-72134521D01*
X161206659Y-72514793D01*
X161041925Y-72863633D01*
X160899509Y-73122338D01*
X160860786Y-73179904D01*
X160732500Y-73399546D01*
X160591335Y-73711142D01*
X160453822Y-74067323D01*
X160336493Y-74420720D01*
X160255881Y-74723965D01*
X160228516Y-74929688D01*
X159156929Y-74929688D01*
X159154175Y-74865838D01*
X159187742Y-74609156D01*
X159269813Y-74266262D01*
X159310330Y-74116314D01*
X159448474Y-73689357D01*
X159623283Y-73254970D01*
X159799746Y-72899093D01*
X159820694Y-72863555D01*
X159988500Y-72555614D01*
X160187150Y-72145144D01*
X160385509Y-71698080D01*
X160482847Y-71461376D01*
X160684706Y-70981329D01*
X160920420Y-70462475D01*
X161150608Y-69990265D01*
X161237465Y-69823983D01*
X161440722Y-69432891D01*
X161633158Y-69040223D01*
X161781685Y-68714155D01*
X161814637Y-68634760D01*
X161959805Y-68270815D01*
X162119034Y-67871244D01*
X162181567Y-67714203D01*
X162278575Y-67489285D01*
X162439916Y-67136362D01*
X162650169Y-66688243D01*
X162893911Y-66177740D01*
X163155720Y-65637659D01*
X163204620Y-65537701D01*
X163508534Y-64908660D01*
X163833873Y-64220405D01*
X164154126Y-63530009D01*
X164442779Y-62894546D01*
X164643048Y-62441235D01*
X164862822Y-61946178D01*
X165141925Y-61335880D01*
X165459197Y-60655549D01*
X165793477Y-59950391D01*
X166123606Y-59265613D01*
X166260453Y-58985758D01*
X166539774Y-58412985D01*
X166794321Y-57882667D01*
X167012626Y-57419365D01*
X167183225Y-57047643D01*
X167294649Y-56792061D01*
X167333726Y-56686751D01*
X167488030Y-56382474D01*
X167777191Y-56076184D01*
X168160137Y-55801511D01*
X168595793Y-55592081D01*
X168723090Y-55549269D01*
X169029838Y-55460490D01*
X169249538Y-55420699D01*
X169454123Y-55429756D01*
G36*
X157061341Y-55689018D02*
G01*
X157386959Y-55707326D01*
X157638795Y-55740184D01*
X157852064Y-55790613D01*
X158044885Y-55855272D01*
X158352284Y-55987556D01*
X158554825Y-56140522D01*
X158722908Y-56373681D01*
X158783530Y-56479657D01*
X158863138Y-56632922D01*
X158925696Y-56787846D01*
X158973184Y-56967438D01*
X159007580Y-57194710D01*
X159030862Y-57492674D01*
X159045009Y-57884339D01*
X159051998Y-58392718D01*
X159053808Y-59040821D01*
X159052999Y-59614026D01*
X159052514Y-59995629D01*
X159052377Y-60534148D01*
X159052560Y-61206995D01*
X159053032Y-61991580D01*
X159053765Y-62865316D01*
X159054728Y-63805613D01*
X159055892Y-64789883D01*
X159057227Y-65795537D01*
X159058704Y-66799987D01*
X159060293Y-67780643D01*
X159061965Y-68714918D01*
X159063690Y-69580222D01*
X159065438Y-70353967D01*
X159067181Y-71013565D01*
X159068454Y-71416500D01*
X159069399Y-72097454D01*
X159067653Y-72748617D01*
X159063501Y-73339677D01*
X159057226Y-73840321D01*
X159049113Y-74220235D01*
X159040078Y-74440008D01*
X158923537Y-75038929D01*
X158660687Y-75533979D01*
X158251743Y-75924802D01*
X158074394Y-76036756D01*
X157640998Y-76282383D01*
X155845945Y-76221371D01*
X155129481Y-76192653D01*
X154568414Y-76155719D01*
X154138633Y-76102598D01*
X153816029Y-76025323D01*
X153576495Y-75915923D01*
X153395919Y-75766428D01*
X153250194Y-75568871D01*
X153117189Y-75319365D01*
X153054947Y-75186296D01*
X153005759Y-75057981D01*
X152967939Y-74912024D01*
X152939802Y-74726028D01*
X152919663Y-74477594D01*
X152905834Y-74144326D01*
X152896630Y-73703826D01*
X152890366Y-73133698D01*
X152885355Y-72411544D01*
X152884219Y-72224274D01*
X152878921Y-71344019D01*
X152873947Y-70625708D01*
X152868225Y-70051786D01*
X152860686Y-69604696D01*
X152850257Y-69266882D01*
X152835868Y-69020790D01*
X152816448Y-68848862D01*
X152790926Y-68733544D01*
X152758230Y-68657278D01*
X152717291Y-68602511D01*
X152667036Y-68551685D01*
X152659726Y-68544415D01*
X152593225Y-68487286D01*
X152507248Y-68443732D01*
X152378504Y-68411923D01*
X152183701Y-68390025D01*
X151899547Y-68376208D01*
X151502751Y-68368639D01*
X150970020Y-68365486D01*
X150377445Y-68364910D01*
X149694093Y-68366421D01*
X149168260Y-68371876D01*
X148777976Y-68382655D01*
X148501271Y-68400140D01*
X148316177Y-68425711D01*
X148200726Y-68460749D01*
X148133628Y-68505949D01*
X148017800Y-68663857D01*
X147988440Y-68752769D01*
X147987436Y-68864840D01*
X147986481Y-69134790D01*
X147985606Y-69540997D01*
X147984846Y-70061835D01*
X147984234Y-70675679D01*
X147983802Y-71360905D01*
X147983620Y-71896156D01*
X147982295Y-72811862D01*
X147976576Y-73565816D01*
X147963177Y-74175768D01*
X147938815Y-74659468D01*
X147900205Y-75034664D01*
X147844063Y-75319107D01*
X147767104Y-75530547D01*
X147666044Y-75686733D01*
X147537599Y-75805416D01*
X147378484Y-75904344D01*
X147227819Y-75980745D01*
X147069784Y-76052763D01*
X146913895Y-76106638D01*
X146731141Y-76145290D01*
X146492509Y-76171635D01*
X146168989Y-76188593D01*
X145731568Y-76199082D01*
X145151235Y-76206019D01*
X144972417Y-76207609D01*
X144337576Y-76211309D01*
X143852578Y-76208679D01*
X143487812Y-76197648D01*
X143213667Y-76176144D01*
X143000530Y-76142093D01*
X142818790Y-76093424D01*
X142689986Y-76047875D01*
X142398957Y-75918059D01*
X142216449Y-75767847D01*
X142075907Y-75537207D01*
X142040470Y-75462001D01*
X142001869Y-75373375D01*
X141968884Y-75279565D01*
X141941022Y-75166346D01*
X141917788Y-75019494D01*
X141898689Y-74824786D01*
X141883231Y-74567995D01*
X141870918Y-74234900D01*
X141861257Y-73811274D01*
X141853754Y-73282895D01*
X141847914Y-72635537D01*
X141843243Y-71854977D01*
X141839247Y-70926991D01*
X141835433Y-69837354D01*
X141834428Y-69531694D01*
X141830916Y-68520605D01*
X141827101Y-67538134D01*
X141823083Y-66603289D01*
X141818961Y-65735082D01*
X141814837Y-64952521D01*
X141810808Y-64274618D01*
X141806976Y-63720381D01*
X141803440Y-63308821D01*
X141800484Y-63069503D01*
X141798155Y-62588229D01*
X142859030Y-62588229D01*
X142859578Y-62710493D01*
X142860647Y-62837469D01*
X142861884Y-63128205D01*
X142863255Y-63566957D01*
X142864726Y-64137981D01*
X142866261Y-64825530D01*
X142867827Y-65613860D01*
X142869389Y-66487228D01*
X142870912Y-67429887D01*
X142872362Y-68426093D01*
X142872766Y-68723920D01*
X142874888Y-69733734D01*
X142878412Y-70695338D01*
X142883183Y-71592887D01*
X142889046Y-72410535D01*
X142895844Y-73132437D01*
X142903425Y-73742748D01*
X142911631Y-74225622D01*
X142920309Y-74565213D01*
X142929302Y-74745676D01*
X142931911Y-74765805D01*
X143023268Y-74971381D01*
X143149008Y-75079939D01*
X143288516Y-75099068D01*
X143575945Y-75115104D01*
X143979727Y-75127100D01*
X144468289Y-75134109D01*
X144992095Y-75135251D01*
X145584825Y-75131746D01*
X146023621Y-75124442D01*
X146334048Y-75110894D01*
X146541670Y-75088658D01*
X146672054Y-75055292D01*
X146750764Y-75008352D01*
X146790864Y-74963319D01*
X146824338Y-74883846D01*
X146851240Y-74735711D01*
X146872132Y-74502758D01*
X146887574Y-74168832D01*
X146898127Y-73717775D01*
X146904352Y-73133433D01*
X146906810Y-72399648D01*
X146906340Y-71637225D01*
X146905194Y-70798044D01*
X146905864Y-70118781D01*
X146909355Y-69579851D01*
X146916673Y-69161668D01*
X146928822Y-68844648D01*
X146946810Y-68609204D01*
X146971640Y-68435752D01*
X147004318Y-68304705D01*
X147045850Y-68196480D01*
X147087368Y-68110733D01*
X147365604Y-67742647D01*
X147663750Y-67516131D01*
X148053236Y-67287878D01*
X152678147Y-67287878D01*
X153108270Y-67529662D01*
X153457708Y-67780347D01*
X153696475Y-68098897D01*
X153738655Y-68180368D01*
X153792636Y-68296625D01*
X153836127Y-68415259D01*
X153870428Y-68556533D01*
X153896840Y-68740706D01*
X153916662Y-68988040D01*
X153931196Y-69318796D01*
X153941740Y-69753235D01*
X153949596Y-70311616D01*
X153956063Y-71014202D01*
X153960734Y-71640881D01*
X153967725Y-72368808D01*
X153977621Y-73043352D01*
X153989835Y-73642533D01*
X154003783Y-74144369D01*
X154018877Y-74526880D01*
X154034532Y-74768084D01*
X154046100Y-74842599D01*
X154090221Y-74925069D01*
X154159620Y-74987709D01*
X154278883Y-75034567D01*
X154472595Y-75069690D01*
X154765342Y-75097125D01*
X155181709Y-75120919D01*
X155746281Y-75145120D01*
X155927054Y-75152239D01*
X157487495Y-75213145D01*
X157711928Y-74988712D01*
X157818681Y-74862694D01*
X157891582Y-74711186D01*
X157941724Y-74491874D01*
X157980200Y-74162447D01*
X158003717Y-73875725D01*
X158018607Y-73558181D01*
X158027938Y-73092563D01*
X158031703Y-72510212D01*
X158029893Y-71842474D01*
X158022500Y-71120693D01*
X158009516Y-70376211D01*
X158004690Y-70159963D01*
X157989692Y-69378909D01*
X157977686Y-68463683D01*
X157968927Y-67459600D01*
X157963667Y-66411973D01*
X157962161Y-65366114D01*
X157964662Y-64367336D01*
X157968744Y-63742648D01*
X157975192Y-62926479D01*
X157980509Y-62140861D01*
X157984597Y-61409841D01*
X157987357Y-60757466D01*
X157988691Y-60207783D01*
X157988502Y-59784839D01*
X157986691Y-59512682D01*
X157986144Y-59479397D01*
X157978883Y-59068277D01*
X157971059Y-58567962D01*
X157964062Y-58068749D01*
X157962324Y-57932056D01*
X157954286Y-57539677D01*
X157926185Y-57244443D01*
X157855561Y-57032859D01*
X157719950Y-56891430D01*
X157496891Y-56806661D01*
X157163922Y-56765057D01*
X156698581Y-56753124D01*
X156078405Y-56757365D01*
X156008374Y-56758144D01*
X155334016Y-56772873D01*
X154829392Y-56800617D01*
X154485151Y-56842116D01*
X154300504Y-56893823D01*
X154050892Y-57013300D01*
X153987860Y-59749705D01*
X153969790Y-60522070D01*
X153953753Y-61136850D01*
X153937686Y-61615919D01*
X153919528Y-61981153D01*
X153897218Y-62254424D01*
X153868694Y-62457607D01*
X153831893Y-62612577D01*
X153784754Y-62741207D01*
X153725215Y-62865372D01*
X153687347Y-62937952D01*
X153403039Y-63346645D01*
X153112600Y-63583898D01*
X153000660Y-63643568D01*
X152882045Y-63689638D01*
X152732960Y-63723904D01*
X152529613Y-63748163D01*
X152248211Y-63764209D01*
X151864961Y-63773838D01*
X151356069Y-63778847D01*
X150697744Y-63781030D01*
X150496152Y-63781361D01*
X149789618Y-63781491D01*
X149237490Y-63778411D01*
X148814676Y-63770411D01*
X148496083Y-63755784D01*
X148256618Y-63732822D01*
X148071188Y-63699817D01*
X147914701Y-63655060D01*
X147762064Y-63596845D01*
X147757445Y-63594939D01*
X147484508Y-63467214D01*
X147312323Y-63327043D01*
X147181996Y-63114041D01*
X147095092Y-62915803D01*
X147023060Y-62732442D01*
X146971735Y-62562079D01*
X146938847Y-62372512D01*
X146922129Y-62131541D01*
X146919309Y-61806962D01*
X146928121Y-61366575D01*
X146945714Y-60795854D01*
X146960115Y-60171991D01*
X146964945Y-59515415D01*
X146960438Y-58885387D01*
X146946833Y-58341165D01*
X146934922Y-58089131D01*
X146906405Y-57634880D01*
X146879322Y-57326620D01*
X146844967Y-57131125D01*
X146794631Y-57015168D01*
X146719608Y-56945521D01*
X146621743Y-56893996D01*
X146422825Y-56839125D01*
X146084899Y-56801987D01*
X145594071Y-56781555D01*
X145031071Y-56776572D01*
X144289892Y-56790394D01*
X143717519Y-56830889D01*
X143305031Y-56899524D01*
X143043505Y-56997764D01*
X142925611Y-57122768D01*
X142910152Y-57251301D01*
X142897999Y-57528020D01*
X142889825Y-57921624D01*
X142886306Y-58400813D01*
X142887699Y-58882582D01*
X142890509Y-59496719D01*
X142890277Y-60134207D01*
X142887233Y-60738776D01*
X142881607Y-61254152D01*
X142877048Y-61498832D01*
X142868093Y-61925056D01*
X142861857Y-62304200D01*
X142859030Y-62588229D01*
X141798155Y-62588229D01*
X141798111Y-62579344D01*
X141805232Y-62065370D01*
X141820367Y-61610504D01*
X141829416Y-61446937D01*
X141843747Y-60992391D01*
X141836853Y-60477896D01*
X141813176Y-60055771D01*
X141793697Y-59688039D01*
X141785031Y-59202468D01*
X141787500Y-58660416D01*
X141801428Y-58123241D01*
X141802808Y-58088231D01*
X141825560Y-57580757D01*
X141850508Y-57215690D01*
X141884262Y-56955984D01*
X141933434Y-56764596D01*
X142004636Y-56604480D01*
X142094423Y-56454293D01*
X142250939Y-56238857D01*
X142422861Y-56093833D01*
X142668832Y-55979833D01*
X142929588Y-55893339D01*
X143182182Y-55823210D01*
X143437800Y-55773510D01*
X143733498Y-55741171D01*
X144106332Y-55723125D01*
X144593359Y-55716305D01*
X145062643Y-55716742D01*
X145777888Y-55726621D01*
X146338845Y-55753711D01*
X146770443Y-55805052D01*
X147097612Y-55887683D01*
X147345282Y-56008645D01*
X147538380Y-56174976D01*
X147701837Y-56393716D01*
X147752114Y-56476202D01*
X148009588Y-56914431D01*
X148014717Y-59685050D01*
X148017524Y-60489808D01*
X148023190Y-61132906D01*
X148032529Y-61632179D01*
X148046357Y-62005460D01*
X148065490Y-62270585D01*
X148090744Y-62445387D01*
X148122933Y-62547700D01*
X148147257Y-62583081D01*
X148220614Y-62624741D01*
X148360384Y-62656677D01*
X148586810Y-62680023D01*
X148920138Y-62695915D01*
X149380612Y-62705488D01*
X149988478Y-62709876D01*
X150420252Y-62710493D01*
X152565835Y-62710493D01*
X152707421Y-62494406D01*
X152750124Y-62403761D01*
X152784875Y-62262437D01*
X152812979Y-62050630D01*
X152835741Y-61748537D01*
X152854466Y-61336357D01*
X152870459Y-60794286D01*
X152885025Y-60102522D01*
X152892259Y-59689635D01*
X152907585Y-58884875D01*
X152925126Y-58234269D01*
X152946855Y-57712466D01*
X152974745Y-57294116D01*
X153010769Y-56953867D01*
X153056897Y-56666369D01*
X153115105Y-56406270D01*
X153160804Y-56238316D01*
X153272214Y-56131949D01*
X153536124Y-56008089D01*
X153873502Y-55894483D01*
X154162816Y-55816448D01*
X154448143Y-55760642D01*
X154769530Y-55723187D01*
X155167027Y-55700208D01*
X155680679Y-55687827D01*
X156047908Y-55683971D01*
X156626728Y-55682240D01*
X157061341Y-55689018D01*
G37*
X157061341Y-55689018D02*
X157386959Y-55707326D01*
X157638795Y-55740184D01*
X157852064Y-55790613D01*
X158044885Y-55855272D01*
X158352284Y-55987556D01*
X158554825Y-56140522D01*
X158722908Y-56373681D01*
X158783530Y-56479657D01*
X158863138Y-56632922D01*
X158925696Y-56787846D01*
X158973184Y-56967438D01*
X159007580Y-57194710D01*
X159030862Y-57492674D01*
X159045009Y-57884339D01*
X159051998Y-58392718D01*
X159053808Y-59040821D01*
X159052999Y-59614026D01*
X159052514Y-59995629D01*
X159052377Y-60534148D01*
X159052560Y-61206995D01*
X159053032Y-61991580D01*
X159053765Y-62865316D01*
X159054728Y-63805613D01*
X159055892Y-64789883D01*
X159057227Y-65795537D01*
X159058704Y-66799987D01*
X159060293Y-67780643D01*
X159061965Y-68714918D01*
X159063690Y-69580222D01*
X159065438Y-70353967D01*
X159067181Y-71013565D01*
X159068454Y-71416500D01*
X159069399Y-72097454D01*
X159067653Y-72748617D01*
X159063501Y-73339677D01*
X159057226Y-73840321D01*
X159049113Y-74220235D01*
X159040078Y-74440008D01*
X158923537Y-75038929D01*
X158660687Y-75533979D01*
X158251743Y-75924802D01*
X158074394Y-76036756D01*
X157640998Y-76282383D01*
X155845945Y-76221371D01*
X155129481Y-76192653D01*
X154568414Y-76155719D01*
X154138633Y-76102598D01*
X153816029Y-76025323D01*
X153576495Y-75915923D01*
X153395919Y-75766428D01*
X153250194Y-75568871D01*
X153117189Y-75319365D01*
X153054947Y-75186296D01*
X153005759Y-75057981D01*
X152967939Y-74912024D01*
X152939802Y-74726028D01*
X152919663Y-74477594D01*
X152905834Y-74144326D01*
X152896630Y-73703826D01*
X152890366Y-73133698D01*
X152885355Y-72411544D01*
X152884219Y-72224274D01*
X152878921Y-71344019D01*
X152873947Y-70625708D01*
X152868225Y-70051786D01*
X152860686Y-69604696D01*
X152850257Y-69266882D01*
X152835868Y-69020790D01*
X152816448Y-68848862D01*
X152790926Y-68733544D01*
X152758230Y-68657278D01*
X152717291Y-68602511D01*
X152667036Y-68551685D01*
X152659726Y-68544415D01*
X152593225Y-68487286D01*
X152507248Y-68443732D01*
X152378504Y-68411923D01*
X152183701Y-68390025D01*
X151899547Y-68376208D01*
X151502751Y-68368639D01*
X150970020Y-68365486D01*
X150377445Y-68364910D01*
X149694093Y-68366421D01*
X149168260Y-68371876D01*
X148777976Y-68382655D01*
X148501271Y-68400140D01*
X148316177Y-68425711D01*
X148200726Y-68460749D01*
X148133628Y-68505949D01*
X148017800Y-68663857D01*
X147988440Y-68752769D01*
X147987436Y-68864840D01*
X147986481Y-69134790D01*
X147985606Y-69540997D01*
X147984846Y-70061835D01*
X147984234Y-70675679D01*
X147983802Y-71360905D01*
X147983620Y-71896156D01*
X147982295Y-72811862D01*
X147976576Y-73565816D01*
X147963177Y-74175768D01*
X147938815Y-74659468D01*
X147900205Y-75034664D01*
X147844063Y-75319107D01*
X147767104Y-75530547D01*
X147666044Y-75686733D01*
X147537599Y-75805416D01*
X147378484Y-75904344D01*
X147227819Y-75980745D01*
X147069784Y-76052763D01*
X146913895Y-76106638D01*
X146731141Y-76145290D01*
X146492509Y-76171635D01*
X146168989Y-76188593D01*
X145731568Y-76199082D01*
X145151235Y-76206019D01*
X144972417Y-76207609D01*
X144337576Y-76211309D01*
X143852578Y-76208679D01*
X143487812Y-76197648D01*
X143213667Y-76176144D01*
X143000530Y-76142093D01*
X142818790Y-76093424D01*
X142689986Y-76047875D01*
X142398957Y-75918059D01*
X142216449Y-75767847D01*
X142075907Y-75537207D01*
X142040470Y-75462001D01*
X142001869Y-75373375D01*
X141968884Y-75279565D01*
X141941022Y-75166346D01*
X141917788Y-75019494D01*
X141898689Y-74824786D01*
X141883231Y-74567995D01*
X141870918Y-74234900D01*
X141861257Y-73811274D01*
X141853754Y-73282895D01*
X141847914Y-72635537D01*
X141843243Y-71854977D01*
X141839247Y-70926991D01*
X141835433Y-69837354D01*
X141834428Y-69531694D01*
X141830916Y-68520605D01*
X141827101Y-67538134D01*
X141823083Y-66603289D01*
X141818961Y-65735082D01*
X141814837Y-64952521D01*
X141810808Y-64274618D01*
X141806976Y-63720381D01*
X141803440Y-63308821D01*
X141800484Y-63069503D01*
X141798155Y-62588229D01*
X142859030Y-62588229D01*
X142859578Y-62710493D01*
X142860647Y-62837469D01*
X142861884Y-63128205D01*
X142863255Y-63566957D01*
X142864726Y-64137981D01*
X142866261Y-64825530D01*
X142867827Y-65613860D01*
X142869389Y-66487228D01*
X142870912Y-67429887D01*
X142872362Y-68426093D01*
X142872766Y-68723920D01*
X142874888Y-69733734D01*
X142878412Y-70695338D01*
X142883183Y-71592887D01*
X142889046Y-72410535D01*
X142895844Y-73132437D01*
X142903425Y-73742748D01*
X142911631Y-74225622D01*
X142920309Y-74565213D01*
X142929302Y-74745676D01*
X142931911Y-74765805D01*
X143023268Y-74971381D01*
X143149008Y-75079939D01*
X143288516Y-75099068D01*
X143575945Y-75115104D01*
X143979727Y-75127100D01*
X144468289Y-75134109D01*
X144992095Y-75135251D01*
X145584825Y-75131746D01*
X146023621Y-75124442D01*
X146334048Y-75110894D01*
X146541670Y-75088658D01*
X146672054Y-75055292D01*
X146750764Y-75008352D01*
X146790864Y-74963319D01*
X146824338Y-74883846D01*
X146851240Y-74735711D01*
X146872132Y-74502758D01*
X146887574Y-74168832D01*
X146898127Y-73717775D01*
X146904352Y-73133433D01*
X146906810Y-72399648D01*
X146906340Y-71637225D01*
X146905194Y-70798044D01*
X146905864Y-70118781D01*
X146909355Y-69579851D01*
X146916673Y-69161668D01*
X146928822Y-68844648D01*
X146946810Y-68609204D01*
X146971640Y-68435752D01*
X147004318Y-68304705D01*
X147045850Y-68196480D01*
X147087368Y-68110733D01*
X147365604Y-67742647D01*
X147663750Y-67516131D01*
X148053236Y-67287878D01*
X152678147Y-67287878D01*
X153108270Y-67529662D01*
X153457708Y-67780347D01*
X153696475Y-68098897D01*
X153738655Y-68180368D01*
X153792636Y-68296625D01*
X153836127Y-68415259D01*
X153870428Y-68556533D01*
X153896840Y-68740706D01*
X153916662Y-68988040D01*
X153931196Y-69318796D01*
X153941740Y-69753235D01*
X153949596Y-70311616D01*
X153956063Y-71014202D01*
X153960734Y-71640881D01*
X153967725Y-72368808D01*
X153977621Y-73043352D01*
X153989835Y-73642533D01*
X154003783Y-74144369D01*
X154018877Y-74526880D01*
X154034532Y-74768084D01*
X154046100Y-74842599D01*
X154090221Y-74925069D01*
X154159620Y-74987709D01*
X154278883Y-75034567D01*
X154472595Y-75069690D01*
X154765342Y-75097125D01*
X155181709Y-75120919D01*
X155746281Y-75145120D01*
X155927054Y-75152239D01*
X157487495Y-75213145D01*
X157711928Y-74988712D01*
X157818681Y-74862694D01*
X157891582Y-74711186D01*
X157941724Y-74491874D01*
X157980200Y-74162447D01*
X158003717Y-73875725D01*
X158018607Y-73558181D01*
X158027938Y-73092563D01*
X158031703Y-72510212D01*
X158029893Y-71842474D01*
X158022500Y-71120693D01*
X158009516Y-70376211D01*
X158004690Y-70159963D01*
X157989692Y-69378909D01*
X157977686Y-68463683D01*
X157968927Y-67459600D01*
X157963667Y-66411973D01*
X157962161Y-65366114D01*
X157964662Y-64367336D01*
X157968744Y-63742648D01*
X157975192Y-62926479D01*
X157980509Y-62140861D01*
X157984597Y-61409841D01*
X157987357Y-60757466D01*
X157988691Y-60207783D01*
X157988502Y-59784839D01*
X157986691Y-59512682D01*
X157986144Y-59479397D01*
X157978883Y-59068277D01*
X157971059Y-58567962D01*
X157964062Y-58068749D01*
X157962324Y-57932056D01*
X157954286Y-57539677D01*
X157926185Y-57244443D01*
X157855561Y-57032859D01*
X157719950Y-56891430D01*
X157496891Y-56806661D01*
X157163922Y-56765057D01*
X156698581Y-56753124D01*
X156078405Y-56757365D01*
X156008374Y-56758144D01*
X155334016Y-56772873D01*
X154829392Y-56800617D01*
X154485151Y-56842116D01*
X154300504Y-56893823D01*
X154050892Y-57013300D01*
X153987860Y-59749705D01*
X153969790Y-60522070D01*
X153953753Y-61136850D01*
X153937686Y-61615919D01*
X153919528Y-61981153D01*
X153897218Y-62254424D01*
X153868694Y-62457607D01*
X153831893Y-62612577D01*
X153784754Y-62741207D01*
X153725215Y-62865372D01*
X153687347Y-62937952D01*
X153403039Y-63346645D01*
X153112600Y-63583898D01*
X153000660Y-63643568D01*
X152882045Y-63689638D01*
X152732960Y-63723904D01*
X152529613Y-63748163D01*
X152248211Y-63764209D01*
X151864961Y-63773838D01*
X151356069Y-63778847D01*
X150697744Y-63781030D01*
X150496152Y-63781361D01*
X149789618Y-63781491D01*
X149237490Y-63778411D01*
X148814676Y-63770411D01*
X148496083Y-63755784D01*
X148256618Y-63732822D01*
X148071188Y-63699817D01*
X147914701Y-63655060D01*
X147762064Y-63596845D01*
X147757445Y-63594939D01*
X147484508Y-63467214D01*
X147312323Y-63327043D01*
X147181996Y-63114041D01*
X147095092Y-62915803D01*
X147023060Y-62732442D01*
X146971735Y-62562079D01*
X146938847Y-62372512D01*
X146922129Y-62131541D01*
X146919309Y-61806962D01*
X146928121Y-61366575D01*
X146945714Y-60795854D01*
X146960115Y-60171991D01*
X146964945Y-59515415D01*
X146960438Y-58885387D01*
X146946833Y-58341165D01*
X146934922Y-58089131D01*
X146906405Y-57634880D01*
X146879322Y-57326620D01*
X146844967Y-57131125D01*
X146794631Y-57015168D01*
X146719608Y-56945521D01*
X146621743Y-56893996D01*
X146422825Y-56839125D01*
X146084899Y-56801987D01*
X145594071Y-56781555D01*
X145031071Y-56776572D01*
X144289892Y-56790394D01*
X143717519Y-56830889D01*
X143305031Y-56899524D01*
X143043505Y-56997764D01*
X142925611Y-57122768D01*
X142910152Y-57251301D01*
X142897999Y-57528020D01*
X142889825Y-57921624D01*
X142886306Y-58400813D01*
X142887699Y-58882582D01*
X142890509Y-59496719D01*
X142890277Y-60134207D01*
X142887233Y-60738776D01*
X142881607Y-61254152D01*
X142877048Y-61498832D01*
X142868093Y-61925056D01*
X142861857Y-62304200D01*
X142859030Y-62588229D01*
X141798155Y-62588229D01*
X141798111Y-62579344D01*
X141805232Y-62065370D01*
X141820367Y-61610504D01*
X141829416Y-61446937D01*
X141843747Y-60992391D01*
X141836853Y-60477896D01*
X141813176Y-60055771D01*
X141793697Y-59688039D01*
X141785031Y-59202468D01*
X141787500Y-58660416D01*
X141801428Y-58123241D01*
X141802808Y-58088231D01*
X141825560Y-57580757D01*
X141850508Y-57215690D01*
X141884262Y-56955984D01*
X141933434Y-56764596D01*
X142004636Y-56604480D01*
X142094423Y-56454293D01*
X142250939Y-56238857D01*
X142422861Y-56093833D01*
X142668832Y-55979833D01*
X142929588Y-55893339D01*
X143182182Y-55823210D01*
X143437800Y-55773510D01*
X143733498Y-55741171D01*
X144106332Y-55723125D01*
X144593359Y-55716305D01*
X145062643Y-55716742D01*
X145777888Y-55726621D01*
X146338845Y-55753711D01*
X146770443Y-55805052D01*
X147097612Y-55887683D01*
X147345282Y-56008645D01*
X147538380Y-56174976D01*
X147701837Y-56393716D01*
X147752114Y-56476202D01*
X148009588Y-56914431D01*
X148014717Y-59685050D01*
X148017524Y-60489808D01*
X148023190Y-61132906D01*
X148032529Y-61632179D01*
X148046357Y-62005460D01*
X148065490Y-62270585D01*
X148090744Y-62445387D01*
X148122933Y-62547700D01*
X148147257Y-62583081D01*
X148220614Y-62624741D01*
X148360384Y-62656677D01*
X148586810Y-62680023D01*
X148920138Y-62695915D01*
X149380612Y-62705488D01*
X149988478Y-62709876D01*
X150420252Y-62710493D01*
X152565835Y-62710493D01*
X152707421Y-62494406D01*
X152750124Y-62403761D01*
X152784875Y-62262437D01*
X152812979Y-62050630D01*
X152835741Y-61748537D01*
X152854466Y-61336357D01*
X152870459Y-60794286D01*
X152885025Y-60102522D01*
X152892259Y-59689635D01*
X152907585Y-58884875D01*
X152925126Y-58234269D01*
X152946855Y-57712466D01*
X152974745Y-57294116D01*
X153010769Y-56953867D01*
X153056897Y-56666369D01*
X153115105Y-56406270D01*
X153160804Y-56238316D01*
X153272214Y-56131949D01*
X153536124Y-56008089D01*
X153873502Y-55894483D01*
X154162816Y-55816448D01*
X154448143Y-55760642D01*
X154769530Y-55723187D01*
X155167027Y-55700208D01*
X155680679Y-55687827D01*
X156047908Y-55683971D01*
X156626728Y-55682240D01*
X157061341Y-55689018D01*
G36*
X101030763Y-55431652D02*
G01*
X101301772Y-55494474D01*
X101469820Y-55540526D01*
X101888593Y-55683421D01*
X102208371Y-55866935D01*
X102454900Y-56080359D01*
X102672089Y-56320341D01*
X102832676Y-56547090D01*
X102887491Y-56666648D01*
X102942699Y-56814031D01*
X103063236Y-57092633D01*
X103235508Y-57472451D01*
X103445920Y-57923479D01*
X103664746Y-58382262D01*
X103917142Y-58911536D01*
X104161818Y-59434638D01*
X104379904Y-59910501D01*
X104552533Y-60298053D01*
X104643055Y-60511553D01*
X104930270Y-61214380D01*
X105164788Y-61775588D01*
X105358147Y-62221176D01*
X105521884Y-62577145D01*
X105667537Y-62869494D01*
X105787544Y-63090582D01*
X105937347Y-63373630D01*
X106042261Y-63605615D01*
X106078101Y-63727921D01*
X106117880Y-63871578D01*
X106220093Y-64109477D01*
X106310498Y-64290234D01*
X106568830Y-64782445D01*
X106775474Y-65187101D01*
X106957788Y-65560972D01*
X107143128Y-65960831D01*
X107358852Y-66443450D01*
X107473891Y-66704486D01*
X107677789Y-67161235D01*
X107875012Y-67590449D01*
X108045579Y-67949466D01*
X108169510Y-68195624D01*
X108188467Y-68230281D01*
X108344556Y-68541107D01*
X108500805Y-68902305D01*
X108552686Y-69038054D01*
X108667374Y-69331958D01*
X108777942Y-69579282D01*
X108824360Y-69666323D01*
X108894086Y-69802944D01*
X109022255Y-70074769D01*
X109195440Y-70452513D01*
X109400213Y-70906889D01*
X109622756Y-71407723D01*
X109853577Y-71922567D01*
X110075174Y-72401911D01*
X110271859Y-72812927D01*
X110427941Y-73122789D01*
X110523638Y-73292529D01*
X110656731Y-73548986D01*
X110796201Y-73901177D01*
X110903453Y-74243708D01*
X110993225Y-74622912D01*
X111025010Y-74913881D01*
X111003856Y-75196455D01*
X110974249Y-75363365D01*
X110910147Y-75647224D01*
X110829735Y-75812606D01*
X110685301Y-75917774D01*
X110438593Y-76017478D01*
X110142109Y-76088194D01*
X109706972Y-76141502D01*
X109173198Y-76177312D01*
X108580801Y-76195535D01*
X107969798Y-76196079D01*
X107380204Y-76178856D01*
X106852034Y-76143774D01*
X106425303Y-76090744D01*
X106159708Y-76027116D01*
X105689577Y-75772737D01*
X105247747Y-75371753D01*
X104867674Y-74856991D01*
X104748444Y-74642396D01*
X104548573Y-74309479D01*
X104326981Y-74087767D01*
X104100923Y-73951025D01*
X103989976Y-73896616D01*
X103880118Y-73853085D01*
X103751269Y-73819392D01*
X103583347Y-73794495D01*
X103356272Y-73777354D01*
X103049963Y-73766929D01*
X102644339Y-73762178D01*
X102119320Y-73762062D01*
X101454823Y-73765538D01*
X100637089Y-73771520D01*
X97571688Y-73794945D01*
X97379849Y-74019327D01*
X97232147Y-74223431D01*
X97052536Y-74514369D01*
X96928907Y-74737348D01*
X96559801Y-75295887D01*
X96108688Y-75741752D01*
X95608537Y-76042787D01*
X95577041Y-76055802D01*
X95420408Y-76111639D01*
X95251163Y-76151405D01*
X95040366Y-76176531D01*
X94759075Y-76188449D01*
X94378350Y-76188590D01*
X93869250Y-76178386D01*
X93378101Y-76164577D01*
X92805894Y-76142798D01*
X92275226Y-76113932D01*
X91819813Y-76080490D01*
X91473368Y-76044983D01*
X91269607Y-76009919D01*
X91259277Y-76006826D01*
X91062937Y-75925537D01*
X90942212Y-75804712D01*
X90854002Y-75589289D01*
X90809518Y-75432247D01*
X90683531Y-74961729D01*
X90474483Y-75299562D01*
X90271730Y-75553909D01*
X89996505Y-75812861D01*
X89861066Y-75915609D01*
X89456696Y-76193823D01*
X87693428Y-76178913D01*
X87081838Y-76172553D01*
X86619172Y-76163107D01*
X86274848Y-76147361D01*
X86018285Y-76122102D01*
X85818901Y-76084115D01*
X85646114Y-76030189D01*
X85469343Y-75957109D01*
X85434461Y-75941546D01*
X85062484Y-75735431D01*
X84799023Y-75481989D01*
X84693237Y-75330999D01*
X84447712Y-74942907D01*
X84447712Y-71847324D01*
X84447416Y-71020270D01*
X84445810Y-70354079D01*
X84441816Y-69830110D01*
X84434356Y-69429719D01*
X84422353Y-69134266D01*
X84404729Y-68925109D01*
X84380406Y-68783605D01*
X84348307Y-68691112D01*
X84307353Y-68628989D01*
X84258867Y-68580764D01*
X84182478Y-68524176D01*
X84078386Y-68480752D01*
X83922393Y-68448221D01*
X83690297Y-68424315D01*
X83357898Y-68406766D01*
X82900997Y-68393305D01*
X82295393Y-68381664D01*
X82101261Y-68378507D01*
X81513059Y-68371597D01*
X80975850Y-68369873D01*
X80518970Y-68373063D01*
X80171758Y-68380893D01*
X79963552Y-68393088D01*
X79927048Y-68398793D01*
X79816924Y-68436214D01*
X79727568Y-68499159D01*
X79656979Y-68604892D01*
X79603159Y-68770676D01*
X79564108Y-69013774D01*
X79537826Y-69351450D01*
X79522314Y-69800966D01*
X79515571Y-70379585D01*
X79515598Y-71104572D01*
X79519872Y-71913955D01*
X79524563Y-72731863D01*
X79526202Y-73390921D01*
X79523867Y-73911770D01*
X79516634Y-74315052D01*
X79503582Y-74621409D01*
X79483788Y-74851482D01*
X79456329Y-75025914D01*
X79420283Y-75165346D01*
X79374728Y-75290420D01*
X79368258Y-75306218D01*
X79219216Y-75591567D01*
X79016557Y-75797946D01*
X78748419Y-75965340D01*
X78592545Y-76048061D01*
X78451176Y-76109748D01*
X78295569Y-76153551D01*
X78096981Y-76182626D01*
X77826667Y-76200125D01*
X77455885Y-76209202D01*
X76955891Y-76213010D01*
X76479014Y-76214305D01*
X75856119Y-76214466D01*
X75384395Y-76210228D01*
X75035516Y-76199132D01*
X74781160Y-76178719D01*
X74593000Y-76146531D01*
X74442714Y-76100107D01*
X74301976Y-76036990D01*
X74273891Y-76022864D01*
X73962476Y-75807173D01*
X73692142Y-75525393D01*
X73653216Y-75470547D01*
X73417021Y-75113633D01*
X73416286Y-74747160D01*
X74428802Y-74747160D01*
X74617565Y-74950840D01*
X74693474Y-75024391D01*
X74782835Y-75077901D01*
X74913574Y-75114734D01*
X75113616Y-75138254D01*
X75410889Y-75151827D01*
X75833318Y-75158817D01*
X76373487Y-75162413D01*
X76895453Y-75162613D01*
X77362308Y-75158231D01*
X77741328Y-75149935D01*
X77999788Y-75138391D01*
X78097807Y-75127254D01*
X78193569Y-75090883D01*
X78270932Y-75027920D01*
X78331675Y-74920850D01*
X78377575Y-74752155D01*
X78410411Y-74504319D01*
X78431960Y-74159825D01*
X78443999Y-73701156D01*
X78448308Y-73110795D01*
X78446663Y-72371225D01*
X78442737Y-71728701D01*
X78437704Y-70912202D01*
X78435820Y-70254275D01*
X78438016Y-69733999D01*
X78445222Y-69330455D01*
X78458369Y-69022721D01*
X78478388Y-68789879D01*
X78506211Y-68611009D01*
X78542769Y-68465189D01*
X78588992Y-68331501D01*
X78594572Y-68316984D01*
X78759208Y-67988284D01*
X78992418Y-67733164D01*
X79206519Y-67573307D01*
X79645945Y-67275343D01*
X84313083Y-67339731D01*
X84720197Y-67580332D01*
X85094730Y-67879337D01*
X85326028Y-68229952D01*
X85379558Y-68345766D01*
X85422500Y-68462970D01*
X85456021Y-68601831D01*
X85481285Y-68782617D01*
X85499457Y-69025598D01*
X85511704Y-69351042D01*
X85519190Y-69779217D01*
X85523080Y-70330392D01*
X85524541Y-71024836D01*
X85524744Y-71686090D01*
X85524744Y-74733210D01*
X85767072Y-74892346D01*
X85886412Y-74952856D01*
X86053471Y-74998923D01*
X86295989Y-75033668D01*
X86641707Y-75060216D01*
X87118366Y-75081690D01*
X87578953Y-75096358D01*
X88152218Y-75111178D01*
X88574278Y-75116741D01*
X88873281Y-75111169D01*
X89077375Y-75092580D01*
X89214709Y-75059095D01*
X89313432Y-75008833D01*
X89356059Y-74977653D01*
X89547487Y-74826781D01*
X91837332Y-74826781D01*
X91843153Y-74970242D01*
X91892369Y-75016181D01*
X92014417Y-75049967D01*
X92231405Y-75073236D01*
X92565441Y-75087622D01*
X93038635Y-75094763D01*
X93547903Y-75096358D01*
X95204257Y-75096358D01*
X95485157Y-74859997D01*
X95682101Y-74647555D01*
X95895167Y-74347752D01*
X96027675Y-74119537D01*
X96219327Y-73789939D01*
X96434628Y-73477219D01*
X96566639Y-73316503D01*
X96770020Y-73141960D01*
X97045585Y-72961177D01*
X97346422Y-72798054D01*
X97625615Y-72676494D01*
X97836250Y-72620400D01*
X97913813Y-72630140D01*
X98020263Y-72642270D01*
X98284146Y-72653231D01*
X98683392Y-72662663D01*
X99195932Y-72670204D01*
X99799696Y-72675493D01*
X100472613Y-72678168D01*
X100860856Y-72678396D01*
X101665198Y-72678688D01*
X102311962Y-72681379D01*
X102823069Y-72687608D01*
X103220441Y-72698514D01*
X103526001Y-72715237D01*
X103761670Y-72738915D01*
X103949371Y-72770688D01*
X104111025Y-72811694D01*
X104242773Y-72854125D01*
X104632288Y-73019630D01*
X105004181Y-73232086D01*
X105316404Y-73462076D01*
X105526913Y-73680182D01*
X105587450Y-73794945D01*
X105796160Y-74318357D01*
X106073575Y-74715162D01*
X106193101Y-74825771D01*
X106372064Y-74944135D01*
X106586021Y-75022559D01*
X106885922Y-75074799D01*
X107239692Y-75108369D01*
X107678269Y-75132700D01*
X108126955Y-75141960D01*
X108497443Y-75134532D01*
X108537026Y-75132137D01*
X108924361Y-75111425D01*
X109321727Y-75098508D01*
X109501867Y-75096358D01*
X109763677Y-75088107D01*
X109892470Y-75048263D01*
X109934513Y-74954194D01*
X109937465Y-74883261D01*
X109893056Y-74589377D01*
X109780547Y-74236843D01*
X109631015Y-73908407D01*
X109495983Y-73707748D01*
X109340461Y-73479870D01*
X109263042Y-73301305D01*
X109181033Y-73087607D01*
X109050336Y-72804965D01*
X108983468Y-72673751D01*
X108861196Y-72428710D01*
X108784252Y-72248794D01*
X108770680Y-72197442D01*
X108734705Y-72092197D01*
X108634648Y-71850526D01*
X108482314Y-71498677D01*
X108289509Y-71062902D01*
X108068036Y-70569448D01*
X107829700Y-70044565D01*
X107586306Y-69514503D01*
X107349659Y-69005511D01*
X107131563Y-68543839D01*
X107067331Y-68409786D01*
X106704095Y-67649444D01*
X106420763Y-67044100D01*
X106215210Y-66589085D01*
X106085312Y-66279730D01*
X106038799Y-66149150D01*
X105971694Y-65987923D01*
X105839453Y-65714800D01*
X105664298Y-65374700D01*
X105550398Y-65161871D01*
X105359794Y-64798515D01*
X105199563Y-64470390D01*
X105092144Y-64224590D01*
X105063070Y-64139062D01*
X104986255Y-63929048D01*
X104852749Y-63644204D01*
X104757912Y-63465918D01*
X104595245Y-63153746D01*
X104402582Y-62741668D01*
X104171819Y-62211198D01*
X103894854Y-61543852D01*
X103654867Y-60949722D01*
X103500346Y-60584892D01*
X103296386Y-60132071D01*
X103075656Y-59662893D01*
X102958994Y-59423927D01*
X102764920Y-59026343D01*
X102589364Y-58655162D01*
X102455371Y-58359732D01*
X102398045Y-58222860D01*
X102266973Y-57935758D01*
X102117602Y-57676771D01*
X102113314Y-57670489D01*
X101997242Y-57459739D01*
X101949479Y-57290456D01*
X101871519Y-57066973D01*
X101671640Y-56839575D01*
X101400840Y-56652524D01*
X101110119Y-56550083D01*
X101093619Y-56547656D01*
X100624546Y-56556774D01*
X100245761Y-56720245D01*
X99961242Y-57035911D01*
X99872206Y-57210111D01*
X99779173Y-57415048D01*
X99621004Y-57751455D01*
X99411847Y-58189757D01*
X99165853Y-58700378D01*
X98897170Y-59253743D01*
X98765072Y-59524274D01*
X98453436Y-60169445D01*
X98125148Y-60863246D01*
X97803599Y-61555267D01*
X97512181Y-62195095D01*
X97274286Y-62732319D01*
X97244961Y-62800245D01*
X96982682Y-63398266D01*
X96681641Y-64065390D01*
X96374883Y-64729460D01*
X96095452Y-65318319D01*
X96032454Y-65447948D01*
X95646055Y-66240393D01*
X95335976Y-66881611D01*
X95097914Y-67380758D01*
X94927571Y-67746988D01*
X94820644Y-67989459D01*
X94772835Y-68117326D01*
X94769267Y-68137221D01*
X94728861Y-68278855D01*
X94614235Y-68557443D01*
X94435279Y-68951355D01*
X94201880Y-69438963D01*
X93923926Y-69998639D01*
X93864992Y-70115086D01*
X93616613Y-70623921D01*
X93351767Y-71198266D01*
X93108923Y-71753341D01*
X92983224Y-72058299D01*
X92808089Y-72475727D01*
X92630660Y-72860649D01*
X92474327Y-73164234D01*
X92382194Y-73313000D01*
X92248529Y-73544230D01*
X92110590Y-73862321D01*
X91984997Y-74216175D01*
X91888371Y-74554694D01*
X91837332Y-74826781D01*
X89547487Y-74826781D01*
X89563613Y-74814072D01*
X89563613Y-65952228D01*
X89563163Y-64429285D01*
X89561738Y-63077031D01*
X89559229Y-61886654D01*
X89555526Y-60849341D01*
X89550519Y-59956277D01*
X89544099Y-59198651D01*
X89536156Y-58567649D01*
X89526579Y-58054456D01*
X89515259Y-57650261D01*
X89502087Y-57346250D01*
X89486952Y-57133610D01*
X89469744Y-57003527D01*
X89451422Y-56948447D01*
X89379598Y-56894442D01*
X89244334Y-56852875D01*
X89020958Y-56820983D01*
X88684793Y-56796003D01*
X88211167Y-56775171D01*
X87782017Y-56761501D01*
X87096939Y-56746669D01*
X86569860Y-56748942D01*
X86179805Y-56771615D01*
X85905800Y-56817984D01*
X85726869Y-56891344D01*
X85622040Y-56994992D01*
X85575834Y-57108149D01*
X85562910Y-57254798D01*
X85554833Y-57555738D01*
X85551621Y-57985818D01*
X85553294Y-58519890D01*
X85559870Y-59132803D01*
X85571369Y-59799407D01*
X85573707Y-59911273D01*
X85628877Y-62486111D01*
X85389039Y-62913497D01*
X85051178Y-63348381D01*
X84752297Y-63573484D01*
X84355393Y-63806085D01*
X82045545Y-63815708D01*
X81336301Y-63817876D01*
X80782117Y-63816675D01*
X80358559Y-63810482D01*
X80041191Y-63797677D01*
X79805578Y-63776638D01*
X79627284Y-63745742D01*
X79481874Y-63703368D01*
X79344912Y-63647895D01*
X79315054Y-63634482D01*
X78988231Y-63441559D01*
X78764033Y-63181480D01*
X78692079Y-63054625D01*
X78635478Y-62940177D01*
X78590502Y-62824448D01*
X78555769Y-62686211D01*
X78529898Y-62504242D01*
X78511507Y-62257314D01*
X78499215Y-61924202D01*
X78491642Y-61483681D01*
X78487405Y-60914525D01*
X78485123Y-60195510D01*
X78484454Y-59864071D01*
X78481982Y-59068120D01*
X78477267Y-58432752D01*
X78469360Y-57939047D01*
X78457311Y-57568088D01*
X78440171Y-57300955D01*
X78416989Y-57118731D01*
X78386817Y-57002496D01*
X78348704Y-56933333D01*
X78336676Y-56920021D01*
X78254172Y-56867139D01*
X78109779Y-56826119D01*
X77879251Y-56794448D01*
X77538338Y-56769612D01*
X77062794Y-56749098D01*
X76534217Y-56733170D01*
X75946025Y-56718645D01*
X75509821Y-56712324D01*
X75198200Y-56716125D01*
X74983756Y-56731967D01*
X74839083Y-56761767D01*
X74736775Y-56807442D01*
X74657267Y-56864519D01*
X74440292Y-57040214D01*
X74428802Y-74747160D01*
X73416286Y-74747160D01*
X73380523Y-56921447D01*
X73610031Y-56470359D01*
X73774128Y-56188685D01*
X73952749Y-56009131D01*
X74215466Y-55868403D01*
X74319420Y-55824964D01*
X74494120Y-55758797D01*
X74663958Y-55710377D01*
X74858688Y-55677618D01*
X75108066Y-55658430D01*
X75441848Y-55650726D01*
X75889787Y-55652418D01*
X76481639Y-55661419D01*
X76615646Y-55663834D01*
X77236926Y-55676361D01*
X77706846Y-55690204D01*
X78053545Y-55708464D01*
X78305160Y-55734240D01*
X78489827Y-55770633D01*
X78635686Y-55820741D01*
X78770872Y-55887666D01*
X78801412Y-55904637D01*
X79148332Y-56180476D01*
X79360581Y-56471979D01*
X79413664Y-56580134D01*
X79455846Y-56695056D01*
X79488402Y-56837751D01*
X79512608Y-57029225D01*
X79529740Y-57290484D01*
X79541074Y-57642533D01*
X79547885Y-58106379D01*
X79551450Y-58703026D01*
X79553044Y-59453481D01*
X79553260Y-59644217D01*
X79556193Y-62456739D01*
X79776954Y-62635679D01*
X79863625Y-62697778D01*
X79965376Y-62742443D01*
X80109179Y-62771502D01*
X80322002Y-62786782D01*
X80630815Y-62790113D01*
X81062589Y-62783322D01*
X81644292Y-62768237D01*
X81706636Y-62766487D01*
X82270730Y-62750951D01*
X82798378Y-62737066D01*
X83253334Y-62725736D01*
X83599354Y-62717866D01*
X83793509Y-62714424D01*
X84119172Y-62668237D01*
X84346359Y-62522415D01*
X84359498Y-62508659D01*
X84412860Y-62446460D01*
X84454575Y-62374032D01*
X84485612Y-62271011D01*
X84506938Y-62117030D01*
X84519519Y-61891724D01*
X84524323Y-61574728D01*
X84522317Y-61145677D01*
X84514468Y-60584205D01*
X84501743Y-59869946D01*
X84496956Y-59614136D01*
X84446376Y-56921447D01*
X84693864Y-56431141D01*
X84845253Y-56152869D01*
X84981235Y-55990250D01*
X85158154Y-55894396D01*
X85390115Y-55827042D01*
X85681643Y-55780393D01*
X86134767Y-55744957D01*
X86731874Y-55721665D01*
X87455351Y-55711443D01*
X87589055Y-55711073D01*
X88335203Y-55715017D01*
X88924545Y-55732974D01*
X89379606Y-55771034D01*
X89722909Y-55835283D01*
X89976979Y-55931809D01*
X90164340Y-56066701D01*
X90307516Y-56246047D01*
X90429031Y-56475933D01*
X90430462Y-56479050D01*
X90639088Y-56934180D01*
X90642404Y-65835764D01*
X90643223Y-67083137D01*
X90644700Y-68278555D01*
X90646780Y-69409950D01*
X90649412Y-70465259D01*
X90652540Y-71432414D01*
X90656113Y-72299350D01*
X90660077Y-73054001D01*
X90664379Y-73684302D01*
X90668965Y-74178187D01*
X90673782Y-74523589D01*
X90678778Y-74708443D01*
X90681690Y-74737348D01*
X90722752Y-74658503D01*
X90792961Y-74453733D01*
X90861742Y-74221270D01*
X91095801Y-73499933D01*
X91349210Y-72946896D01*
X91493232Y-72717913D01*
X91613733Y-72510732D01*
X91768428Y-72192301D01*
X91930030Y-71820018D01*
X91983903Y-71685758D01*
X92127226Y-71340294D01*
X92329128Y-70881140D01*
X92568321Y-70355367D01*
X92823514Y-69810041D01*
X92978470Y-69486818D01*
X93208872Y-69005951D01*
X93414356Y-68567226D01*
X93580706Y-68201774D01*
X93693708Y-67940729D01*
X93736597Y-67826394D01*
X93802206Y-67646451D01*
X93924354Y-67354609D01*
X94080830Y-67000277D01*
X94249425Y-66632867D01*
X94407926Y-66301787D01*
X94523321Y-66076217D01*
X94620814Y-65886515D01*
X94785256Y-65555074D01*
X95006635Y-65102321D01*
X95274938Y-64548687D01*
X95447142Y-64191411D01*
X95553641Y-63962117D01*
X95715011Y-63604692D01*
X95914917Y-63155785D01*
X96137024Y-62652045D01*
X96328613Y-62213768D01*
X96583345Y-61640433D01*
X96892741Y-60962586D01*
X97230807Y-60236080D01*
X97571549Y-59516765D01*
X97888974Y-58860494D01*
X97895078Y-58848043D01*
X98158072Y-58306813D01*
X98395960Y-57807735D01*
X98596486Y-57377296D01*
X98747392Y-57041984D01*
X98836420Y-56828287D01*
X98853505Y-56776973D01*
X98997793Y-56487415D01*
X99270182Y-56179844D01*
X99627717Y-55890668D01*
X100027442Y-55656295D01*
X100307006Y-55545062D01*
X100607364Y-55456657D01*
X100823955Y-55418950D01*
X101030763Y-55431652D01*
G37*
X101030763Y-55431652D02*
X101301772Y-55494474D01*
X101469820Y-55540526D01*
X101888593Y-55683421D01*
X102208371Y-55866935D01*
X102454900Y-56080359D01*
X102672089Y-56320341D01*
X102832676Y-56547090D01*
X102887491Y-56666648D01*
X102942699Y-56814031D01*
X103063236Y-57092633D01*
X103235508Y-57472451D01*
X103445920Y-57923479D01*
X103664746Y-58382262D01*
X103917142Y-58911536D01*
X104161818Y-59434638D01*
X104379904Y-59910501D01*
X104552533Y-60298053D01*
X104643055Y-60511553D01*
X104930270Y-61214380D01*
X105164788Y-61775588D01*
X105358147Y-62221176D01*
X105521884Y-62577145D01*
X105667537Y-62869494D01*
X105787544Y-63090582D01*
X105937347Y-63373630D01*
X106042261Y-63605615D01*
X106078101Y-63727921D01*
X106117880Y-63871578D01*
X106220093Y-64109477D01*
X106310498Y-64290234D01*
X106568830Y-64782445D01*
X106775474Y-65187101D01*
X106957788Y-65560972D01*
X107143128Y-65960831D01*
X107358852Y-66443450D01*
X107473891Y-66704486D01*
X107677789Y-67161235D01*
X107875012Y-67590449D01*
X108045579Y-67949466D01*
X108169510Y-68195624D01*
X108188467Y-68230281D01*
X108344556Y-68541107D01*
X108500805Y-68902305D01*
X108552686Y-69038054D01*
X108667374Y-69331958D01*
X108777942Y-69579282D01*
X108824360Y-69666323D01*
X108894086Y-69802944D01*
X109022255Y-70074769D01*
X109195440Y-70452513D01*
X109400213Y-70906889D01*
X109622756Y-71407723D01*
X109853577Y-71922567D01*
X110075174Y-72401911D01*
X110271859Y-72812927D01*
X110427941Y-73122789D01*
X110523638Y-73292529D01*
X110656731Y-73548986D01*
X110796201Y-73901177D01*
X110903453Y-74243708D01*
X110993225Y-74622912D01*
X111025010Y-74913881D01*
X111003856Y-75196455D01*
X110974249Y-75363365D01*
X110910147Y-75647224D01*
X110829735Y-75812606D01*
X110685301Y-75917774D01*
X110438593Y-76017478D01*
X110142109Y-76088194D01*
X109706972Y-76141502D01*
X109173198Y-76177312D01*
X108580801Y-76195535D01*
X107969798Y-76196079D01*
X107380204Y-76178856D01*
X106852034Y-76143774D01*
X106425303Y-76090744D01*
X106159708Y-76027116D01*
X105689577Y-75772737D01*
X105247747Y-75371753D01*
X104867674Y-74856991D01*
X104748444Y-74642396D01*
X104548573Y-74309479D01*
X104326981Y-74087767D01*
X104100923Y-73951025D01*
X103989976Y-73896616D01*
X103880118Y-73853085D01*
X103751269Y-73819392D01*
X103583347Y-73794495D01*
X103356272Y-73777354D01*
X103049963Y-73766929D01*
X102644339Y-73762178D01*
X102119320Y-73762062D01*
X101454823Y-73765538D01*
X100637089Y-73771520D01*
X97571688Y-73794945D01*
X97379849Y-74019327D01*
X97232147Y-74223431D01*
X97052536Y-74514369D01*
X96928907Y-74737348D01*
X96559801Y-75295887D01*
X96108688Y-75741752D01*
X95608537Y-76042787D01*
X95577041Y-76055802D01*
X95420408Y-76111639D01*
X95251163Y-76151405D01*
X95040366Y-76176531D01*
X94759075Y-76188449D01*
X94378350Y-76188590D01*
X93869250Y-76178386D01*
X93378101Y-76164577D01*
X92805894Y-76142798D01*
X92275226Y-76113932D01*
X91819813Y-76080490D01*
X91473368Y-76044983D01*
X91269607Y-76009919D01*
X91259277Y-76006826D01*
X91062937Y-75925537D01*
X90942212Y-75804712D01*
X90854002Y-75589289D01*
X90809518Y-75432247D01*
X90683531Y-74961729D01*
X90474483Y-75299562D01*
X90271730Y-75553909D01*
X89996505Y-75812861D01*
X89861066Y-75915609D01*
X89456696Y-76193823D01*
X87693428Y-76178913D01*
X87081838Y-76172553D01*
X86619172Y-76163107D01*
X86274848Y-76147361D01*
X86018285Y-76122102D01*
X85818901Y-76084115D01*
X85646114Y-76030189D01*
X85469343Y-75957109D01*
X85434461Y-75941546D01*
X85062484Y-75735431D01*
X84799023Y-75481989D01*
X84693237Y-75330999D01*
X84447712Y-74942907D01*
X84447712Y-71847324D01*
X84447416Y-71020270D01*
X84445810Y-70354079D01*
X84441816Y-69830110D01*
X84434356Y-69429719D01*
X84422353Y-69134266D01*
X84404729Y-68925109D01*
X84380406Y-68783605D01*
X84348307Y-68691112D01*
X84307353Y-68628989D01*
X84258867Y-68580764D01*
X84182478Y-68524176D01*
X84078386Y-68480752D01*
X83922393Y-68448221D01*
X83690297Y-68424315D01*
X83357898Y-68406766D01*
X82900997Y-68393305D01*
X82295393Y-68381664D01*
X82101261Y-68378507D01*
X81513059Y-68371597D01*
X80975850Y-68369873D01*
X80518970Y-68373063D01*
X80171758Y-68380893D01*
X79963552Y-68393088D01*
X79927048Y-68398793D01*
X79816924Y-68436214D01*
X79727568Y-68499159D01*
X79656979Y-68604892D01*
X79603159Y-68770676D01*
X79564108Y-69013774D01*
X79537826Y-69351450D01*
X79522314Y-69800966D01*
X79515571Y-70379585D01*
X79515598Y-71104572D01*
X79519872Y-71913955D01*
X79524563Y-72731863D01*
X79526202Y-73390921D01*
X79523867Y-73911770D01*
X79516634Y-74315052D01*
X79503582Y-74621409D01*
X79483788Y-74851482D01*
X79456329Y-75025914D01*
X79420283Y-75165346D01*
X79374728Y-75290420D01*
X79368258Y-75306218D01*
X79219216Y-75591567D01*
X79016557Y-75797946D01*
X78748419Y-75965340D01*
X78592545Y-76048061D01*
X78451176Y-76109748D01*
X78295569Y-76153551D01*
X78096981Y-76182626D01*
X77826667Y-76200125D01*
X77455885Y-76209202D01*
X76955891Y-76213010D01*
X76479014Y-76214305D01*
X75856119Y-76214466D01*
X75384395Y-76210228D01*
X75035516Y-76199132D01*
X74781160Y-76178719D01*
X74593000Y-76146531D01*
X74442714Y-76100107D01*
X74301976Y-76036990D01*
X74273891Y-76022864D01*
X73962476Y-75807173D01*
X73692142Y-75525393D01*
X73653216Y-75470547D01*
X73417021Y-75113633D01*
X73416286Y-74747160D01*
X74428802Y-74747160D01*
X74617565Y-74950840D01*
X74693474Y-75024391D01*
X74782835Y-75077901D01*
X74913574Y-75114734D01*
X75113616Y-75138254D01*
X75410889Y-75151827D01*
X75833318Y-75158817D01*
X76373487Y-75162413D01*
X76895453Y-75162613D01*
X77362308Y-75158231D01*
X77741328Y-75149935D01*
X77999788Y-75138391D01*
X78097807Y-75127254D01*
X78193569Y-75090883D01*
X78270932Y-75027920D01*
X78331675Y-74920850D01*
X78377575Y-74752155D01*
X78410411Y-74504319D01*
X78431960Y-74159825D01*
X78443999Y-73701156D01*
X78448308Y-73110795D01*
X78446663Y-72371225D01*
X78442737Y-71728701D01*
X78437704Y-70912202D01*
X78435820Y-70254275D01*
X78438016Y-69733999D01*
X78445222Y-69330455D01*
X78458369Y-69022721D01*
X78478388Y-68789879D01*
X78506211Y-68611009D01*
X78542769Y-68465189D01*
X78588992Y-68331501D01*
X78594572Y-68316984D01*
X78759208Y-67988284D01*
X78992418Y-67733164D01*
X79206519Y-67573307D01*
X79645945Y-67275343D01*
X84313083Y-67339731D01*
X84720197Y-67580332D01*
X85094730Y-67879337D01*
X85326028Y-68229952D01*
X85379558Y-68345766D01*
X85422500Y-68462970D01*
X85456021Y-68601831D01*
X85481285Y-68782617D01*
X85499457Y-69025598D01*
X85511704Y-69351042D01*
X85519190Y-69779217D01*
X85523080Y-70330392D01*
X85524541Y-71024836D01*
X85524744Y-71686090D01*
X85524744Y-74733210D01*
X85767072Y-74892346D01*
X85886412Y-74952856D01*
X86053471Y-74998923D01*
X86295989Y-75033668D01*
X86641707Y-75060216D01*
X87118366Y-75081690D01*
X87578953Y-75096358D01*
X88152218Y-75111178D01*
X88574278Y-75116741D01*
X88873281Y-75111169D01*
X89077375Y-75092580D01*
X89214709Y-75059095D01*
X89313432Y-75008833D01*
X89356059Y-74977653D01*
X89547487Y-74826781D01*
X91837332Y-74826781D01*
X91843153Y-74970242D01*
X91892369Y-75016181D01*
X92014417Y-75049967D01*
X92231405Y-75073236D01*
X92565441Y-75087622D01*
X93038635Y-75094763D01*
X93547903Y-75096358D01*
X95204257Y-75096358D01*
X95485157Y-74859997D01*
X95682101Y-74647555D01*
X95895167Y-74347752D01*
X96027675Y-74119537D01*
X96219327Y-73789939D01*
X96434628Y-73477219D01*
X96566639Y-73316503D01*
X96770020Y-73141960D01*
X97045585Y-72961177D01*
X97346422Y-72798054D01*
X97625615Y-72676494D01*
X97836250Y-72620400D01*
X97913813Y-72630140D01*
X98020263Y-72642270D01*
X98284146Y-72653231D01*
X98683392Y-72662663D01*
X99195932Y-72670204D01*
X99799696Y-72675493D01*
X100472613Y-72678168D01*
X100860856Y-72678396D01*
X101665198Y-72678688D01*
X102311962Y-72681379D01*
X102823069Y-72687608D01*
X103220441Y-72698514D01*
X103526001Y-72715237D01*
X103761670Y-72738915D01*
X103949371Y-72770688D01*
X104111025Y-72811694D01*
X104242773Y-72854125D01*
X104632288Y-73019630D01*
X105004181Y-73232086D01*
X105316404Y-73462076D01*
X105526913Y-73680182D01*
X105587450Y-73794945D01*
X105796160Y-74318357D01*
X106073575Y-74715162D01*
X106193101Y-74825771D01*
X106372064Y-74944135D01*
X106586021Y-75022559D01*
X106885922Y-75074799D01*
X107239692Y-75108369D01*
X107678269Y-75132700D01*
X108126955Y-75141960D01*
X108497443Y-75134532D01*
X108537026Y-75132137D01*
X108924361Y-75111425D01*
X109321727Y-75098508D01*
X109501867Y-75096358D01*
X109763677Y-75088107D01*
X109892470Y-75048263D01*
X109934513Y-74954194D01*
X109937465Y-74883261D01*
X109893056Y-74589377D01*
X109780547Y-74236843D01*
X109631015Y-73908407D01*
X109495983Y-73707748D01*
X109340461Y-73479870D01*
X109263042Y-73301305D01*
X109181033Y-73087607D01*
X109050336Y-72804965D01*
X108983468Y-72673751D01*
X108861196Y-72428710D01*
X108784252Y-72248794D01*
X108770680Y-72197442D01*
X108734705Y-72092197D01*
X108634648Y-71850526D01*
X108482314Y-71498677D01*
X108289509Y-71062902D01*
X108068036Y-70569448D01*
X107829700Y-70044565D01*
X107586306Y-69514503D01*
X107349659Y-69005511D01*
X107131563Y-68543839D01*
X107067331Y-68409786D01*
X106704095Y-67649444D01*
X106420763Y-67044100D01*
X106215210Y-66589085D01*
X106085312Y-66279730D01*
X106038799Y-66149150D01*
X105971694Y-65987923D01*
X105839453Y-65714800D01*
X105664298Y-65374700D01*
X105550398Y-65161871D01*
X105359794Y-64798515D01*
X105199563Y-64470390D01*
X105092144Y-64224590D01*
X105063070Y-64139062D01*
X104986255Y-63929048D01*
X104852749Y-63644204D01*
X104757912Y-63465918D01*
X104595245Y-63153746D01*
X104402582Y-62741668D01*
X104171819Y-62211198D01*
X103894854Y-61543852D01*
X103654867Y-60949722D01*
X103500346Y-60584892D01*
X103296386Y-60132071D01*
X103075656Y-59662893D01*
X102958994Y-59423927D01*
X102764920Y-59026343D01*
X102589364Y-58655162D01*
X102455371Y-58359732D01*
X102398045Y-58222860D01*
X102266973Y-57935758D01*
X102117602Y-57676771D01*
X102113314Y-57670489D01*
X101997242Y-57459739D01*
X101949479Y-57290456D01*
X101871519Y-57066973D01*
X101671640Y-56839575D01*
X101400840Y-56652524D01*
X101110119Y-56550083D01*
X101093619Y-56547656D01*
X100624546Y-56556774D01*
X100245761Y-56720245D01*
X99961242Y-57035911D01*
X99872206Y-57210111D01*
X99779173Y-57415048D01*
X99621004Y-57751455D01*
X99411847Y-58189757D01*
X99165853Y-58700378D01*
X98897170Y-59253743D01*
X98765072Y-59524274D01*
X98453436Y-60169445D01*
X98125148Y-60863246D01*
X97803599Y-61555267D01*
X97512181Y-62195095D01*
X97274286Y-62732319D01*
X97244961Y-62800245D01*
X96982682Y-63398266D01*
X96681641Y-64065390D01*
X96374883Y-64729460D01*
X96095452Y-65318319D01*
X96032454Y-65447948D01*
X95646055Y-66240393D01*
X95335976Y-66881611D01*
X95097914Y-67380758D01*
X94927571Y-67746988D01*
X94820644Y-67989459D01*
X94772835Y-68117326D01*
X94769267Y-68137221D01*
X94728861Y-68278855D01*
X94614235Y-68557443D01*
X94435279Y-68951355D01*
X94201880Y-69438963D01*
X93923926Y-69998639D01*
X93864992Y-70115086D01*
X93616613Y-70623921D01*
X93351767Y-71198266D01*
X93108923Y-71753341D01*
X92983224Y-72058299D01*
X92808089Y-72475727D01*
X92630660Y-72860649D01*
X92474327Y-73164234D01*
X92382194Y-73313000D01*
X92248529Y-73544230D01*
X92110590Y-73862321D01*
X91984997Y-74216175D01*
X91888371Y-74554694D01*
X91837332Y-74826781D01*
X89547487Y-74826781D01*
X89563613Y-74814072D01*
X89563613Y-65952228D01*
X89563163Y-64429285D01*
X89561738Y-63077031D01*
X89559229Y-61886654D01*
X89555526Y-60849341D01*
X89550519Y-59956277D01*
X89544099Y-59198651D01*
X89536156Y-58567649D01*
X89526579Y-58054456D01*
X89515259Y-57650261D01*
X89502087Y-57346250D01*
X89486952Y-57133610D01*
X89469744Y-57003527D01*
X89451422Y-56948447D01*
X89379598Y-56894442D01*
X89244334Y-56852875D01*
X89020958Y-56820983D01*
X88684793Y-56796003D01*
X88211167Y-56775171D01*
X87782017Y-56761501D01*
X87096939Y-56746669D01*
X86569860Y-56748942D01*
X86179805Y-56771615D01*
X85905800Y-56817984D01*
X85726869Y-56891344D01*
X85622040Y-56994992D01*
X85575834Y-57108149D01*
X85562910Y-57254798D01*
X85554833Y-57555738D01*
X85551621Y-57985818D01*
X85553294Y-58519890D01*
X85559870Y-59132803D01*
X85571369Y-59799407D01*
X85573707Y-59911273D01*
X85628877Y-62486111D01*
X85389039Y-62913497D01*
X85051178Y-63348381D01*
X84752297Y-63573484D01*
X84355393Y-63806085D01*
X82045545Y-63815708D01*
X81336301Y-63817876D01*
X80782117Y-63816675D01*
X80358559Y-63810482D01*
X80041191Y-63797677D01*
X79805578Y-63776638D01*
X79627284Y-63745742D01*
X79481874Y-63703368D01*
X79344912Y-63647895D01*
X79315054Y-63634482D01*
X78988231Y-63441559D01*
X78764033Y-63181480D01*
X78692079Y-63054625D01*
X78635478Y-62940177D01*
X78590502Y-62824448D01*
X78555769Y-62686211D01*
X78529898Y-62504242D01*
X78511507Y-62257314D01*
X78499215Y-61924202D01*
X78491642Y-61483681D01*
X78487405Y-60914525D01*
X78485123Y-60195510D01*
X78484454Y-59864071D01*
X78481982Y-59068120D01*
X78477267Y-58432752D01*
X78469360Y-57939047D01*
X78457311Y-57568088D01*
X78440171Y-57300955D01*
X78416989Y-57118731D01*
X78386817Y-57002496D01*
X78348704Y-56933333D01*
X78336676Y-56920021D01*
X78254172Y-56867139D01*
X78109779Y-56826119D01*
X77879251Y-56794448D01*
X77538338Y-56769612D01*
X77062794Y-56749098D01*
X76534217Y-56733170D01*
X75946025Y-56718645D01*
X75509821Y-56712324D01*
X75198200Y-56716125D01*
X74983756Y-56731967D01*
X74839083Y-56761767D01*
X74736775Y-56807442D01*
X74657267Y-56864519D01*
X74440292Y-57040214D01*
X74428802Y-74747160D01*
X73416286Y-74747160D01*
X73380523Y-56921447D01*
X73610031Y-56470359D01*
X73774128Y-56188685D01*
X73952749Y-56009131D01*
X74215466Y-55868403D01*
X74319420Y-55824964D01*
X74494120Y-55758797D01*
X74663958Y-55710377D01*
X74858688Y-55677618D01*
X75108066Y-55658430D01*
X75441848Y-55650726D01*
X75889787Y-55652418D01*
X76481639Y-55661419D01*
X76615646Y-55663834D01*
X77236926Y-55676361D01*
X77706846Y-55690204D01*
X78053545Y-55708464D01*
X78305160Y-55734240D01*
X78489827Y-55770633D01*
X78635686Y-55820741D01*
X78770872Y-55887666D01*
X78801412Y-55904637D01*
X79148332Y-56180476D01*
X79360581Y-56471979D01*
X79413664Y-56580134D01*
X79455846Y-56695056D01*
X79488402Y-56837751D01*
X79512608Y-57029225D01*
X79529740Y-57290484D01*
X79541074Y-57642533D01*
X79547885Y-58106379D01*
X79551450Y-58703026D01*
X79553044Y-59453481D01*
X79553260Y-59644217D01*
X79556193Y-62456739D01*
X79776954Y-62635679D01*
X79863625Y-62697778D01*
X79965376Y-62742443D01*
X80109179Y-62771502D01*
X80322002Y-62786782D01*
X80630815Y-62790113D01*
X81062589Y-62783322D01*
X81644292Y-62768237D01*
X81706636Y-62766487D01*
X82270730Y-62750951D01*
X82798378Y-62737066D01*
X83253334Y-62725736D01*
X83599354Y-62717866D01*
X83793509Y-62714424D01*
X84119172Y-62668237D01*
X84346359Y-62522415D01*
X84359498Y-62508659D01*
X84412860Y-62446460D01*
X84454575Y-62374032D01*
X84485612Y-62271011D01*
X84506938Y-62117030D01*
X84519519Y-61891724D01*
X84524323Y-61574728D01*
X84522317Y-61145677D01*
X84514468Y-60584205D01*
X84501743Y-59869946D01*
X84496956Y-59614136D01*
X84446376Y-56921447D01*
X84693864Y-56431141D01*
X84845253Y-56152869D01*
X84981235Y-55990250D01*
X85158154Y-55894396D01*
X85390115Y-55827042D01*
X85681643Y-55780393D01*
X86134767Y-55744957D01*
X86731874Y-55721665D01*
X87455351Y-55711443D01*
X87589055Y-55711073D01*
X88335203Y-55715017D01*
X88924545Y-55732974D01*
X89379606Y-55771034D01*
X89722909Y-55835283D01*
X89976979Y-55931809D01*
X90164340Y-56066701D01*
X90307516Y-56246047D01*
X90429031Y-56475933D01*
X90430462Y-56479050D01*
X90639088Y-56934180D01*
X90642404Y-65835764D01*
X90643223Y-67083137D01*
X90644700Y-68278555D01*
X90646780Y-69409950D01*
X90649412Y-70465259D01*
X90652540Y-71432414D01*
X90656113Y-72299350D01*
X90660077Y-73054001D01*
X90664379Y-73684302D01*
X90668965Y-74178187D01*
X90673782Y-74523589D01*
X90678778Y-74708443D01*
X90681690Y-74737348D01*
X90722752Y-74658503D01*
X90792961Y-74453733D01*
X90861742Y-74221270D01*
X91095801Y-73499933D01*
X91349210Y-72946896D01*
X91493232Y-72717913D01*
X91613733Y-72510732D01*
X91768428Y-72192301D01*
X91930030Y-71820018D01*
X91983903Y-71685758D01*
X92127226Y-71340294D01*
X92329128Y-70881140D01*
X92568321Y-70355367D01*
X92823514Y-69810041D01*
X92978470Y-69486818D01*
X93208872Y-69005951D01*
X93414356Y-68567226D01*
X93580706Y-68201774D01*
X93693708Y-67940729D01*
X93736597Y-67826394D01*
X93802206Y-67646451D01*
X93924354Y-67354609D01*
X94080830Y-67000277D01*
X94249425Y-66632867D01*
X94407926Y-66301787D01*
X94523321Y-66076217D01*
X94620814Y-65886515D01*
X94785256Y-65555074D01*
X95006635Y-65102321D01*
X95274938Y-64548687D01*
X95447142Y-64191411D01*
X95553641Y-63962117D01*
X95715011Y-63604692D01*
X95914917Y-63155785D01*
X96137024Y-62652045D01*
X96328613Y-62213768D01*
X96583345Y-61640433D01*
X96892741Y-60962586D01*
X97230807Y-60236080D01*
X97571549Y-59516765D01*
X97888974Y-58860494D01*
X97895078Y-58848043D01*
X98158072Y-58306813D01*
X98395960Y-57807735D01*
X98596486Y-57377296D01*
X98747392Y-57041984D01*
X98836420Y-56828287D01*
X98853505Y-56776973D01*
X98997793Y-56487415D01*
X99270182Y-56179844D01*
X99627717Y-55890668D01*
X100027442Y-55656295D01*
X100307006Y-55545062D01*
X100607364Y-55456657D01*
X100823955Y-55418950D01*
X101030763Y-55431652D01*
G36*
X32581730Y-55432690D02*
G01*
X32848347Y-55487084D01*
X33050029Y-55538148D01*
X33463757Y-55667800D01*
X33770288Y-55828790D01*
X34023395Y-56040201D01*
X34233484Y-56276364D01*
X34385473Y-56504032D01*
X34428134Y-56606791D01*
X34482512Y-56752785D01*
X34603220Y-57032543D01*
X34777760Y-57418561D01*
X34993633Y-57883330D01*
X35238343Y-58399345D01*
X35316978Y-58563077D01*
X35567856Y-59087384D01*
X35794100Y-59566829D01*
X35983208Y-59974388D01*
X36122683Y-60283037D01*
X36200024Y-60465749D01*
X36209478Y-60492759D01*
X36285276Y-60701622D01*
X36422176Y-61034147D01*
X36603299Y-61452312D01*
X36811766Y-61918096D01*
X37030698Y-62393479D01*
X37243215Y-62840439D01*
X37333477Y-63024627D01*
X37492476Y-63356280D01*
X37614496Y-63631755D01*
X37681067Y-63808402D01*
X37688046Y-63843297D01*
X37728609Y-63959924D01*
X37839232Y-64194729D01*
X38001355Y-64509782D01*
X38135345Y-64757394D01*
X38321930Y-65101429D01*
X38470577Y-65386592D01*
X38562876Y-65576892D01*
X38584108Y-65634769D01*
X38620399Y-65749132D01*
X38718382Y-65989436D01*
X38861725Y-66319964D01*
X39034093Y-66704997D01*
X39219152Y-67108817D01*
X39400570Y-67495706D01*
X39562011Y-67829944D01*
X39687144Y-68075814D01*
X39750490Y-68185404D01*
X39866218Y-68392852D01*
X40003681Y-68694169D01*
X40098582Y-68932916D01*
X40236106Y-69280224D01*
X40382935Y-69614465D01*
X40466949Y-69785566D01*
X40578611Y-70011458D01*
X40735198Y-70347980D01*
X40911566Y-70740499D01*
X41011043Y-70967736D01*
X41194832Y-71386786D01*
X41379778Y-71799640D01*
X41537343Y-72142937D01*
X41597779Y-72270438D01*
X41718206Y-72535467D01*
X41797162Y-72739438D01*
X41815203Y-72813955D01*
X41864786Y-72939049D01*
X41988968Y-73139898D01*
X42043592Y-73216554D01*
X42279517Y-73634314D01*
X42462569Y-74146175D01*
X42572750Y-74678290D01*
X42590064Y-75156812D01*
X42584225Y-75213053D01*
X42539386Y-75497989D01*
X42488940Y-75712717D01*
X42462159Y-75779480D01*
X42346284Y-75860973D01*
X42117416Y-75964317D01*
X41936361Y-76029761D01*
X41626492Y-76096269D01*
X41180251Y-76145738D01*
X40638876Y-76178098D01*
X40043604Y-76193277D01*
X39435674Y-76191205D01*
X38856321Y-76171812D01*
X38346784Y-76135025D01*
X37948301Y-76080774D01*
X37770815Y-76036928D01*
X37296528Y-75809189D01*
X36880725Y-75452687D01*
X36507973Y-74950628D01*
X36163897Y-74288584D01*
X36050578Y-74166685D01*
X35838845Y-74022452D01*
X35750715Y-73974450D01*
X35645499Y-73925894D01*
X35527363Y-73886671D01*
X35376416Y-73855597D01*
X35172769Y-73831489D01*
X34896531Y-73813166D01*
X34527812Y-73799442D01*
X34046722Y-73789137D01*
X33433371Y-73781066D01*
X32667869Y-73774048D01*
X32337316Y-73771444D01*
X31475765Y-73764365D01*
X30774678Y-73760705D01*
X30215015Y-73764993D01*
X29777737Y-73781752D01*
X29443806Y-73815511D01*
X29194183Y-73870794D01*
X29009828Y-73952129D01*
X28871704Y-74064041D01*
X28760771Y-74211057D01*
X28657990Y-74397703D01*
X28544323Y-74628505D01*
X28519211Y-74679152D01*
X28189731Y-75238762D01*
X27820881Y-75653657D01*
X27379133Y-75958530D01*
X27196791Y-76047590D01*
X26929296Y-76160503D01*
X26731385Y-76231791D01*
X26658276Y-76246068D01*
X26555010Y-76237790D01*
X26301100Y-76224943D01*
X25925314Y-76208761D01*
X25456418Y-76190482D01*
X24923181Y-76171339D01*
X24896829Y-76170432D01*
X24337159Y-76146211D01*
X23817661Y-76114473D01*
X23373564Y-76078084D01*
X23040102Y-76039912D01*
X22857466Y-76004476D01*
X22633138Y-75907578D01*
X22507519Y-75761095D01*
X22426710Y-75519158D01*
X22357420Y-75256843D01*
X22301381Y-75059065D01*
X22289547Y-75021641D01*
X22288534Y-74838645D01*
X22295145Y-74805761D01*
X23422075Y-74805761D01*
X23435857Y-74976470D01*
X23453074Y-75000205D01*
X23587237Y-75038784D01*
X23864299Y-75070343D01*
X24247775Y-75094477D01*
X24701180Y-75110782D01*
X25188029Y-75118854D01*
X25671838Y-75118289D01*
X26116121Y-75108682D01*
X26484395Y-75089630D01*
X26740174Y-75060729D01*
X26826511Y-75037572D01*
X27055666Y-74891601D01*
X27242707Y-74723437D01*
X27400487Y-74513175D01*
X27573388Y-74229872D01*
X27636504Y-74110889D01*
X28000019Y-73517965D01*
X28413052Y-73082074D01*
X28796700Y-72842572D01*
X29062197Y-72735726D01*
X29274607Y-72670146D01*
X29339585Y-72660359D01*
X30559901Y-72658358D01*
X31614059Y-72658929D01*
X32515396Y-72662469D01*
X33277245Y-72669374D01*
X33912943Y-72680044D01*
X34435823Y-72694873D01*
X34859222Y-72714260D01*
X35196474Y-72738602D01*
X35460914Y-72768295D01*
X35665877Y-72803738D01*
X35824698Y-72845326D01*
X35851770Y-72854303D01*
X36286970Y-73046266D01*
X36676583Y-73295341D01*
X36982109Y-73570778D01*
X37165047Y-73841829D01*
X37191844Y-73924578D01*
X37323935Y-74260677D01*
X37548228Y-74590008D01*
X37817805Y-74855048D01*
X38062144Y-74991629D01*
X38300311Y-75036563D01*
X38680732Y-75074047D01*
X39166251Y-75102454D01*
X39719709Y-75120158D01*
X40303951Y-75125530D01*
X40881819Y-75116943D01*
X40906710Y-75116213D01*
X41568888Y-75096358D01*
X41510162Y-74729111D01*
X41422670Y-74394693D01*
X41286919Y-74065375D01*
X41269927Y-74033528D01*
X41119643Y-73761659D01*
X40983433Y-73515224D01*
X40964414Y-73480811D01*
X40791514Y-73140692D01*
X40565593Y-72652649D01*
X40295857Y-72037132D01*
X40015157Y-71371623D01*
X39842679Y-70964648D01*
X39676135Y-70586305D01*
X39538587Y-70288278D01*
X39474507Y-70159963D01*
X39344027Y-69890834D01*
X39196443Y-69550633D01*
X39120161Y-69359522D01*
X38987326Y-69044291D01*
X38848885Y-68763593D01*
X38776462Y-68641500D01*
X38665448Y-68448183D01*
X38515217Y-68148009D01*
X38355080Y-67800030D01*
X38327363Y-67736641D01*
X38182636Y-67404774D01*
X38040484Y-67084183D01*
X37890554Y-66752740D01*
X37722492Y-66388314D01*
X37525944Y-65968775D01*
X37290556Y-65471994D01*
X37005973Y-64875842D01*
X36661843Y-64158187D01*
X36332705Y-63473390D01*
X36154723Y-63096684D01*
X35988923Y-62734301D01*
X35864764Y-62450928D01*
X35842203Y-62396358D01*
X35522285Y-61609433D01*
X35257558Y-60968419D01*
X35038743Y-60451700D01*
X34856558Y-60037658D01*
X34701724Y-59704677D01*
X34589911Y-59479397D01*
X34370502Y-59044616D01*
X34146796Y-58589062D01*
X33933222Y-58143566D01*
X33744209Y-57738961D01*
X33594184Y-57406078D01*
X33497577Y-57175748D01*
X33468207Y-57082473D01*
X33388837Y-56918966D01*
X33185385Y-56754025D01*
X32909836Y-56621178D01*
X32655353Y-56558227D01*
X32239596Y-56572879D01*
X31868281Y-56708342D01*
X31592392Y-56942231D01*
X31521284Y-57056076D01*
X31018195Y-58082858D01*
X30534156Y-59083156D01*
X30076534Y-60041030D01*
X29652696Y-60940540D01*
X29270009Y-61765745D01*
X28935838Y-62500705D01*
X28657551Y-63129480D01*
X28442513Y-63636129D01*
X28298092Y-64004712D01*
X28262342Y-64108078D01*
X28143548Y-64403509D01*
X28001477Y-64668134D01*
X27980837Y-64698906D01*
X27865394Y-64878567D01*
X27813960Y-64988315D01*
X27813790Y-64991000D01*
X27776439Y-65085247D01*
X27672698Y-65314101D01*
X27515029Y-65650915D01*
X27315898Y-66069039D01*
X27106635Y-66502940D01*
X26864763Y-67008150D01*
X26639148Y-67491333D01*
X26446557Y-67915684D01*
X26303753Y-68244398D01*
X26238052Y-68409786D01*
X26134627Y-68663067D01*
X25969789Y-69027910D01*
X25765594Y-69456958D01*
X25544097Y-69902852D01*
X25527439Y-69935581D01*
X25271570Y-70455898D01*
X25000976Y-71036748D01*
X24750960Y-71600828D01*
X24584764Y-71999892D01*
X24408035Y-72421604D01*
X24230128Y-72809124D01*
X24073524Y-73115454D01*
X23973969Y-73276868D01*
X23825789Y-73523905D01*
X23683018Y-73844950D01*
X23559147Y-74195364D01*
X23467669Y-74530514D01*
X23422075Y-74805761D01*
X22295145Y-74805761D01*
X22349336Y-74536208D01*
X22457074Y-74157183D01*
X22596865Y-73744424D01*
X22753830Y-73340784D01*
X22913086Y-72989119D01*
X23059755Y-72732281D01*
X23105088Y-72673037D01*
X23184075Y-72537904D01*
X23308712Y-72275214D01*
X23460725Y-71925146D01*
X23594993Y-71596005D01*
X23805236Y-71091360D01*
X24053963Y-70532720D01*
X24300585Y-70010033D01*
X24404955Y-69800952D01*
X24606073Y-69397784D01*
X24812114Y-68967430D01*
X25007795Y-68543932D01*
X25177833Y-68161334D01*
X25306944Y-67853677D01*
X25379846Y-67655006D01*
X25390468Y-67605759D01*
X25428214Y-67512376D01*
X25533974Y-67281582D01*
X25696536Y-66937040D01*
X25904684Y-66502414D01*
X26147205Y-66001368D01*
X26276549Y-65735997D01*
X26584835Y-65097089D01*
X26911977Y-64405623D01*
X27233385Y-63714486D01*
X27524471Y-63076564D01*
X27760647Y-62544744D01*
X27766624Y-62530987D01*
X27986643Y-62035613D01*
X28265639Y-61424893D01*
X28582464Y-60744110D01*
X28915971Y-60038550D01*
X29245011Y-59353497D01*
X29380346Y-59075510D01*
X29661567Y-58496468D01*
X29921031Y-57954464D01*
X30146641Y-57475387D01*
X30326299Y-57085127D01*
X30447907Y-56809571D01*
X30494787Y-56690595D01*
X30723511Y-56272846D01*
X31107734Y-55918700D01*
X31630322Y-55642569D01*
X31823171Y-55573298D01*
X32144021Y-55473651D01*
X32371914Y-55427497D01*
X32581730Y-55432690D01*
G37*
X32581730Y-55432690D02*
X32848347Y-55487084D01*
X33050029Y-55538148D01*
X33463757Y-55667800D01*
X33770288Y-55828790D01*
X34023395Y-56040201D01*
X34233484Y-56276364D01*
X34385473Y-56504032D01*
X34428134Y-56606791D01*
X34482512Y-56752785D01*
X34603220Y-57032543D01*
X34777760Y-57418561D01*
X34993633Y-57883330D01*
X35238343Y-58399345D01*
X35316978Y-58563077D01*
X35567856Y-59087384D01*
X35794100Y-59566829D01*
X35983208Y-59974388D01*
X36122683Y-60283037D01*
X36200024Y-60465749D01*
X36209478Y-60492759D01*
X36285276Y-60701622D01*
X36422176Y-61034147D01*
X36603299Y-61452312D01*
X36811766Y-61918096D01*
X37030698Y-62393479D01*
X37243215Y-62840439D01*
X37333477Y-63024627D01*
X37492476Y-63356280D01*
X37614496Y-63631755D01*
X37681067Y-63808402D01*
X37688046Y-63843297D01*
X37728609Y-63959924D01*
X37839232Y-64194729D01*
X38001355Y-64509782D01*
X38135345Y-64757394D01*
X38321930Y-65101429D01*
X38470577Y-65386592D01*
X38562876Y-65576892D01*
X38584108Y-65634769D01*
X38620399Y-65749132D01*
X38718382Y-65989436D01*
X38861725Y-66319964D01*
X39034093Y-66704997D01*
X39219152Y-67108817D01*
X39400570Y-67495706D01*
X39562011Y-67829944D01*
X39687144Y-68075814D01*
X39750490Y-68185404D01*
X39866218Y-68392852D01*
X40003681Y-68694169D01*
X40098582Y-68932916D01*
X40236106Y-69280224D01*
X40382935Y-69614465D01*
X40466949Y-69785566D01*
X40578611Y-70011458D01*
X40735198Y-70347980D01*
X40911566Y-70740499D01*
X41011043Y-70967736D01*
X41194832Y-71386786D01*
X41379778Y-71799640D01*
X41537343Y-72142937D01*
X41597779Y-72270438D01*
X41718206Y-72535467D01*
X41797162Y-72739438D01*
X41815203Y-72813955D01*
X41864786Y-72939049D01*
X41988968Y-73139898D01*
X42043592Y-73216554D01*
X42279517Y-73634314D01*
X42462569Y-74146175D01*
X42572750Y-74678290D01*
X42590064Y-75156812D01*
X42584225Y-75213053D01*
X42539386Y-75497989D01*
X42488940Y-75712717D01*
X42462159Y-75779480D01*
X42346284Y-75860973D01*
X42117416Y-75964317D01*
X41936361Y-76029761D01*
X41626492Y-76096269D01*
X41180251Y-76145738D01*
X40638876Y-76178098D01*
X40043604Y-76193277D01*
X39435674Y-76191205D01*
X38856321Y-76171812D01*
X38346784Y-76135025D01*
X37948301Y-76080774D01*
X37770815Y-76036928D01*
X37296528Y-75809189D01*
X36880725Y-75452687D01*
X36507973Y-74950628D01*
X36163897Y-74288584D01*
X36050578Y-74166685D01*
X35838845Y-74022452D01*
X35750715Y-73974450D01*
X35645499Y-73925894D01*
X35527363Y-73886671D01*
X35376416Y-73855597D01*
X35172769Y-73831489D01*
X34896531Y-73813166D01*
X34527812Y-73799442D01*
X34046722Y-73789137D01*
X33433371Y-73781066D01*
X32667869Y-73774048D01*
X32337316Y-73771444D01*
X31475765Y-73764365D01*
X30774678Y-73760705D01*
X30215015Y-73764993D01*
X29777737Y-73781752D01*
X29443806Y-73815511D01*
X29194183Y-73870794D01*
X29009828Y-73952129D01*
X28871704Y-74064041D01*
X28760771Y-74211057D01*
X28657990Y-74397703D01*
X28544323Y-74628505D01*
X28519211Y-74679152D01*
X28189731Y-75238762D01*
X27820881Y-75653657D01*
X27379133Y-75958530D01*
X27196791Y-76047590D01*
X26929296Y-76160503D01*
X26731385Y-76231791D01*
X26658276Y-76246068D01*
X26555010Y-76237790D01*
X26301100Y-76224943D01*
X25925314Y-76208761D01*
X25456418Y-76190482D01*
X24923181Y-76171339D01*
X24896829Y-76170432D01*
X24337159Y-76146211D01*
X23817661Y-76114473D01*
X23373564Y-76078084D01*
X23040102Y-76039912D01*
X22857466Y-76004476D01*
X22633138Y-75907578D01*
X22507519Y-75761095D01*
X22426710Y-75519158D01*
X22357420Y-75256843D01*
X22301381Y-75059065D01*
X22289547Y-75021641D01*
X22288534Y-74838645D01*
X22295145Y-74805761D01*
X23422075Y-74805761D01*
X23435857Y-74976470D01*
X23453074Y-75000205D01*
X23587237Y-75038784D01*
X23864299Y-75070343D01*
X24247775Y-75094477D01*
X24701180Y-75110782D01*
X25188029Y-75118854D01*
X25671838Y-75118289D01*
X26116121Y-75108682D01*
X26484395Y-75089630D01*
X26740174Y-75060729D01*
X26826511Y-75037572D01*
X27055666Y-74891601D01*
X27242707Y-74723437D01*
X27400487Y-74513175D01*
X27573388Y-74229872D01*
X27636504Y-74110889D01*
X28000019Y-73517965D01*
X28413052Y-73082074D01*
X28796700Y-72842572D01*
X29062197Y-72735726D01*
X29274607Y-72670146D01*
X29339585Y-72660359D01*
X30559901Y-72658358D01*
X31614059Y-72658929D01*
X32515396Y-72662469D01*
X33277245Y-72669374D01*
X33912943Y-72680044D01*
X34435823Y-72694873D01*
X34859222Y-72714260D01*
X35196474Y-72738602D01*
X35460914Y-72768295D01*
X35665877Y-72803738D01*
X35824698Y-72845326D01*
X35851770Y-72854303D01*
X36286970Y-73046266D01*
X36676583Y-73295341D01*
X36982109Y-73570778D01*
X37165047Y-73841829D01*
X37191844Y-73924578D01*
X37323935Y-74260677D01*
X37548228Y-74590008D01*
X37817805Y-74855048D01*
X38062144Y-74991629D01*
X38300311Y-75036563D01*
X38680732Y-75074047D01*
X39166251Y-75102454D01*
X39719709Y-75120158D01*
X40303951Y-75125530D01*
X40881819Y-75116943D01*
X40906710Y-75116213D01*
X41568888Y-75096358D01*
X41510162Y-74729111D01*
X41422670Y-74394693D01*
X41286919Y-74065375D01*
X41269927Y-74033528D01*
X41119643Y-73761659D01*
X40983433Y-73515224D01*
X40964414Y-73480811D01*
X40791514Y-73140692D01*
X40565593Y-72652649D01*
X40295857Y-72037132D01*
X40015157Y-71371623D01*
X39842679Y-70964648D01*
X39676135Y-70586305D01*
X39538587Y-70288278D01*
X39474507Y-70159963D01*
X39344027Y-69890834D01*
X39196443Y-69550633D01*
X39120161Y-69359522D01*
X38987326Y-69044291D01*
X38848885Y-68763593D01*
X38776462Y-68641500D01*
X38665448Y-68448183D01*
X38515217Y-68148009D01*
X38355080Y-67800030D01*
X38327363Y-67736641D01*
X38182636Y-67404774D01*
X38040484Y-67084183D01*
X37890554Y-66752740D01*
X37722492Y-66388314D01*
X37525944Y-65968775D01*
X37290556Y-65471994D01*
X37005973Y-64875842D01*
X36661843Y-64158187D01*
X36332705Y-63473390D01*
X36154723Y-63096684D01*
X35988923Y-62734301D01*
X35864764Y-62450928D01*
X35842203Y-62396358D01*
X35522285Y-61609433D01*
X35257558Y-60968419D01*
X35038743Y-60451700D01*
X34856558Y-60037658D01*
X34701724Y-59704677D01*
X34589911Y-59479397D01*
X34370502Y-59044616D01*
X34146796Y-58589062D01*
X33933222Y-58143566D01*
X33744209Y-57738961D01*
X33594184Y-57406078D01*
X33497577Y-57175748D01*
X33468207Y-57082473D01*
X33388837Y-56918966D01*
X33185385Y-56754025D01*
X32909836Y-56621178D01*
X32655353Y-56558227D01*
X32239596Y-56572879D01*
X31868281Y-56708342D01*
X31592392Y-56942231D01*
X31521284Y-57056076D01*
X31018195Y-58082858D01*
X30534156Y-59083156D01*
X30076534Y-60041030D01*
X29652696Y-60940540D01*
X29270009Y-61765745D01*
X28935838Y-62500705D01*
X28657551Y-63129480D01*
X28442513Y-63636129D01*
X28298092Y-64004712D01*
X28262342Y-64108078D01*
X28143548Y-64403509D01*
X28001477Y-64668134D01*
X27980837Y-64698906D01*
X27865394Y-64878567D01*
X27813960Y-64988315D01*
X27813790Y-64991000D01*
X27776439Y-65085247D01*
X27672698Y-65314101D01*
X27515029Y-65650915D01*
X27315898Y-66069039D01*
X27106635Y-66502940D01*
X26864763Y-67008150D01*
X26639148Y-67491333D01*
X26446557Y-67915684D01*
X26303753Y-68244398D01*
X26238052Y-68409786D01*
X26134627Y-68663067D01*
X25969789Y-69027910D01*
X25765594Y-69456958D01*
X25544097Y-69902852D01*
X25527439Y-69935581D01*
X25271570Y-70455898D01*
X25000976Y-71036748D01*
X24750960Y-71600828D01*
X24584764Y-71999892D01*
X24408035Y-72421604D01*
X24230128Y-72809124D01*
X24073524Y-73115454D01*
X23973969Y-73276868D01*
X23825789Y-73523905D01*
X23683018Y-73844950D01*
X23559147Y-74195364D01*
X23467669Y-74530514D01*
X23422075Y-74805761D01*
X22295145Y-74805761D01*
X22349336Y-74536208D01*
X22457074Y-74157183D01*
X22596865Y-73744424D01*
X22753830Y-73340784D01*
X22913086Y-72989119D01*
X23059755Y-72732281D01*
X23105088Y-72673037D01*
X23184075Y-72537904D01*
X23308712Y-72275214D01*
X23460725Y-71925146D01*
X23594993Y-71596005D01*
X23805236Y-71091360D01*
X24053963Y-70532720D01*
X24300585Y-70010033D01*
X24404955Y-69800952D01*
X24606073Y-69397784D01*
X24812114Y-68967430D01*
X25007795Y-68543932D01*
X25177833Y-68161334D01*
X25306944Y-67853677D01*
X25379846Y-67655006D01*
X25390468Y-67605759D01*
X25428214Y-67512376D01*
X25533974Y-67281582D01*
X25696536Y-66937040D01*
X25904684Y-66502414D01*
X26147205Y-66001368D01*
X26276549Y-65735997D01*
X26584835Y-65097089D01*
X26911977Y-64405623D01*
X27233385Y-63714486D01*
X27524471Y-63076564D01*
X27760647Y-62544744D01*
X27766624Y-62530987D01*
X27986643Y-62035613D01*
X28265639Y-61424893D01*
X28582464Y-60744110D01*
X28915971Y-60038550D01*
X29245011Y-59353497D01*
X29380346Y-59075510D01*
X29661567Y-58496468D01*
X29921031Y-57954464D01*
X30146641Y-57475387D01*
X30326299Y-57085127D01*
X30447907Y-56809571D01*
X30494787Y-56690595D01*
X30723511Y-56272846D01*
X31107734Y-55918700D01*
X31630322Y-55642569D01*
X31823171Y-55573298D01*
X32144021Y-55473651D01*
X32371914Y-55427497D01*
X32581730Y-55432690D01*
M02*
