%FSLAX45Y45*%
G04 Gerber Fmt 4.5, Leading zero omitted, Abs format (unit mm)*
G04 Created by KiCad (PCBNEW (5.1.9)-1) date 2021-09-28 02:01:27*
%MOMM*%
%LPD*%
G01*
G04 APERTURE LIST*
%TA.AperFunction,Profile*%
%ADD10C,0.200000*%
%TD*%
%ADD11C,0.200000*%
%ADD12C,0.300000*%
G04 APERTURE END LIST*
D10*
X4748125Y-1300000D02*
X18111875Y-1300000D01*
X18650000Y-700000D02*
X18111875Y-1300000D01*
X18650000Y-700000D02*
X21016875Y-700000D01*
X21255000Y-1300000D02*
X21016875Y-700000D01*
X4210000Y-700000D02*
X4748125Y-1300000D01*
X1605000Y-1300000D02*
X1843125Y-700000D01*
X20716875Y-7752100D02*
X21255000Y-7038975D01*
X1605000Y-7038975D02*
X2143125Y-7752100D01*
X1843125Y-700000D02*
X4210000Y-700000D01*
X21255000Y-1300000D02*
X21255000Y-7038975D01*
X20716875Y-7752100D02*
X2143125Y-7752100D01*
X1605000Y-7038975D02*
X1605000Y-1300000D01*
D11*
X9692960Y-5176840D02*
X9732960Y-5216840D01*
X9732960Y-5176840D02*
X9692960Y-5216840D01*
X9767570Y-1470660D02*
G75*
G03*
X9767570Y-1470660I-54610J0D01*
G01*
X9767570Y-1724660D02*
G75*
G03*
X9767570Y-1724660I-54610J0D01*
G01*
X9767570Y-1978660D02*
G75*
G03*
X9767570Y-1978660I-54610J0D01*
G01*
X9767570Y-2232660D02*
G75*
G03*
X9767570Y-2232660I-54610J0D01*
G01*
X9767570Y-2486660D02*
G75*
G03*
X9767570Y-2486660I-54610J0D01*
G01*
X9767570Y-2740660D02*
G75*
G03*
X9767570Y-2740660I-54610J0D01*
G01*
X9767570Y-2994660D02*
G75*
G03*
X9767570Y-2994660I-54610J0D01*
G01*
X9767570Y-3248660D02*
G75*
G03*
X9767570Y-3248660I-54610J0D01*
G01*
X9767570Y-3502660D02*
G75*
G03*
X9767570Y-3502660I-54610J0D01*
G01*
X9767570Y-3756660D02*
G75*
G03*
X9767570Y-3756660I-54610J0D01*
G01*
X9767570Y-4010660D02*
G75*
G03*
X9767570Y-4010660I-54610J0D01*
G01*
X9767570Y-4264660D02*
G75*
G03*
X9767570Y-4264660I-54610J0D01*
G01*
X11291570Y-1470660D02*
G75*
G03*
X11291570Y-1470660I-54610J0D01*
G01*
X11291570Y-1724660D02*
G75*
G03*
X11291570Y-1724660I-54610J0D01*
G01*
X11291570Y-1978660D02*
G75*
G03*
X11291570Y-1978660I-54610J0D01*
G01*
X11291570Y-2232660D02*
G75*
G03*
X11291570Y-2232660I-54610J0D01*
G01*
X11291570Y-2486660D02*
G75*
G03*
X11291570Y-2486660I-54610J0D01*
G01*
X11291570Y-2740660D02*
G75*
G03*
X11291570Y-2740660I-54610J0D01*
G01*
X11291570Y-2994660D02*
G75*
G03*
X11291570Y-2994660I-54610J0D01*
G01*
X11291570Y-3248660D02*
G75*
G03*
X11291570Y-3248660I-54610J0D01*
G01*
X11291570Y-3502660D02*
G75*
G03*
X11291570Y-3502660I-54610J0D01*
G01*
X11291570Y-3756660D02*
G75*
G03*
X11291570Y-3756660I-54610J0D01*
G01*
X11291570Y-4010660D02*
G75*
G03*
X11291570Y-4010660I-54610J0D01*
G01*
X11291570Y-4264660D02*
G75*
G03*
X11291570Y-4264660I-54610J0D01*
G01*
X2476500Y-2541000D02*
X2476500Y-2666000D01*
X2414000Y-2603500D02*
X2539000Y-2603500D01*
X2476500Y-4446000D02*
X2476500Y-4571000D01*
X2414000Y-4508500D02*
X2539000Y-4508500D01*
X3111500Y-2287000D02*
X3111500Y-2412000D01*
X3049000Y-2349500D02*
X3174000Y-2349500D01*
X3111500Y-4192000D02*
X3111500Y-4317000D01*
X3049000Y-4254500D02*
X3174000Y-4254500D01*
X3429000Y-6351000D02*
X3429000Y-6476000D01*
X3366500Y-6413500D02*
X3491500Y-6413500D01*
X4064000Y-6097000D02*
X4064000Y-6222000D01*
X4001500Y-6159500D02*
X4126500Y-6159500D01*
X4381500Y-2541000D02*
X4381500Y-2666000D01*
X4319000Y-2603500D02*
X4444000Y-2603500D01*
X4381500Y-4446000D02*
X4381500Y-4571000D01*
X4319000Y-4508500D02*
X4444000Y-4508500D01*
X5016500Y-2287000D02*
X5016500Y-2412000D01*
X4954000Y-2349500D02*
X5079000Y-2349500D01*
X5016500Y-4192000D02*
X5016500Y-4317000D01*
X4954000Y-4254500D02*
X5079000Y-4254500D01*
X5334000Y-6351000D02*
X5334000Y-6476000D01*
X5271500Y-6413500D02*
X5396500Y-6413500D01*
X5969000Y-6097000D02*
X5969000Y-6222000D01*
X5906500Y-6159500D02*
X6031500Y-6159500D01*
X6286500Y-2541000D02*
X6286500Y-2666000D01*
X6224000Y-2603500D02*
X6349000Y-2603500D01*
X6286500Y-4446000D02*
X6286500Y-4571000D01*
X6224000Y-4508500D02*
X6349000Y-4508500D01*
X6921500Y-2287000D02*
X6921500Y-2412000D01*
X6859000Y-2349500D02*
X6984000Y-2349500D01*
X6921500Y-4192000D02*
X6921500Y-4317000D01*
X6859000Y-4254500D02*
X6984000Y-4254500D01*
X7239000Y-6351000D02*
X7239000Y-6476000D01*
X7176500Y-6413500D02*
X7301500Y-6413500D01*
X7874000Y-6097000D02*
X7874000Y-6222000D01*
X7811500Y-6159500D02*
X7936500Y-6159500D01*
X8191500Y-2541000D02*
X8191500Y-2666000D01*
X8129000Y-2603500D02*
X8254000Y-2603500D01*
X8191500Y-4446000D02*
X8191500Y-4571000D01*
X8129000Y-4508500D02*
X8254000Y-4508500D01*
X8826500Y-2287000D02*
X8826500Y-2412000D01*
X8764000Y-2349500D02*
X8889000Y-2349500D01*
X8826500Y-4192000D02*
X8826500Y-4317000D01*
X8764000Y-4254500D02*
X8889000Y-4254500D01*
X9144000Y-6351000D02*
X9144000Y-6476000D01*
X9081500Y-6413500D02*
X9206500Y-6413500D01*
X9779000Y-6097000D02*
X9779000Y-6222000D01*
X9716500Y-6159500D02*
X9841500Y-6159500D01*
X10096500Y-2541000D02*
X10096500Y-2666000D01*
X10034000Y-2603500D02*
X10159000Y-2603500D01*
X10096500Y-4446000D02*
X10096500Y-4571000D01*
X10034000Y-4508500D02*
X10159000Y-4508500D01*
X10731500Y-2287000D02*
X10731500Y-2412000D01*
X10669000Y-2349500D02*
X10794000Y-2349500D01*
X10731500Y-4192000D02*
X10731500Y-4317000D01*
X10669000Y-4254500D02*
X10794000Y-4254500D01*
X11049000Y-6351000D02*
X11049000Y-6476000D01*
X10986500Y-6413500D02*
X11111500Y-6413500D01*
X11684000Y-6097000D02*
X11684000Y-6222000D01*
X11621500Y-6159500D02*
X11746500Y-6159500D01*
X12001500Y-2541000D02*
X12001500Y-2666000D01*
X11939000Y-2603500D02*
X12064000Y-2603500D01*
X12001500Y-4446000D02*
X12001500Y-4571000D01*
X11939000Y-4508500D02*
X12064000Y-4508500D01*
X12636500Y-2287000D02*
X12636500Y-2412000D01*
X12574000Y-2349500D02*
X12699000Y-2349500D01*
X12636500Y-4192000D02*
X12636500Y-4317000D01*
X12574000Y-4254500D02*
X12699000Y-4254500D01*
X12954000Y-6351000D02*
X12954000Y-6476000D01*
X12891500Y-6413500D02*
X13016500Y-6413500D01*
X13589000Y-6097000D02*
X13589000Y-6222000D01*
X13526500Y-6159500D02*
X13651500Y-6159500D01*
X13906500Y-2541000D02*
X13906500Y-2666000D01*
X13844000Y-2603500D02*
X13969000Y-2603500D01*
X13906500Y-4446000D02*
X13906500Y-4571000D01*
X13844000Y-4508500D02*
X13969000Y-4508500D01*
X14541500Y-2287000D02*
X14541500Y-2412000D01*
X14479000Y-2349500D02*
X14604000Y-2349500D01*
X14541500Y-4192000D02*
X14541500Y-4317000D01*
X14479000Y-4254500D02*
X14604000Y-4254500D01*
X14859000Y-6351000D02*
X14859000Y-6476000D01*
X14796500Y-6413500D02*
X14921500Y-6413500D01*
X15494000Y-6097000D02*
X15494000Y-6222000D01*
X15431500Y-6159500D02*
X15556500Y-6159500D01*
X15811500Y-2541000D02*
X15811500Y-2666000D01*
X15749000Y-2603500D02*
X15874000Y-2603500D01*
X15811500Y-4446000D02*
X15811500Y-4571000D01*
X15749000Y-4508500D02*
X15874000Y-4508500D01*
X16446500Y-2287000D02*
X16446500Y-2412000D01*
X16384000Y-2349500D02*
X16509000Y-2349500D01*
X16446500Y-4192000D02*
X16446500Y-4317000D01*
X16384000Y-4254500D02*
X16509000Y-4254500D01*
X16764000Y-6351000D02*
X16764000Y-6476000D01*
X16701500Y-6413500D02*
X16826500Y-6413500D01*
X17399000Y-6097000D02*
X17399000Y-6222000D01*
X17336500Y-6159500D02*
X17461500Y-6159500D01*
X17716500Y-2541000D02*
X17716500Y-2666000D01*
X17654000Y-2603500D02*
X17779000Y-2603500D01*
X17716500Y-4446000D02*
X17716500Y-4571000D01*
X17654000Y-4508500D02*
X17779000Y-4508500D01*
X18351500Y-2287000D02*
X18351500Y-2412000D01*
X18289000Y-2349500D02*
X18414000Y-2349500D01*
X18351500Y-4192000D02*
X18351500Y-4317000D01*
X18289000Y-4254500D02*
X18414000Y-4254500D01*
X18669000Y-6351000D02*
X18669000Y-6476000D01*
X18606500Y-6413500D02*
X18731500Y-6413500D01*
X19304000Y-6097000D02*
X19304000Y-6222000D01*
X19241500Y-6159500D02*
X19366500Y-6159500D01*
X19621500Y-2541000D02*
X19621500Y-2666000D01*
X19559000Y-2603500D02*
X19684000Y-2603500D01*
X19621500Y-4446000D02*
X19621500Y-4571000D01*
X19559000Y-4508500D02*
X19684000Y-4508500D01*
X20256500Y-2287000D02*
X20256500Y-2412000D01*
X20194000Y-2349500D02*
X20319000Y-2349500D01*
X20256500Y-4192000D02*
X20256500Y-4317000D01*
X20194000Y-4254500D02*
X20319000Y-4254500D01*
X2423138Y-7271138D02*
X2423138Y-7044862D01*
X2196862Y-7044862D01*
X2196862Y-7271138D01*
X2423138Y-7271138D01*
X3923138Y-1413138D02*
X3923138Y-1186862D01*
X3696862Y-1186862D01*
X3696862Y-1413138D01*
X3923138Y-1413138D01*
X19163138Y-1413138D02*
X19163138Y-1186862D01*
X18936862Y-1186862D01*
X18936862Y-1413138D01*
X19163138Y-1413138D01*
X20663138Y-7271138D02*
X20663138Y-7044862D01*
X20436862Y-7044862D01*
X20436862Y-7271138D01*
X20663138Y-7271138D01*
X2349500Y-2945000D02*
X2437000Y-2857500D01*
X2349500Y-2770000D01*
X2262000Y-2857500D01*
X2349500Y-2945000D01*
X2349500Y-4850000D02*
X2437000Y-4762500D01*
X2349500Y-4675000D01*
X2262000Y-4762500D01*
X2349500Y-4850000D01*
X3302000Y-6755000D02*
X3389500Y-6667500D01*
X3302000Y-6580000D01*
X3214500Y-6667500D01*
X3302000Y-6755000D01*
X3365500Y-2945000D02*
X3453000Y-2857500D01*
X3365500Y-2770000D01*
X3278000Y-2857500D01*
X3365500Y-2945000D01*
X3365500Y-4850000D02*
X3453000Y-4762500D01*
X3365500Y-4675000D01*
X3278000Y-4762500D01*
X3365500Y-4850000D01*
X4254500Y-2945000D02*
X4342000Y-2857500D01*
X4254500Y-2770000D01*
X4167000Y-2857500D01*
X4254500Y-2945000D01*
X4254500Y-4850000D02*
X4342000Y-4762500D01*
X4254500Y-4675000D01*
X4167000Y-4762500D01*
X4254500Y-4850000D01*
X4318000Y-6755000D02*
X4405500Y-6667500D01*
X4318000Y-6580000D01*
X4230500Y-6667500D01*
X4318000Y-6755000D01*
X5207000Y-6755000D02*
X5294500Y-6667500D01*
X5207000Y-6580000D01*
X5119500Y-6667500D01*
X5207000Y-6755000D01*
X5270500Y-2945000D02*
X5358000Y-2857500D01*
X5270500Y-2770000D01*
X5183000Y-2857500D01*
X5270500Y-2945000D01*
X5270500Y-4850000D02*
X5358000Y-4762500D01*
X5270500Y-4675000D01*
X5183000Y-4762500D01*
X5270500Y-4850000D01*
X6159500Y-2945000D02*
X6247000Y-2857500D01*
X6159500Y-2770000D01*
X6072000Y-2857500D01*
X6159500Y-2945000D01*
X6159500Y-4850000D02*
X6247000Y-4762500D01*
X6159500Y-4675000D01*
X6072000Y-4762500D01*
X6159500Y-4850000D01*
X6223000Y-6755000D02*
X6310500Y-6667500D01*
X6223000Y-6580000D01*
X6135500Y-6667500D01*
X6223000Y-6755000D01*
X7112000Y-6755000D02*
X7199500Y-6667500D01*
X7112000Y-6580000D01*
X7024500Y-6667500D01*
X7112000Y-6755000D01*
X7175500Y-2945000D02*
X7263000Y-2857500D01*
X7175500Y-2770000D01*
X7088000Y-2857500D01*
X7175500Y-2945000D01*
X7175500Y-4850000D02*
X7263000Y-4762500D01*
X7175500Y-4675000D01*
X7088000Y-4762500D01*
X7175500Y-4850000D01*
X8064500Y-2945000D02*
X8152000Y-2857500D01*
X8064500Y-2770000D01*
X7977000Y-2857500D01*
X8064500Y-2945000D01*
X8064500Y-4850000D02*
X8152000Y-4762500D01*
X8064500Y-4675000D01*
X7977000Y-4762500D01*
X8064500Y-4850000D01*
X8128000Y-6755000D02*
X8215500Y-6667500D01*
X8128000Y-6580000D01*
X8040500Y-6667500D01*
X8128000Y-6755000D01*
X9017000Y-6755000D02*
X9104500Y-6667500D01*
X9017000Y-6580000D01*
X8929500Y-6667500D01*
X9017000Y-6755000D01*
X9080500Y-2945000D02*
X9168000Y-2857500D01*
X9080500Y-2770000D01*
X8993000Y-2857500D01*
X9080500Y-2945000D01*
X9080500Y-4850000D02*
X9168000Y-4762500D01*
X9080500Y-4675000D01*
X8993000Y-4762500D01*
X9080500Y-4850000D01*
X9969500Y-2945000D02*
X10057000Y-2857500D01*
X9969500Y-2770000D01*
X9882000Y-2857500D01*
X9969500Y-2945000D01*
X9969500Y-4850000D02*
X10057000Y-4762500D01*
X9969500Y-4675000D01*
X9882000Y-4762500D01*
X9969500Y-4850000D01*
X10033000Y-6755000D02*
X10120500Y-6667500D01*
X10033000Y-6580000D01*
X9945500Y-6667500D01*
X10033000Y-6755000D01*
X10922000Y-6755000D02*
X11009500Y-6667500D01*
X10922000Y-6580000D01*
X10834500Y-6667500D01*
X10922000Y-6755000D01*
X10985500Y-2945000D02*
X11073000Y-2857500D01*
X10985500Y-2770000D01*
X10898000Y-2857500D01*
X10985500Y-2945000D01*
X10985500Y-4850000D02*
X11073000Y-4762500D01*
X10985500Y-4675000D01*
X10898000Y-4762500D01*
X10985500Y-4850000D01*
X11874500Y-2945000D02*
X11962000Y-2857500D01*
X11874500Y-2770000D01*
X11787000Y-2857500D01*
X11874500Y-2945000D01*
X11874500Y-4850000D02*
X11962000Y-4762500D01*
X11874500Y-4675000D01*
X11787000Y-4762500D01*
X11874500Y-4850000D01*
X11938000Y-6755000D02*
X12025500Y-6667500D01*
X11938000Y-6580000D01*
X11850500Y-6667500D01*
X11938000Y-6755000D01*
X12827000Y-6755000D02*
X12914500Y-6667500D01*
X12827000Y-6580000D01*
X12739500Y-6667500D01*
X12827000Y-6755000D01*
X12890500Y-2945000D02*
X12978000Y-2857500D01*
X12890500Y-2770000D01*
X12803000Y-2857500D01*
X12890500Y-2945000D01*
X12890500Y-4850000D02*
X12978000Y-4762500D01*
X12890500Y-4675000D01*
X12803000Y-4762500D01*
X12890500Y-4850000D01*
X13779500Y-2945000D02*
X13867000Y-2857500D01*
X13779500Y-2770000D01*
X13692000Y-2857500D01*
X13779500Y-2945000D01*
X13779500Y-4850000D02*
X13867000Y-4762500D01*
X13779500Y-4675000D01*
X13692000Y-4762500D01*
X13779500Y-4850000D01*
X13843000Y-6755000D02*
X13930500Y-6667500D01*
X13843000Y-6580000D01*
X13755500Y-6667500D01*
X13843000Y-6755000D01*
X14732000Y-6755000D02*
X14819500Y-6667500D01*
X14732000Y-6580000D01*
X14644500Y-6667500D01*
X14732000Y-6755000D01*
X14795500Y-2945000D02*
X14883000Y-2857500D01*
X14795500Y-2770000D01*
X14708000Y-2857500D01*
X14795500Y-2945000D01*
X14795500Y-4850000D02*
X14883000Y-4762500D01*
X14795500Y-4675000D01*
X14708000Y-4762500D01*
X14795500Y-4850000D01*
X15684500Y-2945000D02*
X15772000Y-2857500D01*
X15684500Y-2770000D01*
X15597000Y-2857500D01*
X15684500Y-2945000D01*
X15684500Y-4850000D02*
X15772000Y-4762500D01*
X15684500Y-4675000D01*
X15597000Y-4762500D01*
X15684500Y-4850000D01*
X15748000Y-6755000D02*
X15835500Y-6667500D01*
X15748000Y-6580000D01*
X15660500Y-6667500D01*
X15748000Y-6755000D01*
X16637000Y-6755000D02*
X16724500Y-6667500D01*
X16637000Y-6580000D01*
X16549500Y-6667500D01*
X16637000Y-6755000D01*
X16700500Y-2945000D02*
X16788000Y-2857500D01*
X16700500Y-2770000D01*
X16613000Y-2857500D01*
X16700500Y-2945000D01*
X16700500Y-4850000D02*
X16788000Y-4762500D01*
X16700500Y-4675000D01*
X16613000Y-4762500D01*
X16700500Y-4850000D01*
X17589500Y-2945000D02*
X17677000Y-2857500D01*
X17589500Y-2770000D01*
X17502000Y-2857500D01*
X17589500Y-2945000D01*
X17589500Y-4850000D02*
X17677000Y-4762500D01*
X17589500Y-4675000D01*
X17502000Y-4762500D01*
X17589500Y-4850000D01*
X17653000Y-6755000D02*
X17740500Y-6667500D01*
X17653000Y-6580000D01*
X17565500Y-6667500D01*
X17653000Y-6755000D01*
X18542000Y-6755000D02*
X18629500Y-6667500D01*
X18542000Y-6580000D01*
X18454500Y-6667500D01*
X18542000Y-6755000D01*
X18605500Y-2945000D02*
X18693000Y-2857500D01*
X18605500Y-2770000D01*
X18518000Y-2857500D01*
X18605500Y-2945000D01*
X18605500Y-4850000D02*
X18693000Y-4762500D01*
X18605500Y-4675000D01*
X18518000Y-4762500D01*
X18605500Y-4850000D01*
X19494500Y-2945000D02*
X19582000Y-2857500D01*
X19494500Y-2770000D01*
X19407000Y-2857500D01*
X19494500Y-2945000D01*
X19494500Y-4850000D02*
X19582000Y-4762500D01*
X19494500Y-4675000D01*
X19407000Y-4762500D01*
X19494500Y-4850000D01*
X19558000Y-6755000D02*
X19645500Y-6667500D01*
X19558000Y-6580000D01*
X19470500Y-6667500D01*
X19558000Y-6755000D01*
X20510500Y-2945000D02*
X20598000Y-2857500D01*
X20510500Y-2770000D01*
X20423000Y-2857500D01*
X20510500Y-2945000D01*
X20510500Y-4850000D02*
X20598000Y-4762500D01*
X20510500Y-4675000D01*
X20423000Y-4762500D01*
X20510500Y-4850000D01*
X2658110Y-2658110D02*
X3056890Y-3056890D01*
X3056890Y-2658110D02*
X2658110Y-3056890D01*
X3056890Y-2857500D02*
G75*
G03*
X3056890Y-2857500I-199390J0D01*
G01*
X2658110Y-4563110D02*
X3056890Y-4961890D01*
X3056890Y-4563110D02*
X2658110Y-4961890D01*
X3056890Y-4762500D02*
G75*
G03*
X3056890Y-4762500I-199390J0D01*
G01*
X3610610Y-6468110D02*
X4009390Y-6866890D01*
X4009390Y-6468110D02*
X3610610Y-6866890D01*
X4009390Y-6667500D02*
G75*
G03*
X4009390Y-6667500I-199390J0D01*
G01*
X4563110Y-2658110D02*
X4961890Y-3056890D01*
X4961890Y-2658110D02*
X4563110Y-3056890D01*
X4961890Y-2857500D02*
G75*
G03*
X4961890Y-2857500I-199390J0D01*
G01*
X4563110Y-4563110D02*
X4961890Y-4961890D01*
X4961890Y-4563110D02*
X4563110Y-4961890D01*
X4961890Y-4762500D02*
G75*
G03*
X4961890Y-4762500I-199390J0D01*
G01*
X5515610Y-6468110D02*
X5914390Y-6866890D01*
X5914390Y-6468110D02*
X5515610Y-6866890D01*
X5914390Y-6667500D02*
G75*
G03*
X5914390Y-6667500I-199390J0D01*
G01*
X6468110Y-2658110D02*
X6866890Y-3056890D01*
X6866890Y-2658110D02*
X6468110Y-3056890D01*
X6866890Y-2857500D02*
G75*
G03*
X6866890Y-2857500I-199390J0D01*
G01*
X6468110Y-4563110D02*
X6866890Y-4961890D01*
X6866890Y-4563110D02*
X6468110Y-4961890D01*
X6866890Y-4762500D02*
G75*
G03*
X6866890Y-4762500I-199390J0D01*
G01*
X7420610Y-6468110D02*
X7819390Y-6866890D01*
X7819390Y-6468110D02*
X7420610Y-6866890D01*
X7819390Y-6667500D02*
G75*
G03*
X7819390Y-6667500I-199390J0D01*
G01*
X8373110Y-2658110D02*
X8771890Y-3056890D01*
X8771890Y-2658110D02*
X8373110Y-3056890D01*
X8771890Y-2857500D02*
G75*
G03*
X8771890Y-2857500I-199390J0D01*
G01*
X8373110Y-4563110D02*
X8771890Y-4961890D01*
X8771890Y-4563110D02*
X8373110Y-4961890D01*
X8771890Y-4762500D02*
G75*
G03*
X8771890Y-4762500I-199390J0D01*
G01*
X9325610Y-6468110D02*
X9724390Y-6866890D01*
X9724390Y-6468110D02*
X9325610Y-6866890D01*
X9724390Y-6667500D02*
G75*
G03*
X9724390Y-6667500I-199390J0D01*
G01*
X10278110Y-2658110D02*
X10676890Y-3056890D01*
X10676890Y-2658110D02*
X10278110Y-3056890D01*
X10676890Y-2857500D02*
G75*
G03*
X10676890Y-2857500I-199390J0D01*
G01*
X10278110Y-4563110D02*
X10676890Y-4961890D01*
X10676890Y-4563110D02*
X10278110Y-4961890D01*
X10676890Y-4762500D02*
G75*
G03*
X10676890Y-4762500I-199390J0D01*
G01*
X11230610Y-6468110D02*
X11629390Y-6866890D01*
X11629390Y-6468110D02*
X11230610Y-6866890D01*
X11629390Y-6667500D02*
G75*
G03*
X11629390Y-6667500I-199390J0D01*
G01*
X12183110Y-2658110D02*
X12581890Y-3056890D01*
X12581890Y-2658110D02*
X12183110Y-3056890D01*
X12581890Y-2857500D02*
G75*
G03*
X12581890Y-2857500I-199390J0D01*
G01*
X12183110Y-4563110D02*
X12581890Y-4961890D01*
X12581890Y-4563110D02*
X12183110Y-4961890D01*
X12581890Y-4762500D02*
G75*
G03*
X12581890Y-4762500I-199390J0D01*
G01*
X13135610Y-6468110D02*
X13534390Y-6866890D01*
X13534390Y-6468110D02*
X13135610Y-6866890D01*
X13534390Y-6667500D02*
G75*
G03*
X13534390Y-6667500I-199390J0D01*
G01*
X14088110Y-2658110D02*
X14486890Y-3056890D01*
X14486890Y-2658110D02*
X14088110Y-3056890D01*
X14486890Y-2857500D02*
G75*
G03*
X14486890Y-2857500I-199390J0D01*
G01*
X14088110Y-4563110D02*
X14486890Y-4961890D01*
X14486890Y-4563110D02*
X14088110Y-4961890D01*
X14486890Y-4762500D02*
G75*
G03*
X14486890Y-4762500I-199390J0D01*
G01*
X15040610Y-6468110D02*
X15439390Y-6866890D01*
X15439390Y-6468110D02*
X15040610Y-6866890D01*
X15439390Y-6667500D02*
G75*
G03*
X15439390Y-6667500I-199390J0D01*
G01*
X15993110Y-2658110D02*
X16391890Y-3056890D01*
X16391890Y-2658110D02*
X15993110Y-3056890D01*
X16391890Y-2857500D02*
G75*
G03*
X16391890Y-2857500I-199390J0D01*
G01*
X15993110Y-4563110D02*
X16391890Y-4961890D01*
X16391890Y-4563110D02*
X15993110Y-4961890D01*
X16391890Y-4762500D02*
G75*
G03*
X16391890Y-4762500I-199390J0D01*
G01*
X16945610Y-6468110D02*
X17344390Y-6866890D01*
X17344390Y-6468110D02*
X16945610Y-6866890D01*
X17344390Y-6667500D02*
G75*
G03*
X17344390Y-6667500I-199390J0D01*
G01*
X17898110Y-2658110D02*
X18296890Y-3056890D01*
X18296890Y-2658110D02*
X17898110Y-3056890D01*
X18296890Y-2857500D02*
G75*
G03*
X18296890Y-2857500I-199390J0D01*
G01*
X17898110Y-4563110D02*
X18296890Y-4961890D01*
X18296890Y-4563110D02*
X17898110Y-4961890D01*
X18296890Y-4762500D02*
G75*
G03*
X18296890Y-4762500I-199390J0D01*
G01*
X18850610Y-6468110D02*
X19249390Y-6866890D01*
X19249390Y-6468110D02*
X18850610Y-6866890D01*
X19249390Y-6667500D02*
G75*
G03*
X19249390Y-6667500I-199390J0D01*
G01*
X19803110Y-2658110D02*
X20201890Y-3056890D01*
X20201890Y-2658110D02*
X19803110Y-3056890D01*
X20201890Y-2857500D02*
G75*
G03*
X20201890Y-2857500I-199390J0D01*
G01*
X19803110Y-4563110D02*
X20201890Y-4961890D01*
X20201890Y-4563110D02*
X19803110Y-4961890D01*
X20201890Y-4762500D02*
G75*
G03*
X20201890Y-4762500I-199390J0D01*
G01*
D12*
X1881428Y-8227814D02*
X1881428Y-7927814D01*
X1952857Y-7927814D01*
X1995714Y-7942100D01*
X2024286Y-7970671D01*
X2038571Y-7999243D01*
X2052857Y-8056386D01*
X2052857Y-8099243D01*
X2038571Y-8156386D01*
X2024286Y-8184957D01*
X1995714Y-8213529D01*
X1952857Y-8227814D01*
X1881428Y-8227814D01*
X2181428Y-8227814D02*
X2181428Y-8027814D01*
X2181428Y-8084957D02*
X2195714Y-8056386D01*
X2210000Y-8042100D01*
X2238571Y-8027814D01*
X2267143Y-8027814D01*
X2367143Y-8227814D02*
X2367143Y-8027814D01*
X2367143Y-7927814D02*
X2352857Y-7942100D01*
X2367143Y-7956386D01*
X2381428Y-7942100D01*
X2367143Y-7927814D01*
X2367143Y-7956386D01*
X2552857Y-8227814D02*
X2524286Y-8213529D01*
X2510000Y-8184957D01*
X2510000Y-7927814D01*
X2710000Y-8227814D02*
X2681428Y-8213529D01*
X2667143Y-8184957D01*
X2667143Y-7927814D01*
X3052857Y-8227814D02*
X3052857Y-7927814D01*
X3152857Y-8142100D01*
X3252857Y-7927814D01*
X3252857Y-8227814D01*
X3524286Y-8227814D02*
X3524286Y-8070671D01*
X3510000Y-8042100D01*
X3481428Y-8027814D01*
X3424286Y-8027814D01*
X3395714Y-8042100D01*
X3524286Y-8213529D02*
X3495714Y-8227814D01*
X3424286Y-8227814D01*
X3395714Y-8213529D01*
X3381428Y-8184957D01*
X3381428Y-8156386D01*
X3395714Y-8127814D01*
X3424286Y-8113529D01*
X3495714Y-8113529D01*
X3524286Y-8099243D01*
X3667143Y-8027814D02*
X3667143Y-8327814D01*
X3667143Y-8042100D02*
X3695714Y-8027814D01*
X3752857Y-8027814D01*
X3781428Y-8042100D01*
X3795714Y-8056386D01*
X3810000Y-8084957D01*
X3810000Y-8170671D01*
X3795714Y-8199243D01*
X3781428Y-8213529D01*
X3752857Y-8227814D01*
X3695714Y-8227814D01*
X3667143Y-8213529D01*
X3938571Y-8199243D02*
X3952857Y-8213529D01*
X3938571Y-8227814D01*
X3924286Y-8213529D01*
X3938571Y-8199243D01*
X3938571Y-8227814D01*
X3938571Y-8042100D02*
X3952857Y-8056386D01*
X3938571Y-8070671D01*
X3924286Y-8056386D01*
X3938571Y-8042100D01*
X3938571Y-8070671D01*
X1555000Y-8702100D02*
X1595000Y-8742100D01*
X1595000Y-8702100D02*
X1555000Y-8742100D01*
X1938571Y-8557814D02*
X1967143Y-8557814D01*
X1995714Y-8572100D01*
X2010000Y-8586386D01*
X2024286Y-8614957D01*
X2038571Y-8672100D01*
X2038571Y-8743529D01*
X2024286Y-8800672D01*
X2010000Y-8829243D01*
X1995714Y-8843529D01*
X1967143Y-8857814D01*
X1938571Y-8857814D01*
X1910000Y-8843529D01*
X1895714Y-8829243D01*
X1881428Y-8800672D01*
X1867143Y-8743529D01*
X1867143Y-8672100D01*
X1881428Y-8614957D01*
X1895714Y-8586386D01*
X1910000Y-8572100D01*
X1938571Y-8557814D01*
X2167143Y-8829243D02*
X2181428Y-8843529D01*
X2167143Y-8857814D01*
X2152857Y-8843529D01*
X2167143Y-8829243D01*
X2167143Y-8857814D01*
X2438571Y-8657814D02*
X2438571Y-8857814D01*
X2367143Y-8543529D02*
X2295714Y-8757814D01*
X2481428Y-8757814D01*
X2652857Y-8557814D02*
X2681428Y-8557814D01*
X2710000Y-8572100D01*
X2724286Y-8586386D01*
X2738571Y-8614957D01*
X2752857Y-8672100D01*
X2752857Y-8743529D01*
X2738571Y-8800672D01*
X2724286Y-8829243D01*
X2710000Y-8843529D01*
X2681428Y-8857814D01*
X2652857Y-8857814D01*
X2624286Y-8843529D01*
X2610000Y-8829243D01*
X2595714Y-8800672D01*
X2581428Y-8743529D01*
X2581428Y-8672100D01*
X2595714Y-8614957D01*
X2610000Y-8586386D01*
X2624286Y-8572100D01*
X2652857Y-8557814D01*
X2881428Y-8857814D02*
X2881428Y-8657814D01*
X2881428Y-8686386D02*
X2895714Y-8672100D01*
X2924286Y-8657814D01*
X2967143Y-8657814D01*
X2995714Y-8672100D01*
X3010000Y-8700672D01*
X3010000Y-8857814D01*
X3010000Y-8700672D02*
X3024286Y-8672100D01*
X3052857Y-8657814D01*
X3095714Y-8657814D01*
X3124286Y-8672100D01*
X3138571Y-8700672D01*
X3138571Y-8857814D01*
X3281428Y-8857814D02*
X3281428Y-8657814D01*
X3281428Y-8686386D02*
X3295714Y-8672100D01*
X3324286Y-8657814D01*
X3367143Y-8657814D01*
X3395714Y-8672100D01*
X3410000Y-8700672D01*
X3410000Y-8857814D01*
X3410000Y-8700672D02*
X3424286Y-8672100D01*
X3452857Y-8657814D01*
X3495714Y-8657814D01*
X3524286Y-8672100D01*
X3538571Y-8700672D01*
X3538571Y-8857814D01*
X4124286Y-8543529D02*
X3867143Y-8929243D01*
X4510000Y-8557814D02*
X4538571Y-8557814D01*
X4567143Y-8572100D01*
X4581428Y-8586386D01*
X4595714Y-8614957D01*
X4610000Y-8672100D01*
X4610000Y-8743529D01*
X4595714Y-8800672D01*
X4581428Y-8829243D01*
X4567143Y-8843529D01*
X4538571Y-8857814D01*
X4510000Y-8857814D01*
X4481428Y-8843529D01*
X4467143Y-8829243D01*
X4452857Y-8800672D01*
X4438571Y-8743529D01*
X4438571Y-8672100D01*
X4452857Y-8614957D01*
X4467143Y-8586386D01*
X4481428Y-8572100D01*
X4510000Y-8557814D01*
X4738571Y-8829243D02*
X4752857Y-8843529D01*
X4738571Y-8857814D01*
X4724286Y-8843529D01*
X4738571Y-8829243D01*
X4738571Y-8857814D01*
X4938571Y-8557814D02*
X4967143Y-8557814D01*
X4995714Y-8572100D01*
X5010000Y-8586386D01*
X5024286Y-8614957D01*
X5038571Y-8672100D01*
X5038571Y-8743529D01*
X5024286Y-8800672D01*
X5010000Y-8829243D01*
X4995714Y-8843529D01*
X4967143Y-8857814D01*
X4938571Y-8857814D01*
X4910000Y-8843529D01*
X4895714Y-8829243D01*
X4881428Y-8800672D01*
X4867143Y-8743529D01*
X4867143Y-8672100D01*
X4881428Y-8614957D01*
X4895714Y-8586386D01*
X4910000Y-8572100D01*
X4938571Y-8557814D01*
X5324286Y-8857814D02*
X5152857Y-8857814D01*
X5238571Y-8857814D02*
X5238571Y-8557814D01*
X5210000Y-8600672D01*
X5181428Y-8629243D01*
X5152857Y-8643529D01*
X5581428Y-8557814D02*
X5524286Y-8557814D01*
X5495714Y-8572100D01*
X5481428Y-8586386D01*
X5452857Y-8629243D01*
X5438571Y-8686386D01*
X5438571Y-8800672D01*
X5452857Y-8829243D01*
X5467143Y-8843529D01*
X5495714Y-8857814D01*
X5552857Y-8857814D01*
X5581428Y-8843529D01*
X5595714Y-8829243D01*
X5610000Y-8800672D01*
X5610000Y-8729243D01*
X5595714Y-8700672D01*
X5581428Y-8686386D01*
X5552857Y-8672100D01*
X5495714Y-8672100D01*
X5467143Y-8686386D01*
X5452857Y-8700672D01*
X5438571Y-8729243D01*
X5724286Y-8557814D02*
X5724286Y-8614957D01*
X5838571Y-8557814D02*
X5838571Y-8614957D01*
X6281428Y-8972100D02*
X6267143Y-8957814D01*
X6238571Y-8914957D01*
X6224286Y-8886386D01*
X6210000Y-8843529D01*
X6195714Y-8772100D01*
X6195714Y-8714957D01*
X6210000Y-8643529D01*
X6224286Y-8600672D01*
X6238571Y-8572100D01*
X6267143Y-8529243D01*
X6281428Y-8514957D01*
X6552857Y-8857814D02*
X6381428Y-8857814D01*
X6467143Y-8857814D02*
X6467143Y-8557814D01*
X6438571Y-8600672D01*
X6410000Y-8629243D01*
X6381428Y-8643529D01*
X6910000Y-8857814D02*
X6910000Y-8557814D01*
X7038571Y-8857814D02*
X7038571Y-8700672D01*
X7024286Y-8672100D01*
X6995714Y-8657814D01*
X6952857Y-8657814D01*
X6924286Y-8672100D01*
X6910000Y-8686386D01*
X7224286Y-8857814D02*
X7195714Y-8843529D01*
X7181428Y-8829243D01*
X7167143Y-8800672D01*
X7167143Y-8714957D01*
X7181428Y-8686386D01*
X7195714Y-8672100D01*
X7224286Y-8657814D01*
X7267143Y-8657814D01*
X7295714Y-8672100D01*
X7310000Y-8686386D01*
X7324286Y-8714957D01*
X7324286Y-8800672D01*
X7310000Y-8829243D01*
X7295714Y-8843529D01*
X7267143Y-8857814D01*
X7224286Y-8857814D01*
X7495714Y-8857814D02*
X7467143Y-8843529D01*
X7452857Y-8814957D01*
X7452857Y-8557814D01*
X7724286Y-8843529D02*
X7695714Y-8857814D01*
X7638571Y-8857814D01*
X7610000Y-8843529D01*
X7595714Y-8814957D01*
X7595714Y-8700672D01*
X7610000Y-8672100D01*
X7638571Y-8657814D01*
X7695714Y-8657814D01*
X7724286Y-8672100D01*
X7738571Y-8700672D01*
X7738571Y-8729243D01*
X7595714Y-8757814D01*
X7838571Y-8972100D02*
X7852857Y-8957814D01*
X7881428Y-8914957D01*
X7895714Y-8886386D01*
X7910000Y-8843529D01*
X7924286Y-8772100D01*
X7924286Y-8714957D01*
X7910000Y-8643529D01*
X7895714Y-8600672D01*
X7881428Y-8572100D01*
X7852857Y-8529243D01*
X7838571Y-8514957D01*
X1595000Y-9118100D02*
G75*
G03*
X1595000Y-9118100I-54610J0D01*
G01*
X2038571Y-9253814D02*
X1867143Y-9253814D01*
X1952857Y-9253814D02*
X1952857Y-8953814D01*
X1924286Y-8996672D01*
X1895714Y-9025243D01*
X1867143Y-9039529D01*
X2167143Y-9225243D02*
X2181428Y-9239529D01*
X2167143Y-9253814D01*
X2152857Y-9239529D01*
X2167143Y-9225243D01*
X2167143Y-9253814D01*
X2367143Y-8953814D02*
X2395714Y-8953814D01*
X2424286Y-8968100D01*
X2438571Y-8982386D01*
X2452857Y-9010957D01*
X2467143Y-9068100D01*
X2467143Y-9139529D01*
X2452857Y-9196672D01*
X2438571Y-9225243D01*
X2424286Y-9239529D01*
X2395714Y-9253814D01*
X2367143Y-9253814D01*
X2338571Y-9239529D01*
X2324286Y-9225243D01*
X2310000Y-9196672D01*
X2295714Y-9139529D01*
X2295714Y-9068100D01*
X2310000Y-9010957D01*
X2324286Y-8982386D01*
X2338571Y-8968100D01*
X2367143Y-8953814D01*
X2610000Y-9253814D02*
X2667143Y-9253814D01*
X2695714Y-9239529D01*
X2710000Y-9225243D01*
X2738571Y-9182386D01*
X2752857Y-9125243D01*
X2752857Y-9010957D01*
X2738571Y-8982386D01*
X2724286Y-8968100D01*
X2695714Y-8953814D01*
X2638571Y-8953814D01*
X2610000Y-8968100D01*
X2595714Y-8982386D01*
X2581428Y-9010957D01*
X2581428Y-9082386D01*
X2595714Y-9110957D01*
X2610000Y-9125243D01*
X2638571Y-9139529D01*
X2695714Y-9139529D01*
X2724286Y-9125243D01*
X2738571Y-9110957D01*
X2752857Y-9082386D01*
X2881428Y-9253814D02*
X2881428Y-9053814D01*
X2881428Y-9082386D02*
X2895714Y-9068100D01*
X2924286Y-9053814D01*
X2967143Y-9053814D01*
X2995714Y-9068100D01*
X3010000Y-9096672D01*
X3010000Y-9253814D01*
X3010000Y-9096672D02*
X3024286Y-9068100D01*
X3052857Y-9053814D01*
X3095714Y-9053814D01*
X3124286Y-9068100D01*
X3138571Y-9096672D01*
X3138571Y-9253814D01*
X3281428Y-9253814D02*
X3281428Y-9053814D01*
X3281428Y-9082386D02*
X3295714Y-9068100D01*
X3324286Y-9053814D01*
X3367143Y-9053814D01*
X3395714Y-9068100D01*
X3410000Y-9096672D01*
X3410000Y-9253814D01*
X3410000Y-9096672D02*
X3424286Y-9068100D01*
X3452857Y-9053814D01*
X3495714Y-9053814D01*
X3524286Y-9068100D01*
X3538571Y-9096672D01*
X3538571Y-9253814D01*
X4124286Y-8939529D02*
X3867143Y-9325243D01*
X4510000Y-8953814D02*
X4538571Y-8953814D01*
X4567143Y-8968100D01*
X4581428Y-8982386D01*
X4595714Y-9010957D01*
X4610000Y-9068100D01*
X4610000Y-9139529D01*
X4595714Y-9196672D01*
X4581428Y-9225243D01*
X4567143Y-9239529D01*
X4538571Y-9253814D01*
X4510000Y-9253814D01*
X4481428Y-9239529D01*
X4467143Y-9225243D01*
X4452857Y-9196672D01*
X4438571Y-9139529D01*
X4438571Y-9068100D01*
X4452857Y-9010957D01*
X4467143Y-8982386D01*
X4481428Y-8968100D01*
X4510000Y-8953814D01*
X4738571Y-9225243D02*
X4752857Y-9239529D01*
X4738571Y-9253814D01*
X4724286Y-9239529D01*
X4738571Y-9225243D01*
X4738571Y-9253814D01*
X4938571Y-8953814D02*
X4967143Y-8953814D01*
X4995714Y-8968100D01*
X5010000Y-8982386D01*
X5024286Y-9010957D01*
X5038571Y-9068100D01*
X5038571Y-9139529D01*
X5024286Y-9196672D01*
X5010000Y-9225243D01*
X4995714Y-9239529D01*
X4967143Y-9253814D01*
X4938571Y-9253814D01*
X4910000Y-9239529D01*
X4895714Y-9225243D01*
X4881428Y-9196672D01*
X4867143Y-9139529D01*
X4867143Y-9068100D01*
X4881428Y-9010957D01*
X4895714Y-8982386D01*
X4910000Y-8968100D01*
X4938571Y-8953814D01*
X5295714Y-9053814D02*
X5295714Y-9253814D01*
X5224286Y-8939529D02*
X5152857Y-9153814D01*
X5338571Y-9153814D01*
X5424286Y-8953814D02*
X5610000Y-8953814D01*
X5510000Y-9068100D01*
X5552857Y-9068100D01*
X5581428Y-9082386D01*
X5595714Y-9096672D01*
X5610000Y-9125243D01*
X5610000Y-9196672D01*
X5595714Y-9225243D01*
X5581428Y-9239529D01*
X5552857Y-9253814D01*
X5467143Y-9253814D01*
X5438571Y-9239529D01*
X5424286Y-9225243D01*
X5724286Y-8953814D02*
X5724286Y-9010957D01*
X5838571Y-8953814D02*
X5838571Y-9010957D01*
X6281428Y-9368100D02*
X6267143Y-9353814D01*
X6238571Y-9310957D01*
X6224286Y-9282386D01*
X6210000Y-9239529D01*
X6195714Y-9168100D01*
X6195714Y-9110957D01*
X6210000Y-9039529D01*
X6224286Y-8996672D01*
X6238571Y-8968100D01*
X6267143Y-8925243D01*
X6281428Y-8910957D01*
X6381428Y-8982386D02*
X6395714Y-8968100D01*
X6424286Y-8953814D01*
X6495714Y-8953814D01*
X6524286Y-8968100D01*
X6538571Y-8982386D01*
X6552857Y-9010957D01*
X6552857Y-9039529D01*
X6538571Y-9082386D01*
X6367143Y-9253814D01*
X6552857Y-9253814D01*
X6810000Y-9053814D02*
X6810000Y-9253814D01*
X6738571Y-8939529D02*
X6667143Y-9153814D01*
X6852857Y-9153814D01*
X7195714Y-9253814D02*
X7195714Y-8953814D01*
X7324286Y-9253814D02*
X7324286Y-9096672D01*
X7310000Y-9068100D01*
X7281428Y-9053814D01*
X7238571Y-9053814D01*
X7210000Y-9068100D01*
X7195714Y-9082386D01*
X7510000Y-9253814D02*
X7481428Y-9239529D01*
X7467143Y-9225243D01*
X7452857Y-9196672D01*
X7452857Y-9110957D01*
X7467143Y-9082386D01*
X7481428Y-9068100D01*
X7510000Y-9053814D01*
X7552857Y-9053814D01*
X7581428Y-9068100D01*
X7595714Y-9082386D01*
X7610000Y-9110957D01*
X7610000Y-9196672D01*
X7595714Y-9225243D01*
X7581428Y-9239529D01*
X7552857Y-9253814D01*
X7510000Y-9253814D01*
X7781428Y-9253814D02*
X7752857Y-9239529D01*
X7738571Y-9210957D01*
X7738571Y-8953814D01*
X8010000Y-9239529D02*
X7981428Y-9253814D01*
X7924286Y-9253814D01*
X7895714Y-9239529D01*
X7881428Y-9210957D01*
X7881428Y-9096672D01*
X7895714Y-9068100D01*
X7924286Y-9053814D01*
X7981428Y-9053814D01*
X8010000Y-9068100D01*
X8024286Y-9096672D01*
X8024286Y-9125243D01*
X7881428Y-9153814D01*
X8138571Y-9239529D02*
X8167143Y-9253814D01*
X8224286Y-9253814D01*
X8252857Y-9239529D01*
X8267143Y-9210957D01*
X8267143Y-9196672D01*
X8252857Y-9168100D01*
X8224286Y-9153814D01*
X8181428Y-9153814D01*
X8152857Y-9139529D01*
X8138571Y-9110957D01*
X8138571Y-9096672D01*
X8152857Y-9068100D01*
X8181428Y-9053814D01*
X8224286Y-9053814D01*
X8252857Y-9068100D01*
X8367143Y-9368100D02*
X8381428Y-9353814D01*
X8410000Y-9310957D01*
X8424286Y-9282386D01*
X8438571Y-9239529D01*
X8452857Y-9168100D01*
X8452857Y-9110957D01*
X8438571Y-9039529D01*
X8424286Y-8996672D01*
X8410000Y-8968100D01*
X8381428Y-8925243D01*
X8367143Y-8910957D01*
X1532500Y-9451600D02*
X1532500Y-9576600D01*
X1470000Y-9514100D02*
X1595000Y-9514100D01*
X2038571Y-9649814D02*
X1867143Y-9649814D01*
X1952857Y-9649814D02*
X1952857Y-9349814D01*
X1924286Y-9392672D01*
X1895714Y-9421243D01*
X1867143Y-9435529D01*
X2167143Y-9621243D02*
X2181428Y-9635529D01*
X2167143Y-9649814D01*
X2152857Y-9635529D01*
X2167143Y-9621243D01*
X2167143Y-9649814D01*
X2295714Y-9378386D02*
X2310000Y-9364100D01*
X2338571Y-9349814D01*
X2410000Y-9349814D01*
X2438571Y-9364100D01*
X2452857Y-9378386D01*
X2467143Y-9406957D01*
X2467143Y-9435529D01*
X2452857Y-9478386D01*
X2281428Y-9649814D01*
X2467143Y-9649814D01*
X2738571Y-9349814D02*
X2595714Y-9349814D01*
X2581428Y-9492672D01*
X2595714Y-9478386D01*
X2624286Y-9464100D01*
X2695714Y-9464100D01*
X2724286Y-9478386D01*
X2738571Y-9492672D01*
X2752857Y-9521243D01*
X2752857Y-9592672D01*
X2738571Y-9621243D01*
X2724286Y-9635529D01*
X2695714Y-9649814D01*
X2624286Y-9649814D01*
X2595714Y-9635529D01*
X2581428Y-9621243D01*
X2881428Y-9649814D02*
X2881428Y-9449814D01*
X2881428Y-9478386D02*
X2895714Y-9464100D01*
X2924286Y-9449814D01*
X2967143Y-9449814D01*
X2995714Y-9464100D01*
X3010000Y-9492672D01*
X3010000Y-9649814D01*
X3010000Y-9492672D02*
X3024286Y-9464100D01*
X3052857Y-9449814D01*
X3095714Y-9449814D01*
X3124286Y-9464100D01*
X3138571Y-9492672D01*
X3138571Y-9649814D01*
X3281428Y-9649814D02*
X3281428Y-9449814D01*
X3281428Y-9478386D02*
X3295714Y-9464100D01*
X3324286Y-9449814D01*
X3367143Y-9449814D01*
X3395714Y-9464100D01*
X3410000Y-9492672D01*
X3410000Y-9649814D01*
X3410000Y-9492672D02*
X3424286Y-9464100D01*
X3452857Y-9449814D01*
X3495714Y-9449814D01*
X3524286Y-9464100D01*
X3538571Y-9492672D01*
X3538571Y-9649814D01*
X4124286Y-9335529D02*
X3867143Y-9721243D01*
X4510000Y-9349814D02*
X4538571Y-9349814D01*
X4567143Y-9364100D01*
X4581428Y-9378386D01*
X4595714Y-9406957D01*
X4610000Y-9464100D01*
X4610000Y-9535529D01*
X4595714Y-9592672D01*
X4581428Y-9621243D01*
X4567143Y-9635529D01*
X4538571Y-9649814D01*
X4510000Y-9649814D01*
X4481428Y-9635529D01*
X4467143Y-9621243D01*
X4452857Y-9592672D01*
X4438571Y-9535529D01*
X4438571Y-9464100D01*
X4452857Y-9406957D01*
X4467143Y-9378386D01*
X4481428Y-9364100D01*
X4510000Y-9349814D01*
X4738571Y-9621243D02*
X4752857Y-9635529D01*
X4738571Y-9649814D01*
X4724286Y-9635529D01*
X4738571Y-9621243D01*
X4738571Y-9649814D01*
X4938571Y-9349814D02*
X4967143Y-9349814D01*
X4995714Y-9364100D01*
X5010000Y-9378386D01*
X5024286Y-9406957D01*
X5038571Y-9464100D01*
X5038571Y-9535529D01*
X5024286Y-9592672D01*
X5010000Y-9621243D01*
X4995714Y-9635529D01*
X4967143Y-9649814D01*
X4938571Y-9649814D01*
X4910000Y-9635529D01*
X4895714Y-9621243D01*
X4881428Y-9592672D01*
X4867143Y-9535529D01*
X4867143Y-9464100D01*
X4881428Y-9406957D01*
X4895714Y-9378386D01*
X4910000Y-9364100D01*
X4938571Y-9349814D01*
X5295714Y-9449814D02*
X5295714Y-9649814D01*
X5224286Y-9335529D02*
X5152857Y-9549814D01*
X5338571Y-9549814D01*
X5467143Y-9649814D02*
X5524286Y-9649814D01*
X5552857Y-9635529D01*
X5567143Y-9621243D01*
X5595714Y-9578386D01*
X5610000Y-9521243D01*
X5610000Y-9406957D01*
X5595714Y-9378386D01*
X5581428Y-9364100D01*
X5552857Y-9349814D01*
X5495714Y-9349814D01*
X5467143Y-9364100D01*
X5452857Y-9378386D01*
X5438571Y-9406957D01*
X5438571Y-9478386D01*
X5452857Y-9506957D01*
X5467143Y-9521243D01*
X5495714Y-9535529D01*
X5552857Y-9535529D01*
X5581428Y-9521243D01*
X5595714Y-9506957D01*
X5610000Y-9478386D01*
X5724286Y-9349814D02*
X5724286Y-9406957D01*
X5838571Y-9349814D02*
X5838571Y-9406957D01*
X6281428Y-9764100D02*
X6267143Y-9749814D01*
X6238571Y-9706957D01*
X6224286Y-9678386D01*
X6210000Y-9635529D01*
X6195714Y-9564100D01*
X6195714Y-9506957D01*
X6210000Y-9435529D01*
X6224286Y-9392672D01*
X6238571Y-9364100D01*
X6267143Y-9321243D01*
X6281428Y-9306957D01*
X6538571Y-9349814D02*
X6395714Y-9349814D01*
X6381428Y-9492672D01*
X6395714Y-9478386D01*
X6424286Y-9464100D01*
X6495714Y-9464100D01*
X6524286Y-9478386D01*
X6538571Y-9492672D01*
X6552857Y-9521243D01*
X6552857Y-9592672D01*
X6538571Y-9621243D01*
X6524286Y-9635529D01*
X6495714Y-9649814D01*
X6424286Y-9649814D01*
X6395714Y-9635529D01*
X6381428Y-9621243D01*
X6724286Y-9478386D02*
X6695714Y-9464100D01*
X6681428Y-9449814D01*
X6667143Y-9421243D01*
X6667143Y-9406957D01*
X6681428Y-9378386D01*
X6695714Y-9364100D01*
X6724286Y-9349814D01*
X6781428Y-9349814D01*
X6810000Y-9364100D01*
X6824286Y-9378386D01*
X6838571Y-9406957D01*
X6838571Y-9421243D01*
X6824286Y-9449814D01*
X6810000Y-9464100D01*
X6781428Y-9478386D01*
X6724286Y-9478386D01*
X6695714Y-9492672D01*
X6681428Y-9506957D01*
X6667143Y-9535529D01*
X6667143Y-9592672D01*
X6681428Y-9621243D01*
X6695714Y-9635529D01*
X6724286Y-9649814D01*
X6781428Y-9649814D01*
X6810000Y-9635529D01*
X6824286Y-9621243D01*
X6838571Y-9592672D01*
X6838571Y-9535529D01*
X6824286Y-9506957D01*
X6810000Y-9492672D01*
X6781428Y-9478386D01*
X7195714Y-9649814D02*
X7195714Y-9349814D01*
X7324286Y-9649814D02*
X7324286Y-9492672D01*
X7310000Y-9464100D01*
X7281428Y-9449814D01*
X7238571Y-9449814D01*
X7210000Y-9464100D01*
X7195714Y-9478386D01*
X7510000Y-9649814D02*
X7481428Y-9635529D01*
X7467143Y-9621243D01*
X7452857Y-9592672D01*
X7452857Y-9506957D01*
X7467143Y-9478386D01*
X7481428Y-9464100D01*
X7510000Y-9449814D01*
X7552857Y-9449814D01*
X7581428Y-9464100D01*
X7595714Y-9478386D01*
X7610000Y-9506957D01*
X7610000Y-9592672D01*
X7595714Y-9621243D01*
X7581428Y-9635529D01*
X7552857Y-9649814D01*
X7510000Y-9649814D01*
X7781428Y-9649814D02*
X7752857Y-9635529D01*
X7738571Y-9606957D01*
X7738571Y-9349814D01*
X8010000Y-9635529D02*
X7981428Y-9649814D01*
X7924286Y-9649814D01*
X7895714Y-9635529D01*
X7881428Y-9606957D01*
X7881428Y-9492672D01*
X7895714Y-9464100D01*
X7924286Y-9449814D01*
X7981428Y-9449814D01*
X8010000Y-9464100D01*
X8024286Y-9492672D01*
X8024286Y-9521243D01*
X7881428Y-9549814D01*
X8138571Y-9635529D02*
X8167143Y-9649814D01*
X8224286Y-9649814D01*
X8252857Y-9635529D01*
X8267143Y-9606957D01*
X8267143Y-9592672D01*
X8252857Y-9564100D01*
X8224286Y-9549814D01*
X8181428Y-9549814D01*
X8152857Y-9535529D01*
X8138571Y-9506957D01*
X8138571Y-9492672D01*
X8152857Y-9464100D01*
X8181428Y-9449814D01*
X8224286Y-9449814D01*
X8252857Y-9464100D01*
X8367143Y-9764100D02*
X8381428Y-9749814D01*
X8410000Y-9706957D01*
X8424286Y-9678386D01*
X8438571Y-9635529D01*
X8452857Y-9564100D01*
X8452857Y-9506957D01*
X8438571Y-9435529D01*
X8424286Y-9392672D01*
X8410000Y-9364100D01*
X8381428Y-9321243D01*
X8367143Y-9306957D01*
X1548138Y-10023238D02*
X1548138Y-9796962D01*
X1321862Y-9796962D01*
X1321862Y-10023238D01*
X1548138Y-10023238D01*
X1852857Y-9745814D02*
X2038571Y-9745814D01*
X1938571Y-9860100D01*
X1981428Y-9860100D01*
X2010000Y-9874386D01*
X2024286Y-9888672D01*
X2038571Y-9917243D01*
X2038571Y-9988672D01*
X2024286Y-10017243D01*
X2010000Y-10031529D01*
X1981428Y-10045814D01*
X1895714Y-10045814D01*
X1867143Y-10031529D01*
X1852857Y-10017243D01*
X2167143Y-10017243D02*
X2181428Y-10031529D01*
X2167143Y-10045814D01*
X2152857Y-10031529D01*
X2167143Y-10017243D01*
X2167143Y-10045814D01*
X2295714Y-9774386D02*
X2310000Y-9760100D01*
X2338571Y-9745814D01*
X2410000Y-9745814D01*
X2438571Y-9760100D01*
X2452857Y-9774386D01*
X2467143Y-9802957D01*
X2467143Y-9831529D01*
X2452857Y-9874386D01*
X2281428Y-10045814D01*
X2467143Y-10045814D01*
X2652857Y-9745814D02*
X2681428Y-9745814D01*
X2710000Y-9760100D01*
X2724286Y-9774386D01*
X2738571Y-9802957D01*
X2752857Y-9860100D01*
X2752857Y-9931529D01*
X2738571Y-9988672D01*
X2724286Y-10017243D01*
X2710000Y-10031529D01*
X2681428Y-10045814D01*
X2652857Y-10045814D01*
X2624286Y-10031529D01*
X2610000Y-10017243D01*
X2595714Y-9988672D01*
X2581428Y-9931529D01*
X2581428Y-9860100D01*
X2595714Y-9802957D01*
X2610000Y-9774386D01*
X2624286Y-9760100D01*
X2652857Y-9745814D01*
X2881428Y-10045814D02*
X2881428Y-9845814D01*
X2881428Y-9874386D02*
X2895714Y-9860100D01*
X2924286Y-9845814D01*
X2967143Y-9845814D01*
X2995714Y-9860100D01*
X3010000Y-9888672D01*
X3010000Y-10045814D01*
X3010000Y-9888672D02*
X3024286Y-9860100D01*
X3052857Y-9845814D01*
X3095714Y-9845814D01*
X3124286Y-9860100D01*
X3138571Y-9888672D01*
X3138571Y-10045814D01*
X3281428Y-10045814D02*
X3281428Y-9845814D01*
X3281428Y-9874386D02*
X3295714Y-9860100D01*
X3324286Y-9845814D01*
X3367143Y-9845814D01*
X3395714Y-9860100D01*
X3410000Y-9888672D01*
X3410000Y-10045814D01*
X3410000Y-9888672D02*
X3424286Y-9860100D01*
X3452857Y-9845814D01*
X3495714Y-9845814D01*
X3524286Y-9860100D01*
X3538571Y-9888672D01*
X3538571Y-10045814D01*
X4124286Y-9731529D02*
X3867143Y-10117243D01*
X4510000Y-9745814D02*
X4538571Y-9745814D01*
X4567143Y-9760100D01*
X4581428Y-9774386D01*
X4595714Y-9802957D01*
X4610000Y-9860100D01*
X4610000Y-9931529D01*
X4595714Y-9988672D01*
X4581428Y-10017243D01*
X4567143Y-10031529D01*
X4538571Y-10045814D01*
X4510000Y-10045814D01*
X4481428Y-10031529D01*
X4467143Y-10017243D01*
X4452857Y-9988672D01*
X4438571Y-9931529D01*
X4438571Y-9860100D01*
X4452857Y-9802957D01*
X4467143Y-9774386D01*
X4481428Y-9760100D01*
X4510000Y-9745814D01*
X4738571Y-10017243D02*
X4752857Y-10031529D01*
X4738571Y-10045814D01*
X4724286Y-10031529D01*
X4738571Y-10017243D01*
X4738571Y-10045814D01*
X5038571Y-10045814D02*
X4867143Y-10045814D01*
X4952857Y-10045814D02*
X4952857Y-9745814D01*
X4924286Y-9788672D01*
X4895714Y-9817243D01*
X4867143Y-9831529D01*
X5152857Y-9774386D02*
X5167143Y-9760100D01*
X5195714Y-9745814D01*
X5267143Y-9745814D01*
X5295714Y-9760100D01*
X5310000Y-9774386D01*
X5324286Y-9802957D01*
X5324286Y-9831529D01*
X5310000Y-9874386D01*
X5138571Y-10045814D01*
X5324286Y-10045814D01*
X5581428Y-9745814D02*
X5524286Y-9745814D01*
X5495714Y-9760100D01*
X5481428Y-9774386D01*
X5452857Y-9817243D01*
X5438571Y-9874386D01*
X5438571Y-9988672D01*
X5452857Y-10017243D01*
X5467143Y-10031529D01*
X5495714Y-10045814D01*
X5552857Y-10045814D01*
X5581428Y-10031529D01*
X5595714Y-10017243D01*
X5610000Y-9988672D01*
X5610000Y-9917243D01*
X5595714Y-9888672D01*
X5581428Y-9874386D01*
X5552857Y-9860100D01*
X5495714Y-9860100D01*
X5467143Y-9874386D01*
X5452857Y-9888672D01*
X5438571Y-9917243D01*
X5724286Y-9745814D02*
X5724286Y-9802957D01*
X5838571Y-9745814D02*
X5838571Y-9802957D01*
X6281428Y-10160100D02*
X6267143Y-10145814D01*
X6238571Y-10102957D01*
X6224286Y-10074386D01*
X6210000Y-10031529D01*
X6195714Y-9960100D01*
X6195714Y-9902957D01*
X6210000Y-9831529D01*
X6224286Y-9788672D01*
X6238571Y-9760100D01*
X6267143Y-9717243D01*
X6281428Y-9702957D01*
X6524286Y-9845814D02*
X6524286Y-10045814D01*
X6452857Y-9731529D02*
X6381428Y-9945814D01*
X6567143Y-9945814D01*
X6910000Y-10045814D02*
X6910000Y-9745814D01*
X7038571Y-10045814D02*
X7038571Y-9888672D01*
X7024286Y-9860100D01*
X6995714Y-9845814D01*
X6952857Y-9845814D01*
X6924286Y-9860100D01*
X6910000Y-9874386D01*
X7224286Y-10045814D02*
X7195714Y-10031529D01*
X7181428Y-10017243D01*
X7167143Y-9988672D01*
X7167143Y-9902957D01*
X7181428Y-9874386D01*
X7195714Y-9860100D01*
X7224286Y-9845814D01*
X7267143Y-9845814D01*
X7295714Y-9860100D01*
X7310000Y-9874386D01*
X7324286Y-9902957D01*
X7324286Y-9988672D01*
X7310000Y-10017243D01*
X7295714Y-10031529D01*
X7267143Y-10045814D01*
X7224286Y-10045814D01*
X7495714Y-10045814D02*
X7467143Y-10031529D01*
X7452857Y-10002957D01*
X7452857Y-9745814D01*
X7724286Y-10031529D02*
X7695714Y-10045814D01*
X7638571Y-10045814D01*
X7610000Y-10031529D01*
X7595714Y-10002957D01*
X7595714Y-9888672D01*
X7610000Y-9860100D01*
X7638571Y-9845814D01*
X7695714Y-9845814D01*
X7724286Y-9860100D01*
X7738571Y-9888672D01*
X7738571Y-9917243D01*
X7595714Y-9945814D01*
X7852857Y-10031529D02*
X7881428Y-10045814D01*
X7938571Y-10045814D01*
X7967143Y-10031529D01*
X7981428Y-10002957D01*
X7981428Y-9988672D01*
X7967143Y-9960100D01*
X7938571Y-9945814D01*
X7895714Y-9945814D01*
X7867143Y-9931529D01*
X7852857Y-9902957D01*
X7852857Y-9888672D01*
X7867143Y-9860100D01*
X7895714Y-9845814D01*
X7938571Y-9845814D01*
X7967143Y-9860100D01*
X8081428Y-10160100D02*
X8095714Y-10145814D01*
X8124286Y-10102957D01*
X8138571Y-10074386D01*
X8152857Y-10031529D01*
X8167143Y-9960100D01*
X8167143Y-9902957D01*
X8152857Y-9831529D01*
X8138571Y-9788672D01*
X8124286Y-9760100D01*
X8095714Y-9717243D01*
X8081428Y-9702957D01*
X1507500Y-10447600D02*
X1595000Y-10360100D01*
X1507500Y-10272600D01*
X1420000Y-10360100D01*
X1507500Y-10447600D01*
X2038571Y-10495814D02*
X1867143Y-10495814D01*
X1952857Y-10495814D02*
X1952857Y-10195814D01*
X1924286Y-10238672D01*
X1895714Y-10267243D01*
X1867143Y-10281529D01*
X2167143Y-10467243D02*
X2181428Y-10481529D01*
X2167143Y-10495814D01*
X2152857Y-10481529D01*
X2167143Y-10467243D01*
X2167143Y-10495814D01*
X2281428Y-10195814D02*
X2481428Y-10195814D01*
X2352857Y-10495814D01*
X2738571Y-10195814D02*
X2595714Y-10195814D01*
X2581428Y-10338672D01*
X2595714Y-10324386D01*
X2624286Y-10310100D01*
X2695714Y-10310100D01*
X2724286Y-10324386D01*
X2738571Y-10338672D01*
X2752857Y-10367243D01*
X2752857Y-10438672D01*
X2738571Y-10467243D01*
X2724286Y-10481529D01*
X2695714Y-10495814D01*
X2624286Y-10495814D01*
X2595714Y-10481529D01*
X2581428Y-10467243D01*
X2881428Y-10495814D02*
X2881428Y-10295814D01*
X2881428Y-10324386D02*
X2895714Y-10310100D01*
X2924286Y-10295814D01*
X2967143Y-10295814D01*
X2995714Y-10310100D01*
X3010000Y-10338672D01*
X3010000Y-10495814D01*
X3010000Y-10338672D02*
X3024286Y-10310100D01*
X3052857Y-10295814D01*
X3095714Y-10295814D01*
X3124286Y-10310100D01*
X3138571Y-10338672D01*
X3138571Y-10495814D01*
X3281428Y-10495814D02*
X3281428Y-10295814D01*
X3281428Y-10324386D02*
X3295714Y-10310100D01*
X3324286Y-10295814D01*
X3367143Y-10295814D01*
X3395714Y-10310100D01*
X3410000Y-10338672D01*
X3410000Y-10495814D01*
X3410000Y-10338672D02*
X3424286Y-10310100D01*
X3452857Y-10295814D01*
X3495714Y-10295814D01*
X3524286Y-10310100D01*
X3538571Y-10338672D01*
X3538571Y-10495814D01*
X4124286Y-10181529D02*
X3867143Y-10567243D01*
X4510000Y-10195814D02*
X4538571Y-10195814D01*
X4567143Y-10210100D01*
X4581428Y-10224386D01*
X4595714Y-10252957D01*
X4610000Y-10310100D01*
X4610000Y-10381529D01*
X4595714Y-10438672D01*
X4581428Y-10467243D01*
X4567143Y-10481529D01*
X4538571Y-10495814D01*
X4510000Y-10495814D01*
X4481428Y-10481529D01*
X4467143Y-10467243D01*
X4452857Y-10438672D01*
X4438571Y-10381529D01*
X4438571Y-10310100D01*
X4452857Y-10252957D01*
X4467143Y-10224386D01*
X4481428Y-10210100D01*
X4510000Y-10195814D01*
X4738571Y-10467243D02*
X4752857Y-10481529D01*
X4738571Y-10495814D01*
X4724286Y-10481529D01*
X4738571Y-10467243D01*
X4738571Y-10495814D01*
X4938571Y-10195814D02*
X4967143Y-10195814D01*
X4995714Y-10210100D01*
X5010000Y-10224386D01*
X5024286Y-10252957D01*
X5038571Y-10310100D01*
X5038571Y-10381529D01*
X5024286Y-10438672D01*
X5010000Y-10467243D01*
X4995714Y-10481529D01*
X4967143Y-10495814D01*
X4938571Y-10495814D01*
X4910000Y-10481529D01*
X4895714Y-10467243D01*
X4881428Y-10438672D01*
X4867143Y-10381529D01*
X4867143Y-10310100D01*
X4881428Y-10252957D01*
X4895714Y-10224386D01*
X4910000Y-10210100D01*
X4938571Y-10195814D01*
X5295714Y-10195814D02*
X5238571Y-10195814D01*
X5210000Y-10210100D01*
X5195714Y-10224386D01*
X5167143Y-10267243D01*
X5152857Y-10324386D01*
X5152857Y-10438672D01*
X5167143Y-10467243D01*
X5181428Y-10481529D01*
X5210000Y-10495814D01*
X5267143Y-10495814D01*
X5295714Y-10481529D01*
X5310000Y-10467243D01*
X5324286Y-10438672D01*
X5324286Y-10367243D01*
X5310000Y-10338672D01*
X5295714Y-10324386D01*
X5267143Y-10310100D01*
X5210000Y-10310100D01*
X5181428Y-10324386D01*
X5167143Y-10338672D01*
X5152857Y-10367243D01*
X5467143Y-10495814D02*
X5524286Y-10495814D01*
X5552857Y-10481529D01*
X5567143Y-10467243D01*
X5595714Y-10424386D01*
X5610000Y-10367243D01*
X5610000Y-10252957D01*
X5595714Y-10224386D01*
X5581428Y-10210100D01*
X5552857Y-10195814D01*
X5495714Y-10195814D01*
X5467143Y-10210100D01*
X5452857Y-10224386D01*
X5438571Y-10252957D01*
X5438571Y-10324386D01*
X5452857Y-10352957D01*
X5467143Y-10367243D01*
X5495714Y-10381529D01*
X5552857Y-10381529D01*
X5581428Y-10367243D01*
X5595714Y-10352957D01*
X5610000Y-10324386D01*
X5724286Y-10195814D02*
X5724286Y-10252957D01*
X5838571Y-10195814D02*
X5838571Y-10252957D01*
X6281428Y-10610100D02*
X6267143Y-10595814D01*
X6238571Y-10552957D01*
X6224286Y-10524386D01*
X6210000Y-10481529D01*
X6195714Y-10410100D01*
X6195714Y-10352957D01*
X6210000Y-10281529D01*
X6224286Y-10238672D01*
X6238571Y-10210100D01*
X6267143Y-10167243D01*
X6281428Y-10152957D01*
X6538571Y-10195814D02*
X6395714Y-10195814D01*
X6381428Y-10338672D01*
X6395714Y-10324386D01*
X6424286Y-10310100D01*
X6495714Y-10310100D01*
X6524286Y-10324386D01*
X6538571Y-10338672D01*
X6552857Y-10367243D01*
X6552857Y-10438672D01*
X6538571Y-10467243D01*
X6524286Y-10481529D01*
X6495714Y-10495814D01*
X6424286Y-10495814D01*
X6395714Y-10481529D01*
X6381428Y-10467243D01*
X6724286Y-10324386D02*
X6695714Y-10310100D01*
X6681428Y-10295814D01*
X6667143Y-10267243D01*
X6667143Y-10252957D01*
X6681428Y-10224386D01*
X6695714Y-10210100D01*
X6724286Y-10195814D01*
X6781428Y-10195814D01*
X6810000Y-10210100D01*
X6824286Y-10224386D01*
X6838571Y-10252957D01*
X6838571Y-10267243D01*
X6824286Y-10295814D01*
X6810000Y-10310100D01*
X6781428Y-10324386D01*
X6724286Y-10324386D01*
X6695714Y-10338672D01*
X6681428Y-10352957D01*
X6667143Y-10381529D01*
X6667143Y-10438672D01*
X6681428Y-10467243D01*
X6695714Y-10481529D01*
X6724286Y-10495814D01*
X6781428Y-10495814D01*
X6810000Y-10481529D01*
X6824286Y-10467243D01*
X6838571Y-10438672D01*
X6838571Y-10381529D01*
X6824286Y-10352957D01*
X6810000Y-10338672D01*
X6781428Y-10324386D01*
X7195714Y-10495814D02*
X7195714Y-10195814D01*
X7324286Y-10495814D02*
X7324286Y-10338672D01*
X7310000Y-10310100D01*
X7281428Y-10295814D01*
X7238571Y-10295814D01*
X7210000Y-10310100D01*
X7195714Y-10324386D01*
X7510000Y-10495814D02*
X7481428Y-10481529D01*
X7467143Y-10467243D01*
X7452857Y-10438672D01*
X7452857Y-10352957D01*
X7467143Y-10324386D01*
X7481428Y-10310100D01*
X7510000Y-10295814D01*
X7552857Y-10295814D01*
X7581428Y-10310100D01*
X7595714Y-10324386D01*
X7610000Y-10352957D01*
X7610000Y-10438672D01*
X7595714Y-10467243D01*
X7581428Y-10481529D01*
X7552857Y-10495814D01*
X7510000Y-10495814D01*
X7781428Y-10495814D02*
X7752857Y-10481529D01*
X7738571Y-10452957D01*
X7738571Y-10195814D01*
X8010000Y-10481529D02*
X7981428Y-10495814D01*
X7924286Y-10495814D01*
X7895714Y-10481529D01*
X7881428Y-10452957D01*
X7881428Y-10338672D01*
X7895714Y-10310100D01*
X7924286Y-10295814D01*
X7981428Y-10295814D01*
X8010000Y-10310100D01*
X8024286Y-10338672D01*
X8024286Y-10367243D01*
X7881428Y-10395814D01*
X8138571Y-10481529D02*
X8167143Y-10495814D01*
X8224286Y-10495814D01*
X8252857Y-10481529D01*
X8267143Y-10452957D01*
X8267143Y-10438672D01*
X8252857Y-10410100D01*
X8224286Y-10395814D01*
X8181428Y-10395814D01*
X8152857Y-10381529D01*
X8138571Y-10352957D01*
X8138571Y-10338672D01*
X8152857Y-10310100D01*
X8181428Y-10295814D01*
X8224286Y-10295814D01*
X8252857Y-10310100D01*
X8367143Y-10610100D02*
X8381428Y-10595814D01*
X8410000Y-10552957D01*
X8424286Y-10524386D01*
X8438571Y-10481529D01*
X8452857Y-10410100D01*
X8452857Y-10352957D01*
X8438571Y-10281529D01*
X8424286Y-10238672D01*
X8410000Y-10210100D01*
X8381428Y-10167243D01*
X8367143Y-10152957D01*
X8910000Y-10610100D02*
X8895714Y-10595814D01*
X8867143Y-10552957D01*
X8852857Y-10524386D01*
X8838571Y-10481529D01*
X8824286Y-10410100D01*
X8824286Y-10352957D01*
X8838571Y-10281529D01*
X8852857Y-10238672D01*
X8867143Y-10210100D01*
X8895714Y-10167243D01*
X8910000Y-10152957D01*
X9024286Y-10295814D02*
X9024286Y-10495814D01*
X9024286Y-10324386D02*
X9038571Y-10310100D01*
X9067143Y-10295814D01*
X9110000Y-10295814D01*
X9138571Y-10310100D01*
X9152857Y-10338672D01*
X9152857Y-10495814D01*
X9338571Y-10495814D02*
X9310000Y-10481529D01*
X9295714Y-10467243D01*
X9281428Y-10438672D01*
X9281428Y-10352957D01*
X9295714Y-10324386D01*
X9310000Y-10310100D01*
X9338571Y-10295814D01*
X9381428Y-10295814D01*
X9410000Y-10310100D01*
X9424286Y-10324386D01*
X9438571Y-10352957D01*
X9438571Y-10438672D01*
X9424286Y-10467243D01*
X9410000Y-10481529D01*
X9381428Y-10495814D01*
X9338571Y-10495814D01*
X9524286Y-10295814D02*
X9638571Y-10295814D01*
X9567143Y-10195814D02*
X9567143Y-10452957D01*
X9581428Y-10481529D01*
X9610000Y-10495814D01*
X9638571Y-10495814D01*
X9967143Y-10295814D02*
X9967143Y-10595814D01*
X9967143Y-10310100D02*
X9995714Y-10295814D01*
X10052857Y-10295814D01*
X10081428Y-10310100D01*
X10095714Y-10324386D01*
X10110000Y-10352957D01*
X10110000Y-10438672D01*
X10095714Y-10467243D01*
X10081428Y-10481529D01*
X10052857Y-10495814D01*
X9995714Y-10495814D01*
X9967143Y-10481529D01*
X10281428Y-10495814D02*
X10252857Y-10481529D01*
X10238571Y-10452957D01*
X10238571Y-10195814D01*
X10524286Y-10495814D02*
X10524286Y-10338672D01*
X10510000Y-10310100D01*
X10481428Y-10295814D01*
X10424286Y-10295814D01*
X10395714Y-10310100D01*
X10524286Y-10481529D02*
X10495714Y-10495814D01*
X10424286Y-10495814D01*
X10395714Y-10481529D01*
X10381428Y-10452957D01*
X10381428Y-10424386D01*
X10395714Y-10395814D01*
X10424286Y-10381529D01*
X10495714Y-10381529D01*
X10524286Y-10367243D01*
X10624286Y-10295814D02*
X10738571Y-10295814D01*
X10667143Y-10195814D02*
X10667143Y-10452957D01*
X10681428Y-10481529D01*
X10710000Y-10495814D01*
X10738571Y-10495814D01*
X10952857Y-10481529D02*
X10924286Y-10495814D01*
X10867143Y-10495814D01*
X10838571Y-10481529D01*
X10824286Y-10452957D01*
X10824286Y-10338672D01*
X10838571Y-10310100D01*
X10867143Y-10295814D01*
X10924286Y-10295814D01*
X10952857Y-10310100D01*
X10967143Y-10338672D01*
X10967143Y-10367243D01*
X10824286Y-10395814D01*
X11224286Y-10495814D02*
X11224286Y-10195814D01*
X11224286Y-10481529D02*
X11195714Y-10495814D01*
X11138571Y-10495814D01*
X11110000Y-10481529D01*
X11095714Y-10467243D01*
X11081428Y-10438672D01*
X11081428Y-10352957D01*
X11095714Y-10324386D01*
X11110000Y-10310100D01*
X11138571Y-10295814D01*
X11195714Y-10295814D01*
X11224286Y-10310100D01*
X11338571Y-10610100D02*
X11352857Y-10595814D01*
X11381428Y-10552957D01*
X11395714Y-10524386D01*
X11410000Y-10481529D01*
X11424286Y-10410100D01*
X11424286Y-10352957D01*
X11410000Y-10281529D01*
X11395714Y-10238672D01*
X11381428Y-10210100D01*
X11352857Y-10167243D01*
X11338571Y-10152957D01*
X1196220Y-10556710D02*
X1595000Y-10955490D01*
X1595000Y-10556710D02*
X1196220Y-10955490D01*
X1595000Y-10756100D02*
G75*
G03*
X1595000Y-10756100I-199390J0D01*
G01*
X1852857Y-10591814D02*
X2038571Y-10591814D01*
X1938571Y-10706100D01*
X1981428Y-10706100D01*
X2010000Y-10720386D01*
X2024286Y-10734672D01*
X2038571Y-10763243D01*
X2038571Y-10834672D01*
X2024286Y-10863243D01*
X2010000Y-10877529D01*
X1981428Y-10891814D01*
X1895714Y-10891814D01*
X1867143Y-10877529D01*
X1852857Y-10863243D01*
X2167143Y-10863243D02*
X2181428Y-10877529D01*
X2167143Y-10891814D01*
X2152857Y-10877529D01*
X2167143Y-10863243D01*
X2167143Y-10891814D01*
X2324286Y-10891814D02*
X2381428Y-10891814D01*
X2410000Y-10877529D01*
X2424286Y-10863243D01*
X2452857Y-10820386D01*
X2467143Y-10763243D01*
X2467143Y-10648957D01*
X2452857Y-10620386D01*
X2438571Y-10606100D01*
X2410000Y-10591814D01*
X2352857Y-10591814D01*
X2324286Y-10606100D01*
X2310000Y-10620386D01*
X2295714Y-10648957D01*
X2295714Y-10720386D01*
X2310000Y-10748957D01*
X2324286Y-10763243D01*
X2352857Y-10777529D01*
X2410000Y-10777529D01*
X2438571Y-10763243D01*
X2452857Y-10748957D01*
X2467143Y-10720386D01*
X2610000Y-10891814D02*
X2667143Y-10891814D01*
X2695714Y-10877529D01*
X2710000Y-10863243D01*
X2738571Y-10820386D01*
X2752857Y-10763243D01*
X2752857Y-10648957D01*
X2738571Y-10620386D01*
X2724286Y-10606100D01*
X2695714Y-10591814D01*
X2638571Y-10591814D01*
X2610000Y-10606100D01*
X2595714Y-10620386D01*
X2581428Y-10648957D01*
X2581428Y-10720386D01*
X2595714Y-10748957D01*
X2610000Y-10763243D01*
X2638571Y-10777529D01*
X2695714Y-10777529D01*
X2724286Y-10763243D01*
X2738571Y-10748957D01*
X2752857Y-10720386D01*
X2881428Y-10891814D02*
X2881428Y-10691814D01*
X2881428Y-10720386D02*
X2895714Y-10706100D01*
X2924286Y-10691814D01*
X2967143Y-10691814D01*
X2995714Y-10706100D01*
X3010000Y-10734672D01*
X3010000Y-10891814D01*
X3010000Y-10734672D02*
X3024286Y-10706100D01*
X3052857Y-10691814D01*
X3095714Y-10691814D01*
X3124286Y-10706100D01*
X3138571Y-10734672D01*
X3138571Y-10891814D01*
X3281428Y-10891814D02*
X3281428Y-10691814D01*
X3281428Y-10720386D02*
X3295714Y-10706100D01*
X3324286Y-10691814D01*
X3367143Y-10691814D01*
X3395714Y-10706100D01*
X3410000Y-10734672D01*
X3410000Y-10891814D01*
X3410000Y-10734672D02*
X3424286Y-10706100D01*
X3452857Y-10691814D01*
X3495714Y-10691814D01*
X3524286Y-10706100D01*
X3538571Y-10734672D01*
X3538571Y-10891814D01*
X4124286Y-10577529D02*
X3867143Y-10963243D01*
X4510000Y-10591814D02*
X4538571Y-10591814D01*
X4567143Y-10606100D01*
X4581428Y-10620386D01*
X4595714Y-10648957D01*
X4610000Y-10706100D01*
X4610000Y-10777529D01*
X4595714Y-10834672D01*
X4581428Y-10863243D01*
X4567143Y-10877529D01*
X4538571Y-10891814D01*
X4510000Y-10891814D01*
X4481428Y-10877529D01*
X4467143Y-10863243D01*
X4452857Y-10834672D01*
X4438571Y-10777529D01*
X4438571Y-10706100D01*
X4452857Y-10648957D01*
X4467143Y-10620386D01*
X4481428Y-10606100D01*
X4510000Y-10591814D01*
X4738571Y-10863243D02*
X4752857Y-10877529D01*
X4738571Y-10891814D01*
X4724286Y-10877529D01*
X4738571Y-10863243D01*
X4738571Y-10891814D01*
X5038571Y-10891814D02*
X4867143Y-10891814D01*
X4952857Y-10891814D02*
X4952857Y-10591814D01*
X4924286Y-10634672D01*
X4895714Y-10663243D01*
X4867143Y-10677529D01*
X5310000Y-10591814D02*
X5167143Y-10591814D01*
X5152857Y-10734672D01*
X5167143Y-10720386D01*
X5195714Y-10706100D01*
X5267143Y-10706100D01*
X5295714Y-10720386D01*
X5310000Y-10734672D01*
X5324286Y-10763243D01*
X5324286Y-10834672D01*
X5310000Y-10863243D01*
X5295714Y-10877529D01*
X5267143Y-10891814D01*
X5195714Y-10891814D01*
X5167143Y-10877529D01*
X5152857Y-10863243D01*
X5424286Y-10591814D02*
X5624286Y-10591814D01*
X5495714Y-10891814D01*
X5724286Y-10591814D02*
X5724286Y-10648957D01*
X5838571Y-10591814D02*
X5838571Y-10648957D01*
X6281428Y-11006100D02*
X6267143Y-10991814D01*
X6238571Y-10948957D01*
X6224286Y-10920386D01*
X6210000Y-10877529D01*
X6195714Y-10806100D01*
X6195714Y-10748957D01*
X6210000Y-10677529D01*
X6224286Y-10634672D01*
X6238571Y-10606100D01*
X6267143Y-10563243D01*
X6281428Y-10548957D01*
X6381428Y-10620386D02*
X6395714Y-10606100D01*
X6424286Y-10591814D01*
X6495714Y-10591814D01*
X6524286Y-10606100D01*
X6538571Y-10620386D01*
X6552857Y-10648957D01*
X6552857Y-10677529D01*
X6538571Y-10720386D01*
X6367143Y-10891814D01*
X6552857Y-10891814D01*
X6695714Y-10891814D02*
X6752857Y-10891814D01*
X6781428Y-10877529D01*
X6795714Y-10863243D01*
X6824286Y-10820386D01*
X6838571Y-10763243D01*
X6838571Y-10648957D01*
X6824286Y-10620386D01*
X6810000Y-10606100D01*
X6781428Y-10591814D01*
X6724286Y-10591814D01*
X6695714Y-10606100D01*
X6681428Y-10620386D01*
X6667143Y-10648957D01*
X6667143Y-10720386D01*
X6681428Y-10748957D01*
X6695714Y-10763243D01*
X6724286Y-10777529D01*
X6781428Y-10777529D01*
X6810000Y-10763243D01*
X6824286Y-10748957D01*
X6838571Y-10720386D01*
X7195714Y-10891814D02*
X7195714Y-10591814D01*
X7324286Y-10891814D02*
X7324286Y-10734672D01*
X7310000Y-10706100D01*
X7281428Y-10691814D01*
X7238571Y-10691814D01*
X7210000Y-10706100D01*
X7195714Y-10720386D01*
X7510000Y-10891814D02*
X7481428Y-10877529D01*
X7467143Y-10863243D01*
X7452857Y-10834672D01*
X7452857Y-10748957D01*
X7467143Y-10720386D01*
X7481428Y-10706100D01*
X7510000Y-10691814D01*
X7552857Y-10691814D01*
X7581428Y-10706100D01*
X7595714Y-10720386D01*
X7610000Y-10748957D01*
X7610000Y-10834672D01*
X7595714Y-10863243D01*
X7581428Y-10877529D01*
X7552857Y-10891814D01*
X7510000Y-10891814D01*
X7781428Y-10891814D02*
X7752857Y-10877529D01*
X7738571Y-10848957D01*
X7738571Y-10591814D01*
X8010000Y-10877529D02*
X7981428Y-10891814D01*
X7924286Y-10891814D01*
X7895714Y-10877529D01*
X7881428Y-10848957D01*
X7881428Y-10734672D01*
X7895714Y-10706100D01*
X7924286Y-10691814D01*
X7981428Y-10691814D01*
X8010000Y-10706100D01*
X8024286Y-10734672D01*
X8024286Y-10763243D01*
X7881428Y-10791814D01*
X8138571Y-10877529D02*
X8167143Y-10891814D01*
X8224286Y-10891814D01*
X8252857Y-10877529D01*
X8267143Y-10848957D01*
X8267143Y-10834672D01*
X8252857Y-10806100D01*
X8224286Y-10791814D01*
X8181428Y-10791814D01*
X8152857Y-10777529D01*
X8138571Y-10748957D01*
X8138571Y-10734672D01*
X8152857Y-10706100D01*
X8181428Y-10691814D01*
X8224286Y-10691814D01*
X8252857Y-10706100D01*
X8367143Y-11006100D02*
X8381428Y-10991814D01*
X8410000Y-10948957D01*
X8424286Y-10920386D01*
X8438571Y-10877529D01*
X8452857Y-10806100D01*
X8452857Y-10748957D01*
X8438571Y-10677529D01*
X8424286Y-10634672D01*
X8410000Y-10606100D01*
X8381428Y-10563243D01*
X8367143Y-10548957D01*
X8910000Y-11006100D02*
X8895714Y-10991814D01*
X8867143Y-10948957D01*
X8852857Y-10920386D01*
X8838571Y-10877529D01*
X8824286Y-10806100D01*
X8824286Y-10748957D01*
X8838571Y-10677529D01*
X8852857Y-10634672D01*
X8867143Y-10606100D01*
X8895714Y-10563243D01*
X8910000Y-10548957D01*
X9024286Y-10691814D02*
X9024286Y-10891814D01*
X9024286Y-10720386D02*
X9038571Y-10706100D01*
X9067143Y-10691814D01*
X9110000Y-10691814D01*
X9138571Y-10706100D01*
X9152857Y-10734672D01*
X9152857Y-10891814D01*
X9338571Y-10891814D02*
X9310000Y-10877529D01*
X9295714Y-10863243D01*
X9281428Y-10834672D01*
X9281428Y-10748957D01*
X9295714Y-10720386D01*
X9310000Y-10706100D01*
X9338571Y-10691814D01*
X9381428Y-10691814D01*
X9410000Y-10706100D01*
X9424286Y-10720386D01*
X9438571Y-10748957D01*
X9438571Y-10834672D01*
X9424286Y-10863243D01*
X9410000Y-10877529D01*
X9381428Y-10891814D01*
X9338571Y-10891814D01*
X9524286Y-10691814D02*
X9638571Y-10691814D01*
X9567143Y-10591814D02*
X9567143Y-10848957D01*
X9581428Y-10877529D01*
X9610000Y-10891814D01*
X9638571Y-10891814D01*
X9967143Y-10691814D02*
X9967143Y-10991814D01*
X9967143Y-10706100D02*
X9995714Y-10691814D01*
X10052857Y-10691814D01*
X10081428Y-10706100D01*
X10095714Y-10720386D01*
X10110000Y-10748957D01*
X10110000Y-10834672D01*
X10095714Y-10863243D01*
X10081428Y-10877529D01*
X10052857Y-10891814D01*
X9995714Y-10891814D01*
X9967143Y-10877529D01*
X10281428Y-10891814D02*
X10252857Y-10877529D01*
X10238571Y-10848957D01*
X10238571Y-10591814D01*
X10524286Y-10891814D02*
X10524286Y-10734672D01*
X10510000Y-10706100D01*
X10481428Y-10691814D01*
X10424286Y-10691814D01*
X10395714Y-10706100D01*
X10524286Y-10877529D02*
X10495714Y-10891814D01*
X10424286Y-10891814D01*
X10395714Y-10877529D01*
X10381428Y-10848957D01*
X10381428Y-10820386D01*
X10395714Y-10791814D01*
X10424286Y-10777529D01*
X10495714Y-10777529D01*
X10524286Y-10763243D01*
X10624286Y-10691814D02*
X10738571Y-10691814D01*
X10667143Y-10591814D02*
X10667143Y-10848957D01*
X10681428Y-10877529D01*
X10710000Y-10891814D01*
X10738571Y-10891814D01*
X10952857Y-10877529D02*
X10924286Y-10891814D01*
X10867143Y-10891814D01*
X10838571Y-10877529D01*
X10824286Y-10848957D01*
X10824286Y-10734672D01*
X10838571Y-10706100D01*
X10867143Y-10691814D01*
X10924286Y-10691814D01*
X10952857Y-10706100D01*
X10967143Y-10734672D01*
X10967143Y-10763243D01*
X10824286Y-10791814D01*
X11224286Y-10891814D02*
X11224286Y-10591814D01*
X11224286Y-10877529D02*
X11195714Y-10891814D01*
X11138571Y-10891814D01*
X11110000Y-10877529D01*
X11095714Y-10863243D01*
X11081428Y-10834672D01*
X11081428Y-10748957D01*
X11095714Y-10720386D01*
X11110000Y-10706100D01*
X11138571Y-10691814D01*
X11195714Y-10691814D01*
X11224286Y-10706100D01*
X11338571Y-11006100D02*
X11352857Y-10991814D01*
X11381428Y-10948957D01*
X11395714Y-10920386D01*
X11410000Y-10877529D01*
X11424286Y-10806100D01*
X11424286Y-10748957D01*
X11410000Y-10677529D01*
X11395714Y-10634672D01*
X11381428Y-10606100D01*
X11352857Y-10563243D01*
X11338571Y-10548957D01*
M02*
