G04 #@! TF.GenerationSoftware,KiCad,Pcbnew,(5.1.9)-1*
G04 #@! TF.CreationDate,2021-09-28T02:01:21-07:00*
G04 #@! TF.ProjectId,alphalpha rev2,616c7068-616c-4706-9861-20726576322e,rev?*
G04 #@! TF.SameCoordinates,Original*
G04 #@! TF.FileFunction,Paste,Bot*
G04 #@! TF.FilePolarity,Positive*
%FSLAX46Y46*%
G04 Gerber Fmt 4.6, Leading zero omitted, Abs format (unit mm)*
G04 Created by KiCad (PCBNEW (5.1.9)-1) date 2021-09-28 02:01:21*
%MOMM*%
%LPD*%
G01*
G04 APERTURE LIST*
G04 #@! TA.AperFunction,Profile*
%ADD10C,0.200000*%
G04 #@! TD*
%ADD11R,1.397000X1.600000*%
G04 APERTURE END LIST*
D10*
X47481250Y-13000000D02*
X181118750Y-13000000D01*
X186500000Y-7000000D02*
X181118750Y-13000000D01*
X186500000Y-7000000D02*
X210168750Y-7000000D01*
X212550000Y-13000000D02*
X210168750Y-7000000D01*
X42100000Y-7000000D02*
X47481250Y-13000000D01*
X16050000Y-13000000D02*
X18431250Y-7000000D01*
X207168750Y-77521000D02*
X212550000Y-70389750D01*
X16050000Y-70389750D02*
X21431250Y-77521000D01*
X18431250Y-7000000D02*
X42100000Y-7000000D01*
X212550000Y-13000000D02*
X212550000Y-70389750D01*
X207168750Y-77521000D02*
X21431250Y-77521000D01*
X16050000Y-70389750D02*
X16050000Y-13000000D01*
D11*
X132003800Y-28165600D03*
X132003800Y-30965600D03*
X74828400Y-28165600D03*
X74828400Y-30965600D03*
X38025000Y-28175000D03*
X38025000Y-30975000D03*
X57075000Y-28175000D03*
X57075000Y-30975000D03*
X77597000Y-28165600D03*
X77597000Y-30965600D03*
X134721600Y-28165600D03*
X134721600Y-30965600D03*
X152325000Y-28175000D03*
X152325000Y-30975000D03*
X171476600Y-28175000D03*
X171476600Y-30975000D03*
X190526600Y-28175000D03*
X190526600Y-30975000D03*
X209576600Y-28175000D03*
X209576600Y-30975000D03*
X38126600Y-47225000D03*
X38126600Y-50025000D03*
X57176600Y-47225000D03*
X57176600Y-50025000D03*
X76226600Y-47225000D03*
X76226600Y-50025000D03*
X95276600Y-47225000D03*
X95276600Y-50025000D03*
X114326600Y-47225000D03*
X114326600Y-50025000D03*
X133376600Y-47225000D03*
X133376600Y-50025000D03*
X152426600Y-47225000D03*
X152426600Y-50025000D03*
X171476600Y-47225000D03*
X171476600Y-50025000D03*
X190526600Y-47225000D03*
X190526600Y-50025000D03*
X209576600Y-47225000D03*
X209576600Y-50025000D03*
X47651600Y-66275000D03*
X47651600Y-69075000D03*
X66701600Y-66275000D03*
X66701600Y-69075000D03*
X85751600Y-66275000D03*
X85751600Y-69075000D03*
X104801600Y-66275000D03*
X104801600Y-69075000D03*
X123851600Y-66275000D03*
X123851600Y-69075000D03*
X142901600Y-66275000D03*
X142901600Y-69075000D03*
X161951600Y-66275000D03*
X161951600Y-69075000D03*
X181001600Y-66275000D03*
X181001600Y-69075000D03*
X200051600Y-66275000D03*
X200051600Y-69075000D03*
M02*
