  0
SECTION
  2
HEADER
  9
$ACADVER
  1
AC1014
  9
$HANDSEED
  5
FFFF
  9
$MEASUREMENT
 70
     1
  0
ENDSEC
  0
SECTION
  2
TABLES
  0
TABLE
  2
VPORT
  5
8
330
0
100
AcDbSymbolTable
 70
     4
  0
VPORT
  5
2E
330
8
100
AcDbSymbolTableRecord
100
AcDbViewportTableRecord
  2
*ACTIVE
 70
     0
 10
0.0
 20
0.0
 11
1.0
 21
1.0
 12
210.0
 22
148.5
 13
0.0
 23
0.0
 14
10.0
 24
10.0
 15
10.0
 25
10.0
 16
0.0
 26
0.0
 36
1.0
 17
0.0
 27
0.0
 37
0.0
 40
341.0
 41
1.24
 42
50.0
 43
0.0
 44
0.0
 50
0.0
 51
0.0
 71
     0
 72
   100
 73
     1
 74
     3
 75
     0
 76
     0
 77
     0
 78
     0
  0
ENDTAB
  0
TABLE
  2
LTYPE
  5
5
330
0
100
AcDbSymbolTable
 70
     1
  0
LTYPE
  5
14
330
5
100
AcDbSymbolTableRecord
100
AcDbLinetypeTableRecord
  2
BYBLOCK
 70
     0
  3

 72
    65
 73
     0
 40
0.0
  0
LTYPE
  5
15
330
5
100
AcDbSymbolTableRecord
100
AcDbLinetypeTableRecord
  2
BYLAYER
 70
     0
  3

 72
    65
 73
     0
 40
0.0
  0
LTYPE
  5
16
330
5
100
AcDbSymbolTableRecord
100
AcDbLinetypeTableRecord
  2
CONTINUOUS
 70
     0
  3
Solid line
 72
    65
 73
     0
 40
0.0
  0
ENDTAB
  0
TABLE
  2
LAYER
  5
2
100
AcDbSymbolTable
 70
2
  0
LAYER
  5
50
100
AcDbSymbolTableRecord
100
AcDbLayerTableRecord
  2
0
 70
0
  6
CONTINUOUS
  0
LAYER
  5
51
100
AcDbSymbolTableRecord
100
AcDbLayerTableRecord
  2
Layer_2
 70
0
  6
CONTINUOUS
  0
ENDTAB
  0
TABLE
  2
STYLE
  5
3
330
0
100
AcDbSymbolTable
 70
     1
  0
STYLE
  5
11
330
3
100
AcDbSymbolTableRecord
100
AcDbTextStyleTableRecord
  2
STANDARD
 70
     0
 40
0.0
 41
1.0
 50
0.0
 71
     0
 42
2.5
  3
txt
  4

  0
ENDTAB
  0
TABLE
  2
VIEW
  5
6
330
0
100
AcDbSymbolTable
 70
     0
  0
ENDTAB
  0
TABLE
  2
UCS
  5
7
330
0
100
AcDbSymbolTable
 70
     0
  0
ENDTAB
  0
TABLE
  2
APPID
  5
9
330
0
100
AcDbSymbolTable
 70
     2
  0
APPID
  5
12
330
9
100
AcDbSymbolTableRecord
100
AcDbRegAppTableRecord
  2
ACAD
 70
     0
  0
ENDTAB
  0
TABLE
  2
DIMSTYLE
  5
A
330
0
100
AcDbSymbolTable
 70
     1
  0
DIMSTYLE
105
27
330
A
100
AcDbSymbolTableRecord
100
AcDbDimStyleTableRecord
  2
ISO-25
 70
     0
  3

  4

  5

  6

  7

 40
1.0
 41
2.5
 42
0.625
 43
3.75
 44
1.25
 45
0.0
 46
0.0
 47
0.0
 48
0.0
140
2.5
141
2.5
142
0.0
143
0.03937007874016
144
1.0
145
0.0
146
1.0
147
0.625
 71
     0
 72
     0
 73
     0
 74
     0
 75
     0
 76
     0
 77
     1
 78
     8
170
     0
171
     3
172
     1
173
     0
174
     0
175
     0
176
     0
177
     0
178
     0
270
     2
271
     2
272
     2
273
     2
274
     3
340
11
275
     0
280
     0
281
     0
282
     0
283
     0
284
     8
285
     0
286
     0
287
     3
288
     0
  0
ENDTAB
  0
TABLE
  2
BLOCK_RECORD
  5
1
330
0
100
AcDbSymbolTable
 70
     1
  0
BLOCK_RECORD
  5
1F
330
1
100
AcDbSymbolTableRecord
100
AcDbBlockTableRecord
  2
*MODEL_SPACE
  0
BLOCK_RECORD
  5
1B
330
1
100
AcDbSymbolTableRecord
100
AcDbBlockTableRecord
  2
*PAPER_SPACE
  0
ENDTAB
  0
ENDSEC
  0
SECTION
  2
BLOCKS
  0
BLOCK
  5
20
330
1F
100
AcDbEntity
  8
0
100
AcDbBlockBegin
  2
*MODEL_SPACE
 70
     0
 10
0.0
 20
0.0
 30
0.0
  3
*MODEL_SPACE
  1

  0
ENDBLK
  5
21
330
1F
100
AcDbEntity
  8
0
100
AcDbBlockEnd
  0
BLOCK
  5
1C
330
1B
100
AcDbEntity
 67
     1
  8
0
100
AcDbBlockBegin
  2
*PAPER_SPACE
  1

  0
ENDBLK
  5
1D
330
1B
100
AcDbEntity
 67
     1
  8
0
100
AcDbBlockEnd
  0
ENDSEC
  0
SECTION
  2
ENTITIES
  0
LWPOLYLINE
  5
100
100
AcDbEntity
  8
Layer_2
 62
3
100
AcDbPolyline
 90
8
 70
1
 10
2.624767
 20
-2.074208
 30
0.0
 10
16.622677
 20
-2.074208
 30
0.0
 10
16.622677
 20
-16.072118
 30
0.0
 10
2.624767
 20
-16.072118
 30
0.0
 10
2.624767
 20
-2.074208
 30
0.0
 10
16.622677
 20
-2.074208
 30
0.0
 10
16.622677
 20
-16.072118
 30
0.0
 10
2.624767
 20
-16.072118
 30
0.0
  0
LWPOLYLINE
  5
101
100
AcDbEntity
  8
Layer_2
 62
3
100
AcDbPolyline
 90
4
 70
1
 10
21.674725
 20
-2.074207
 30
0.0
 10
35.672634
 20
-2.074207
 30
0.0
 10
35.672634
 20
-16.072116
 30
0.0
 10
21.674725
 20
-16.072116
 30
0.0
  0
LWPOLYLINE
  5
102
100
AcDbEntity
  8
Layer_2
 62
3
100
AcDbPolyline
 90
4
 70
1
 10
40.724682
 20
-2.074207
 30
0.0
 10
54.722589
 20
-2.074207
 30
0.0
 10
54.722589
 20
-16.072119
 30
0.0
 10
40.724682
 20
-16.072119
 30
0.0
  0
LWPOLYLINE
  5
103
100
AcDbEntity
  8
Layer_2
 62
3
100
AcDbPolyline
 90
4
 70
1
 10
59.774645
 20
-2.074208
 30
0.0
 10
73.772554
 20
-2.074208
 30
0.0
 10
73.772554
 20
-16.072118
 30
0.0
 10
59.774645
 20
-16.072118
 30
0.0
  0
LWPOLYLINE
  5
104
100
AcDbEntity
  8
Layer_2
 62
3
100
AcDbPolyline
 90
4
 70
1
 10
78.824603
 20
-2.074208
 30
0.0
 10
92.822509
 20
-2.074208
 30
0.0
 10
92.822509
 20
-16.072116
 30
0.0
 10
78.824603
 20
-16.072116
 30
0.0
  0
LWPOLYLINE
  5
105
100
AcDbEntity
  8
Layer_2
 62
3
100
AcDbPolyline
 90
4
 70
1
 10
97.874556
 20
-2.074207
 30
0.0
 10
111.872467
 20
-2.074207
 30
0.0
 10
111.872467
 20
-16.072119
 30
0.0
 10
97.874556
 20
-16.072119
 30
0.0
  0
LWPOLYLINE
  5
106
100
AcDbEntity
  8
Layer_2
 62
3
100
AcDbPolyline
 90
4
 70
1
 10
116.924524
 20
-2.074208
 30
0.0
 10
130.922430
 20
-2.074208
 30
0.0
 10
130.922430
 20
-16.072116
 30
0.0
 10
116.924524
 20
-16.072116
 30
0.0
  0
LWPOLYLINE
  5
107
100
AcDbEntity
  8
Layer_2
 62
3
100
AcDbPolyline
 90
4
 70
1
 10
135.974482
 20
-2.074207
 30
0.0
 10
149.972403
 20
-2.074207
 30
0.0
 10
149.972403
 20
-16.072119
 30
0.0
 10
135.974482
 20
-16.072119
 30
0.0
  0
LWPOLYLINE
  5
108
100
AcDbEntity
  8
Layer_2
 62
3
100
AcDbPolyline
 90
4
 70
1
 10
155.024439
 20
-2.074208
 30
0.0
 10
169.022336
 20
-2.074208
 30
0.0
 10
169.022336
 20
-16.072116
 30
0.0
 10
155.024439
 20
-16.072116
 30
0.0
  0
LWPOLYLINE
  5
109
100
AcDbEntity
  8
Layer_2
 62
3
100
AcDbPolyline
 90
4
 70
1
 10
174.074387
 20
-2.074208
 30
0.0
 10
188.072284
 20
-2.074208
 30
0.0
 10
188.072284
 20
-16.072116
 30
0.0
 10
174.074387
 20
-16.072116
 30
0.0
  0
LWPOLYLINE
  5
10a
100
AcDbEntity
  8
Layer_2
 62
3
100
AcDbPolyline
 90
4
 70
1
 10
2.624769
 20
-21.124168
 30
0.0
 10
16.622679
 20
-21.124168
 30
0.0
 10
16.622679
 20
-35.122078
 30
0.0
 10
2.624769
 20
-35.122078
 30
0.0
  0
LWPOLYLINE
  5
10b
100
AcDbEntity
  8
Layer_2
 62
3
100
AcDbPolyline
 90
4
 70
1
 10
21.674727
 20
-21.124165
 30
0.0
 10
35.672636
 20
-21.124165
 30
0.0
 10
35.672636
 20
-35.122074
 30
0.0
 10
21.674727
 20
-35.122074
 30
0.0
  0
LWPOLYLINE
  5
10c
100
AcDbEntity
  8
Layer_2
 62
3
100
AcDbPolyline
 90
4
 70
1
 10
40.724685
 20
-21.124165
 30
0.0
 10
54.722591
 20
-21.124165
 30
0.0
 10
54.722591
 20
-35.122077
 30
0.0
 10
40.724685
 20
-35.122077
 30
0.0
  0
LWPOLYLINE
  5
10d
100
AcDbEntity
  8
Layer_2
 62
3
100
AcDbPolyline
 90
4
 70
1
 10
59.774650
 20
-21.124168
 30
0.0
 10
73.772559
 20
-21.124168
 30
0.0
 10
73.772559
 20
-35.122078
 30
0.0
 10
59.774650
 20
-35.122078
 30
0.0
  0
LWPOLYLINE
  5
10e
100
AcDbEntity
  8
Layer_2
 62
3
100
AcDbPolyline
 90
4
 70
1
 10
78.824608
 20
-21.124168
 30
0.0
 10
92.822515
 20
-21.124168
 30
0.0
 10
92.822515
 20
-35.122076
 30
0.0
 10
78.824608
 20
-35.122076
 30
0.0
  0
LWPOLYLINE
  5
10f
100
AcDbEntity
  8
Layer_2
 62
3
100
AcDbPolyline
 90
4
 70
1
 10
97.874556
 20
-21.124165
 30
0.0
 10
111.872467
 20
-21.124165
 30
0.0
 10
111.872467
 20
-35.122077
 30
0.0
 10
97.874556
 20
-35.122077
 30
0.0
  0
LWPOLYLINE
  5
110
100
AcDbEntity
  8
Layer_2
 62
3
100
AcDbPolyline
 90
4
 70
1
 10
116.924524
 20
-21.124168
 30
0.0
 10
130.922430
 20
-21.124168
 30
0.0
 10
130.922430
 20
-35.122076
 30
0.0
 10
116.924524
 20
-35.122076
 30
0.0
  0
LWPOLYLINE
  5
111
100
AcDbEntity
  8
Layer_2
 62
3
100
AcDbPolyline
 90
4
 70
1
 10
135.974482
 20
-21.124165
 30
0.0
 10
149.972403
 20
-21.124165
 30
0.0
 10
149.972403
 20
-35.122077
 30
0.0
 10
135.974482
 20
-35.122077
 30
0.0
  0
LWPOLYLINE
  5
112
100
AcDbEntity
  8
Layer_2
 62
3
100
AcDbPolyline
 90
4
 70
1
 10
155.024439
 20
-21.124168
 30
0.0
 10
169.022336
 20
-21.124168
 30
0.0
 10
169.022336
 20
-35.122076
 30
0.0
 10
155.024439
 20
-35.122076
 30
0.0
  0
LWPOLYLINE
  5
113
100
AcDbEntity
  8
Layer_2
 62
3
100
AcDbPolyline
 90
4
 70
1
 10
174.074387
 20
-21.124168
 30
0.0
 10
188.072284
 20
-21.124168
 30
0.0
 10
188.072284
 20
-35.122076
 30
0.0
 10
174.074387
 20
-35.122076
 30
0.0
  0
LWPOLYLINE
  5
114
100
AcDbEntity
  8
Layer_2
 62
3
100
AcDbPolyline
 90
4
 70
1
 10
12.149746
 20
-40.174128
 30
0.0
 10
26.147655
 20
-40.174128
 30
0.0
 10
26.147655
 20
-54.172035
 30
0.0
 10
12.149746
 20
-54.172035
 30
0.0
  0
LWPOLYLINE
  5
115
100
AcDbEntity
  8
Layer_2
 62
3
100
AcDbPolyline
 90
4
 70
1
 10
31.199701
 20
-40.174128
 30
0.0
 10
45.197610
 20
-40.174128
 30
0.0
 10
45.197610
 20
-54.172035
 30
0.0
 10
31.199701
 20
-54.172035
 30
0.0
  0
LWPOLYLINE
  5
116
100
AcDbEntity
  8
Layer_2
 62
3
100
AcDbPolyline
 90
4
 70
1
 10
50.249666
 20
-40.174128
 30
0.0
 10
64.247573
 20
-40.174128
 30
0.0
 10
64.247573
 20
-54.172035
 30
0.0
 10
50.249666
 20
-54.172035
 30
0.0
  0
LWPOLYLINE
  5
117
100
AcDbEntity
  8
Layer_2
 62
3
100
AcDbPolyline
 90
4
 70
1
 10
69.299624
 20
-40.174128
 30
0.0
 10
83.297533
 20
-40.174128
 30
0.0
 10
83.297533
 20
-54.172037
 30
0.0
 10
69.299624
 20
-54.172037
 30
0.0
  0
LWPOLYLINE
  5
118
100
AcDbEntity
  8
Layer_2
 62
3
100
AcDbPolyline
 90
4
 70
1
 10
88.349577
 20
-40.174123
 30
0.0
 10
102.347488
 20
-40.174123
 30
0.0
 10
102.347488
 20
-54.172035
 30
0.0
 10
88.349577
 20
-54.172035
 30
0.0
  0
LWPOLYLINE
  5
119
100
AcDbEntity
  8
Layer_2
 62
3
100
AcDbPolyline
 90
4
 70
1
 10
107.399545
 20
-40.174128
 30
0.0
 10
121.397451
 20
-40.174128
 30
0.0
 10
121.397451
 20
-54.172035
 30
0.0
 10
107.399545
 20
-54.172035
 30
0.0
  0
LWPOLYLINE
  5
11a
100
AcDbEntity
  8
Layer_2
 62
3
100
AcDbPolyline
 90
4
 70
1
 10
126.449503
 20
-40.174128
 30
0.0
 10
140.447409
 20
-40.174128
 30
0.0
 10
140.447409
 20
-54.172035
 30
0.0
 10
126.449503
 20
-54.172035
 30
0.0
  0
LWPOLYLINE
  5
11b
100
AcDbEntity
  8
Layer_2
 62
3
100
AcDbPolyline
 90
4
 70
1
 10
145.499460
 20
-40.174128
 30
0.0
 10
159.497357
 20
-40.174128
 30
0.0
 10
159.497357
 20
-54.172035
 30
0.0
 10
145.499460
 20
-54.172035
 30
0.0
  0
LWPOLYLINE
  5
11c
100
AcDbEntity
  8
Layer_2
 62
3
100
AcDbPolyline
 90
4
 70
1
 10
164.549418
 20
-40.174128
 30
0.0
 10
178.547315
 20
-40.174128
 30
0.0
 10
178.547315
 20
-54.172035
 30
0.0
 10
164.549418
 20
-54.172035
 30
0.0
  0
LWPOLYLINE
  5
11d
100
AcDbEntity
  8
Layer_2
 62
3
100
AcDbPolyline
 90
8
 70
1
 10
0.599999
 20
-0.249439
 30
0.0
 10
190.099585
 20
-0.249439
 30
0.0
 10
190.099585
 20
-37.149358
 30
0.0
 10
180.574606
 20
-37.149358
 30
0.0
 10
180.574606
 20
-55.999317
 30
0.0
 10
10.124978
 20
-55.999317
 30
0.0
 10
10.124978
 20
-37.149358
 30
0.0
 10
0.599999
 20
-37.149358
 30
0.0
  0
ENDSEC
  0
SECTION
  2
OBJECTS
  0
DICTIONARY
  5
C
330
0
100
AcDbDictionary
  3
ACAD_GROUP
350
D
  3
ACAD_MLINESTYLE
350
17
  0
DICTIONARY
  5
D
330
C
100
AcDbDictionary
  0
DICTIONARY
  5
1A
330
C
100
AcDbDictionary
  0
DICTIONARY
  5
17
330
C
100
AcDbDictionary
  3
STANDARD
350
18
  0
DICTIONARY
  5
19
330
C
100
AcDbDictionary
  0
ENDSEC
  0
EOF
